<svg width="38" height="37" viewBox="0 0 38 37" fill="none" xmlns="http://www.w3.org/2000/svg">
<path opacity="0.25" fill-rule="evenodd" clip-rule="evenodd" d="M18.9824 36C28.6474 36 36.4824 28.165 36.4824 18.5C36.4824 8.83502 28.6474 1 18.9824 1C9.31744 1 1.48242 8.83502 1.48242 18.5C1.48242 28.165 9.31744 36 18.9824 36Z" stroke="white" stroke-width="1.5"/>
<path d="M20.5757 14.0207H22.1841C22.3321 14.0207 22.4522 13.9075 22.4522 13.7681V12.2525C22.4522 12.113 22.3321 11.9999 22.1841 11.9999H20.5757C18.9502 11.9999 17.627 13.2462 17.627 14.7785V16.5466H15.7506C15.6026 16.5466 15.4825 16.6598 15.4825 16.7992V18.3148C15.4825 18.4543 15.6026 18.5674 15.7506 18.5674H17.627V23.872C17.627 24.0114 17.7471 24.1246 17.8951 24.1246H19.5035C19.6515 24.1246 19.7716 24.0114 19.7716 23.872V18.5674H21.648C21.7633 18.5674 21.8657 18.4977 21.9027 18.3946L22.4388 16.8791C22.4661 16.8023 22.4522 16.7174 22.4018 16.6512C22.3509 16.5855 22.2704 16.5466 22.1841 16.5466H19.7716V14.7785C19.7716 14.3607 20.1324 14.0207 20.5757 14.0207Z" fill="white"/>
</svg>
