<svg width="529" height="441" viewBox="0 0 529 441" fill="none" xmlns="http://www.w3.org/2000/svg">
<g clip-path="url(#clip0)">
<path d="M354.438 86.5154C354.476 86.5154 354.511 86.5006 354.537 86.4743C354.564 86.4481 354.579 86.4125 354.579 86.3753C354.579 86.3382 354.564 86.3026 354.537 86.2763C354.511 86.25 354.476 86.2353 354.438 86.2353C354.401 86.2353 354.366 86.25 354.339 86.2763C354.313 86.3026 354.298 86.3382 354.298 86.3753C354.298 86.4125 354.313 86.4481 354.339 86.4743C354.366 86.5006 354.401 86.5154 354.438 86.5154Z" fill="#4A1914"/>
<path d="M121.743 417.583C80.1273 388.597 49.8208 333.362 39.0718 283.835C35.0287 265.233 33.7781 245.112 41.6269 227.824C50.9205 207.284 71.0925 194.218 90.2295 182.305C65.7665 160.224 55.826 124.226 62.9094 92.0841C69.9928 59.9425 92.8925 32.2817 121.916 16.6848C139.36 7.36759 160.449 2.15426 178.971 9.0156C198.205 16.1355 210.668 34.3605 221.86 51.5408C227.056 33.1649 242.107 18.6667 259.433 10.6098C276.758 2.5528 296.284 0.247738 315.399 -2.47639e-06C353.63 -0.452399 395.828 9.37106 417.962 40.5541C438.544 69.572 435.568 111.052 416.625 141.104C437.035 140.587 456.721 150.799 470.974 165.372C485.227 179.946 494.575 198.688 501.561 217.861C512.548 248.021 518.121 281.304 509.766 312.304C502.348 339.793 484.613 363.36 465.023 384.041C453.821 395.89 441.681 407.146 427.213 414.664C412.744 422.182 395.623 425.64 379.926 421.256" fill="#F2F2F2"/>
<path d="M196.62 301.597C196.641 301.603 196.663 301.604 196.684 301.6C196.706 301.596 196.726 301.588 196.743 301.575C196.761 301.561 196.775 301.545 196.784 301.525C196.794 301.506 196.799 301.484 196.799 301.463C196.799 301.441 196.794 301.42 196.784 301.4C196.775 301.381 196.761 301.364 196.743 301.351C196.726 301.338 196.706 301.329 196.684 301.325C196.663 301.321 196.641 301.322 196.62 301.328C196.591 301.336 196.565 301.354 196.547 301.378C196.529 301.403 196.519 301.432 196.519 301.463C196.519 301.493 196.529 301.523 196.547 301.547C196.565 301.571 196.591 301.589 196.62 301.597Z" fill="white"/>
<path d="M497.022 264.846C492.624 263.521 488.548 265.341 485.616 267.926C482.685 270.694 480.262 273.953 478.457 277.556C472.302 289.155 468.79 301.97 468.171 315.083L467.88 315.514C461.996 323.921 455.666 332.008 448.916 339.739C447.568 341.279 446.188 342.798 444.808 344.316C449.879 338.203 453.987 331.353 456.991 324.002C460.527 314.997 461.929 305.023 459.999 295.544C459.126 291.235 457.487 286.927 454.306 283.846C451.126 280.766 446.188 279.301 442.167 281.089C440.516 281.914 439.049 283.065 437.854 284.471C435.858 286.678 434.188 289.159 432.895 291.839C432 283.771 430.566 275.251 428.852 266.827C431.894 264.648 434.55 261.976 436.711 258.921C437.853 257.411 438.638 255.662 439.008 253.805C439.557 250.197 437.541 246.567 434.695 244.229C431.849 241.892 428.388 240.567 424.992 239.296C444.183 238.736 464.581 237.788 480.311 226.801C485.368 223.268 490.014 218.184 490.284 212.012C490.478 207.305 487.955 202.792 484.44 199.636C482.073 197.538 479.291 195.96 476.276 195.003C473.26 194.046 470.077 193.73 466.931 194.078C479.255 192.828 491.729 189.209 501.249 181.325C510.769 173.44 516.957 160.762 514.725 148.591C512.569 136.656 502.348 126.929 490.543 124.075C478.737 121.221 465.853 124.786 456.333 132.337C446.813 139.887 440.56 151.057 437.725 162.852C436.862 160.36 436.003 157.872 435.148 155.387C433.423 150.4 431.385 145.025 426.879 142.279C423.127 139.984 418.253 140.06 414.167 141.643C410.12 143.404 406.523 146.055 403.645 149.398C393.458 160.648 387.874 175.311 388.001 190.48C380.659 188.24 369.209 185.181 361.317 183.102L351.118 176.855C348.65 171.16 347.191 165.081 346.805 158.888C346.72 152.996 347.2 147.109 348.239 141.309C348.562 139.855 348.929 138.401 349.317 137.001C350.26 134.716 351.07 132.378 351.743 129.999C351.883 129.547 352.002 129.105 352.12 128.653C352.118 128.624 352.118 128.595 352.12 128.567C353.132 129.161 354.303 129.432 355.473 129.342C358.255 129.073 360.584 127.102 362.266 124.872C363.33 123.464 364.211 121.925 364.886 120.294C368.929 118.28 372.098 114.618 374.675 110.837C382.86 98.6992 386.836 84.2155 385.995 69.6044C385.831 64.3324 384.58 59.151 382.319 54.3845C379.915 49.6989 376.422 43.7532 370.168 40.0586C363.915 36.364 358.87 35.8578 353.36 38.0874C346.665 19.9593 328.466 16.2647 307.798 18.4297C303.087 18.9252 296.564 20.681 292.963 23.7508C289.362 26.8206 287.874 32.691 290.807 36.3963C282.623 29.8043 270.753 27.7146 261.179 32.0232C251.605 36.3317 245.18 47.2754 247.013 57.6159C248.133 62.9456 250.712 67.8602 254.462 71.8125C257.108 74.7552 260.123 77.3439 263.433 79.514C262.646 87.1939 261.88 107.207 274.279 113.207C274.397 114.629 274.537 116.05 274.699 117.515C275.68 125.895 277.405 134.383 281.761 141.6C286.451 149.355 293.987 155.161 302.321 158.716C304.692 159.753 307.174 160.519 309.717 160.999C310.094 163.315 310.483 166.062 310.795 169.045C310.932 172.821 310.745 176.601 310.235 180.344L299.992 187.238C294.836 189.764 289.877 192.673 285.157 195.941C284.999 195.277 284.782 194.629 284.51 194.002C284.232 193.289 283.81 192.64 283.27 192.096C282.566 191.519 281.709 191.159 280.804 191.06C279.898 190.96 278.984 191.126 278.171 191.536C276.549 192.384 275.223 193.702 274.365 195.317C272.997 197.684 272.138 200.311 271.842 203.029C270.352 203.383 268.886 203.833 267.454 204.375C266.635 202.727 265.858 201.058 265.093 199.377C265.103 199.342 265.103 199.305 265.093 199.27C265.093 199.27 265.093 199.151 265.093 199.087C273.179 195.026 278.785 185.202 279.95 176.251C280.504 172.614 280.072 168.894 278.699 165.48C278.312 164.491 277.724 163.593 276.974 162.841C276.003 162.038 274.819 161.536 273.566 161.396C272.313 161.256 271.047 161.485 269.923 162.055C267.68 163.228 265.845 165.053 264.662 167.29C262.02 172.127 260.809 177.614 261.169 183.113C261.413 187.636 262.343 192.096 263.929 196.34C263.465 195.263 263.012 194.186 262.57 193.108C260.381 187.681 258.484 182.14 256.888 176.51C256.888 176.413 256.834 176.305 256.802 176.208C258.928 169.03 259.436 161.471 258.29 154.073C258 151.793 257.306 149.583 256.241 147.546C255.723 146.484 254.936 145.575 253.959 144.91C252.981 144.245 251.847 143.847 250.667 143.754C247.681 143.625 244.533 145.779 242.991 148.321C241.632 150.739 241.099 153.533 241.471 156.281C241.909 160.674 243.503 164.873 246.092 168.45C248.68 172.028 252.171 174.857 256.209 176.65C256.209 176.725 256.285 176.801 256.317 176.865C257.718 181.788 259.336 186.656 261.19 191.428C261.514 192.258 261.859 193.087 262.193 193.916L262.053 193.83C259.588 188.261 256.049 183.232 251.638 179.03C250.271 177.648 248.709 176.472 247.002 175.54C246.198 175.113 245.332 174.814 244.436 174.657C241.471 168.604 237.622 157.886 237.169 142.408C236.96 132.475 235.713 122.59 233.45 112.916L234.301 112.647C259.541 103.782 252.382 68.0533 220.199 57.7128C211.874 55.1686 203.172 54.0755 194.475 54.4814C193.159 47.7709 187.23 29.4704 161.236 28.167C129.377 26.5513 113.021 51.5516 112.795 69.2489C112.59 85.0181 116.676 98.7839 127.199 105.947C127.886 114.161 130.517 122.095 134.875 129.094C129.722 132.455 131.361 143.883 137.538 149.722C141.991 153.922 146.832 154.935 149.031 152.382C149.387 153.244 149.775 154.127 150.239 155.053C153.685 161.513 158.311 167.27 163.877 172.029C164.857 174.279 165.703 176.584 166.411 178.933C167.42 182.44 167.992 186.058 168.114 189.705C168.114 190.222 168.114 190.782 168.114 191.267C168.023 193.71 167.687 196.139 167.112 198.516C166.16 197.117 164.737 196.107 163.101 195.672C162.094 198.345 162.168 201.303 163.306 203.923C158.4 205.269 153.7 206.282 149.117 207.337C148.835 206.95 148.517 206.589 148.169 206.26C145.775 204.009 141.915 203.858 138.929 205.237C135.999 206.778 133.602 209.165 132.051 212.088C131.964 212.228 131.9 212.378 131.813 212.529C131.188 212.788 130.552 213.057 129.916 213.348C126.088 214.425 121.722 218.098 117.237 223.699C116.579 222.288 115.943 220.877 115.307 219.455C115.343 219.392 115.369 219.322 115.382 219.251L115.447 218.927C130.088 211.581 140.244 193.798 142.325 177.587C143.316 171.038 142.535 164.344 140.061 158.199C139.364 156.412 138.307 154.788 136.956 153.427C133.646 150.325 128.331 150.109 124.191 152.016C120.051 153.922 116.989 157.574 114.671 161.484C109.582 170.101 107.577 180.28 107.976 190.265C108.414 198.449 110.093 206.519 112.957 214.199C112.126 212.249 111.296 210.3 110.509 208.339C106.556 198.488 103.137 188.431 100.267 178.212C100.267 178.039 100.17 177.867 100.127 177.695C103.968 164.699 104.885 151.016 102.811 137.625C102.28 133.489 101.025 129.478 99.1026 125.777C97.1188 122.265 93.7119 119.109 89.022 118.916C83.6313 118.7 77.9063 122.589 75.1247 127.177C72.3432 131.766 71.955 136.871 72.3755 141.578C73.176 149.517 76.064 157.104 80.7466 163.568C85.4291 170.032 91.7396 175.143 99.0379 178.384L99.1888 178.804C101.722 187.712 104.655 196.512 108.008 205.14C108.59 206.648 109.216 208.145 109.819 209.642L109.561 209.492C105.101 199.415 98.7012 190.313 90.7254 182.703C88.2404 180.216 85.4166 178.091 82.3375 176.391C79.2864 174.819 75.5452 173.936 72.4294 175.411C68.8823 177.092 67.2543 181.508 67.8257 185.385C68.3972 189.263 70.7583 192.667 73.4321 195.543C78.0015 200.375 83.553 204.175 89.7137 206.687C95.8745 209.199 102.502 210.364 109.151 210.106L109.658 210.396C109.727 210.439 109.81 210.454 109.89 210.438C109.97 210.422 110.041 210.376 110.089 210.31C112.065 215.157 114.182 219.951 116.439 224.69C114.876 226.726 113.302 228.999 111.728 231.454C109.647 229.763 107.512 228.158 105.259 226.618C101.418 223.795 97.1963 221.528 92.72 219.886C88.2996 218.389 83.103 217.969 79.2432 220.586C74.8337 223.57 73.5507 229.817 75.114 234.901C76.6773 239.985 80.5047 244.046 84.7202 247.353C89.1531 250.839 94.0476 253.695 99.2643 255.841C97.7657 259.492 96.321 263.294 94.9517 267.226C93.2873 266.203 91.4239 265.546 89.4856 265.298C84.7957 264.781 80.1058 266.978 76.7096 270.242C74.4464 272.453 72.6726 275.115 71.5027 278.053C70.3327 280.992 69.7927 284.143 69.9173 287.304C69.54 274.938 66.8123 262.282 59.6319 252.2C52.4515 242.118 40.2254 235.084 27.9022 236.442C15.8271 237.777 5.39068 247.213 1.70345 258.792C-1.98379 270.371 0.625307 283.448 7.51462 293.465C14.4039 303.482 25.0883 310.516 36.6244 314.168L28.9804 316.203C23.8808 317.571 18.3715 319.208 15.2988 323.506C12.7544 327.082 12.4741 331.929 13.7678 336.13C15.2332 340.289 17.6259 344.061 20.765 347.16C27.8327 354.535 36.6568 359.999 46.4122 363.041C56.1677 366.083 66.536 366.604 76.5479 364.556C71.3836 366.764 65.497 369.941 64.807 375.467C64.117 380.993 69.0117 385.463 73.7555 388.317C86.3913 395.933 100.892 399.498 115.803 401.049C118.545 403.213 121.403 405.226 124.363 407.081C124.363 407.404 124.363 407.706 124.299 407.986C123.634 414.863 123.877 421.799 125.021 428.613C125.157 430.065 125.728 431.443 126.66 432.566C127.779 433.492 129.141 434.075 130.584 434.246C147.781 437.898 165.419 440.063 182.949 438.749C191.661 438.102 200.275 436.594 208.879 435.086L253.406 427.299C254.329 427.231 255.212 426.898 255.95 426.34C255.95 426.34 256.047 426.232 256.101 426.179C265.082 425.791 274.041 425.317 282.979 425.759C282.484 426.036 282.024 426.372 281.61 426.76C281.882 426.725 282.155 426.707 282.429 426.706H318.256C321.746 424.433 324.847 421.615 327.442 418.359C367.096 418.423 413.035 413.802 413.035 413.802C413.639 409.332 413.035 396.794 411.612 379.808C419.01 383.717 427.129 386.076 435.472 386.739C443.815 387.402 452.205 386.356 460.128 383.664C464.991 381.962 469.832 379.474 472.861 375.316C475.891 371.159 476.732 365.04 473.637 360.904C470.942 357.285 466.09 356.025 461.53 355.982C456.916 356.059 452.336 356.785 447.924 358.136C437.36 361.118 427.301 365.66 418.081 371.611C422.491 367.895 426.814 364.071 431.019 360.096C437.2 354.223 443.101 348.094 448.722 341.71C448.746 341.784 448.797 341.847 448.865 341.886C448.932 341.926 449.011 341.94 449.088 341.925L449.638 341.818C455.642 344.164 462.079 345.199 468.516 344.856C474.954 344.512 481.244 342.797 486.963 339.825C490.327 338.048 493.561 335.689 495.319 332.285C497.076 328.881 496.99 324.357 494.241 321.686C491.858 319.349 488.149 318.972 484.85 319.445C481.485 320.021 478.218 321.069 475.147 322.558C465.424 326.984 456.671 333.284 449.39 341.096L449.099 341.15C450.177 339.976 451.18 338.802 452.193 337.606C458.004 330.777 463.481 323.657 468.635 316.311L468.937 316.009C476.65 315.37 484.057 312.703 490.406 308.281C496.755 303.858 501.82 297.836 505.087 290.826C506.974 286.647 508.235 281.864 507.157 276.823C506.079 271.782 502.09 266.364 497.022 264.846ZM264.274 205.797L262.786 205.614C261.783 204.806 260.759 204.031 259.691 203.287C257.571 201.726 255.241 200.472 252.77 199.561C250.333 198.742 247.455 198.483 245.32 199.948C242.883 201.607 242.172 205.054 243.045 207.865C239.011 209.391 235.222 211.499 231.8 214.123C230.056 212.983 228.22 211.989 226.312 211.15C221.838 208.996 218.312 207.919 213.838 205.829C212.048 204.878 210.166 204.109 208.221 203.535C209.084 202.26 209.654 200.809 209.889 199.287C210.124 197.766 210.018 196.211 209.58 194.735C207.596 195.037 207.1 198.117 205.148 198.526C204.62 198.634 204.07 198.526 203.531 198.591C203.381 198.616 203.233 198.652 203.089 198.699C202.104 196.866 201.268 194.957 200.588 192.99C199.76 190.623 199.15 188.186 198.766 185.709C198.701 185.095 198.636 184.416 198.583 183.684L199.154 183.554C202.228 182.686 205.141 181.326 207.779 179.526C215.78 174.274 221.954 166.672 225.45 157.768C226.244 155.716 226.889 153.611 227.38 151.466C230.301 161.495 236.846 169.778 241.773 174.894C241.692 174.918 241.613 174.947 241.536 174.98C240.591 175.522 239.839 176.344 239.383 177.333C238.928 178.321 238.79 179.426 238.991 180.495C239.44 182.634 240.522 184.589 242.096 186.107C244.621 188.779 247.689 190.88 251.094 192.268C254.499 193.656 258.162 194.299 261.837 194.153L262.117 194.315C262.156 194.339 262.203 194.347 262.247 194.337C262.291 194.327 262.33 194.299 262.354 194.261C263.792 197.744 265.33 201.165 266.969 204.526C266.047 204.891 265.151 205.316 264.284 205.797H264.274ZM411.235 375.79C411.073 373.776 410.89 371.697 410.696 369.586C411.612 371.049 412.658 372.426 413.822 373.701C412.927 374.401 412.108 375.101 411.235 375.79ZM441.024 348.431C436.657 353.041 432.151 357.533 427.493 361.852C424.55 364.577 421.531 367.238 418.48 369.812C421.519 365.883 424.003 361.555 425.865 356.951C428.539 350.437 429.287 343.293 428.021 336.367C427.816 335.363 427.546 334.374 427.213 333.405C427.461 333.125 427.719 332.856 427.957 332.576C429.001 331.339 429.865 329.961 430.523 328.483C432.339 335.728 435.959 342.397 441.045 347.871C441.045 347.979 441.045 348.086 440.991 348.194C440.99 348.274 441.001 348.354 441.024 348.431Z" fill="#DFE5E3"/>
<path d="M160.265 403.925C135.414 404.313 108.838 402.999 87.5557 390.17C82.8227 387.316 77.9387 382.813 78.6179 377.32C79.2971 371.826 85.1946 368.617 90.3589 366.409C80.3501 368.449 69.9871 367.921 60.2377 364.875C50.4883 361.829 41.6706 356.365 34.6083 348.991C31.4692 345.892 29.0765 342.12 27.6111 337.961C26.3174 333.761 26.5869 328.913 29.1421 325.337C32.204 321.029 37.7672 319.402 42.8237 318.034L50.4569 315.988C38.8777 312.347 28.161 305.313 21.3471 295.296C14.5333 285.279 11.8595 272.192 15.4928 260.666C19.1262 249.141 29.6273 239.641 41.7024 238.316C54.0148 236.969 66.2409 243.96 73.4213 254.042C80.6017 264.124 83.3402 276.78 83.7175 289.146C83.5998 285.981 84.1483 282.828 85.3277 279.889C86.507 276.95 88.2908 274.291 90.5637 272.084C93.9599 268.853 98.6498 266.623 103.329 267.14C109.463 267.829 114.218 272.849 117.345 278.137C127.188 294.596 126.681 314.997 125.884 334.148C127.393 330.82 128.956 327.427 131.501 324.788C134.045 322.149 137.797 320.404 141.366 321.212C143.194 321.71 144.886 322.616 146.314 323.862C152.244 328.612 156.018 335.549 158.691 342.658C165.624 360.969 166.335 385.258 160.276 403.914" fill="#2DBA98"/>
<path d="M159.942 402.643C140.391 389.123 122.395 373.485 106.283 356.014C90.1705 338.573 76.0065 319.431 64.0415 298.926C58.0774 288.706 52.6786 278.166 47.8694 267.355C47.2764 265.998 46.6835 264.641 46.1013 263.284C45.7455 262.465 44.5164 263.079 44.8614 263.887C49.5544 274.878 54.86 285.598 60.7532 295.996C78.4049 327.139 101.035 355.188 127.749 379.033C136.59 386.935 145.862 394.342 155.522 401.221C156.729 402.083 157.947 402.934 159.166 403.774C159.316 403.856 159.491 403.879 159.656 403.839C159.822 403.799 159.968 403.699 160.064 403.558C160.161 403.418 160.202 403.246 160.179 403.077C160.156 402.908 160.072 402.754 159.942 402.643Z" fill="#0E9E78"/>
<path d="M152.88 397.548C149.268 396.784 145.721 395.771 142.185 394.737L131.404 391.506L120.687 388.274C117.093 387.197 113.499 386.12 109.906 385.043C106.312 383.966 102.74 382.838 99.1889 381.661L97.8735 381.23C97.0218 380.961 96.569 382.307 97.4099 382.522C101.004 383.671 104.576 384.806 108.127 385.926C111.695 387.003 115.285 388.134 118.908 389.211C122.531 390.289 126.056 391.366 129.625 392.443L140.406 395.674C143.932 396.751 147.479 397.764 151.069 398.582L152.406 398.884C152.579 398.938 152.766 398.924 152.93 398.846C153.094 398.769 153.222 398.632 153.29 398.464C153.346 398.291 153.334 398.103 153.256 397.939C153.178 397.774 153.039 397.646 152.869 397.581L152.88 397.548Z" fill="#0E9E78"/>
<path d="M108.342 358.341C104.03 357.623 99.7351 356.714 95.4585 355.616C91.1819 354.517 86.9843 353.232 82.8658 351.76C78.7042 350.284 74.618 348.625 70.6074 346.837C66.5967 345.049 62.7369 343.024 58.9419 340.859C55.1468 338.694 51.3949 336.324 47.7508 333.804L46.36 332.834C45.6377 332.317 44.8614 333.448 45.5837 333.911C49.1775 336.475 52.8971 338.877 56.7425 341.117C60.5879 343.358 64.541 345.43 68.602 347.332C72.6199 349.228 76.724 350.944 80.9144 352.481C85.1048 354.018 89.3239 355.368 93.5717 356.531C97.8843 357.694 102.233 358.66 106.617 359.429L108.234 359.709C108.329 359.726 108.426 359.722 108.52 359.699C108.613 359.676 108.701 359.634 108.777 359.575C108.853 359.517 108.916 359.442 108.962 359.358C109.008 359.273 109.036 359.18 109.043 359.084C109.051 358.988 109.038 358.892 109.006 358.801C108.974 358.71 108.924 358.627 108.858 358.557C108.792 358.487 108.712 358.432 108.623 358.395C108.534 358.357 108.439 358.339 108.342 358.341Z" fill="#0E9E78"/>
<path d="M88.1271 334.989C88.1918 332.77 88.3859 330.551 88.6339 328.343C88.8818 326.134 89.1945 323.937 89.5072 321.74C89.8198 319.542 90.1433 317.334 90.4128 315.126C90.6823 312.918 90.898 310.742 90.995 308.534C91.11 306.291 91.0848 304.042 90.9195 301.802C90.9195 301.522 90.9195 301.242 90.8441 300.973C90.8338 300.877 90.8039 300.785 90.756 300.702C90.7082 300.619 90.6436 300.547 90.5663 300.49C90.489 300.434 90.4008 300.394 90.3072 300.373C90.2136 300.352 90.1167 300.351 90.0227 300.37C89.9286 300.389 89.8396 300.427 89.7611 300.482C89.6827 300.537 89.6166 300.608 89.5671 300.69C89.5176 300.772 89.4857 300.864 89.4736 300.959C89.4614 301.054 89.4692 301.15 89.4964 301.242L89.5611 302.039V302.427V302.675C89.5611 302.75 89.5611 302.761 89.5611 302.675V302.804C89.5611 303.35 89.5826 303.899 89.6258 304.452C89.6258 305.529 89.6258 306.606 89.6258 307.748C89.5503 309.902 89.3454 312.143 89.0975 314.329C88.5907 318.735 87.8468 323.108 87.3185 327.513C87.0274 329.98 86.801 332.446 86.7148 334.924C86.7084 335.014 86.7199 335.105 86.7487 335.191C86.7775 335.277 86.823 335.357 86.8826 335.426C87.0029 335.564 87.1733 335.649 87.3563 335.662C87.5393 335.675 87.7199 335.614 87.8584 335.494C87.9969 335.374 88.0819 335.204 88.0948 335.021L88.1271 334.989Z" fill="#0E9E78"/>
<path d="M63.9768 299.228C63.0172 298.829 62.0685 298.398 61.1305 297.957L59.7397 297.289L59.3947 297.116L59.2437 297.03H59.1575H59.082L58.9203 296.944L58.5537 296.75C56.7209 295.802 54.9204 294.768 53.163 293.68C51.4057 292.593 49.6806 291.408 48.0095 290.18C46.3384 288.952 44.7751 287.659 43.1579 286.313L42.5757 285.807L42.2846 285.548L42.2199 285.483C42.2199 285.483 42.1445 285.419 42.2199 285.483C42.2954 285.548 42.2199 285.483 42.2199 285.483L42.1121 285.376L40.9693 284.299C40.2146 283.588 39.4599 282.855 38.7375 282.144L38.1985 281.595C38.0766 281.462 37.9084 281.38 37.7282 281.366C37.548 281.352 37.3692 281.407 37.2281 281.52C37.0923 281.64 37.0086 281.808 36.9945 281.989C36.9804 282.17 37.0371 282.349 37.1527 282.489C38.6405 284.019 40.1822 285.483 41.7779 286.884C43.3735 288.284 44.9907 289.602 46.6295 290.837C48.3006 292.097 50.0149 293.282 51.783 294.413C53.5512 295.544 55.3624 296.567 57.1737 297.58C58.985 298.592 60.9688 299.508 62.9202 300.359L63.6318 300.671C63.8035 300.727 63.9901 300.714 64.1528 300.636C64.3155 300.558 64.4417 300.42 64.5051 300.251C64.5614 300.078 64.5492 299.89 64.471 299.726C64.3928 299.561 64.2545 299.433 64.0846 299.368L63.9768 299.228Z" fill="#0E9E78"/>
<path d="M134.552 383.276C133.937 381.122 133.387 378.968 132.881 376.814C132.374 374.659 131.91 372.43 131.501 370.232C131.091 368.035 130.746 365.827 130.423 363.619C130.099 361.411 129.873 359.192 129.679 356.973C129.578 355.853 129.492 354.732 129.42 353.612V353.418C129.42 353.537 129.42 353.418 129.42 353.343C129.42 353.267 129.42 353.063 129.42 352.923C129.42 352.783 129.42 352.352 129.42 352.072C129.42 351.522 129.42 350.995 129.344 350.413C129.344 350.122 129.344 349.842 129.344 349.562C129.348 349.381 129.284 349.206 129.164 349.07C129.044 348.934 128.878 348.849 128.697 348.83C128.516 348.818 128.337 348.878 128.2 348.997C128.063 349.116 127.978 349.284 127.964 349.465C128.051 351.738 128.18 354.021 128.363 356.294C128.547 358.567 128.784 360.764 129.075 362.983C129.366 365.202 129.7 367.421 130.088 369.629C130.476 371.837 130.929 374.035 131.425 376.221C131.921 378.408 132.503 380.584 133.075 382.738L133.301 383.556C133.34 383.733 133.446 383.888 133.597 383.989C133.748 384.089 133.931 384.127 134.11 384.095C134.288 384.059 134.445 383.953 134.546 383.802C134.647 383.651 134.684 383.466 134.649 383.287L134.552 383.276Z" fill="#0E9E78"/>
<path d="M173.451 291.408C159.696 275.25 147.734 257.651 137.775 238.919C127.792 220.198 119.841 200.464 114.056 180.054C111.172 169.875 108.84 159.548 107.07 149.118C106.854 147.847 106.65 146.576 106.456 145.295C106.428 145.139 106.34 145 106.211 144.909C106.082 144.819 105.921 144.783 105.766 144.81C105.61 144.837 105.471 144.925 105.38 145.054C105.289 145.183 105.253 145.343 105.28 145.499C106.921 156.024 109.134 166.452 111.911 176.736C117.454 197.287 125.182 217.188 134.962 236.097C139.854 245.547 145.253 254.727 151.134 263.596C156.992 272.479 163.33 281.037 170.12 289.232L172.61 292.194C173.106 292.776 174.023 292.022 173.527 291.44L173.451 291.408Z" fill="#0E9E78"/>
<path d="M150.336 261.216C132.751 265.255 112.719 260.386 98.5851 249.195C94.4127 245.888 90.5637 241.827 88.9896 236.743C87.4155 231.659 88.7093 225.412 93.1189 222.428C96.9786 219.811 102.175 220.274 106.596 221.728C111.068 223.371 115.286 225.638 119.124 228.46C131.633 237.181 142.264 248.319 150.39 261.216" fill="#2DBA98"/>
<path d="M150.508 260.752C147.166 259.46 143.853 258.099 140.568 256.67C137.283 255.241 133.937 253.701 130.53 252.049C127.167 250.426 123.842 248.735 120.558 246.976C117.273 245.217 114.056 243.421 110.908 241.59C107.803 239.759 104.748 237.856 101.744 235.881L100.666 235.16C100.138 234.815 99.5877 235.612 100.084 235.968C103.059 237.964 106.085 239.878 109.162 241.709C112.353 243.612 115.587 245.446 118.865 247.213C122.142 248.979 125.474 250.699 128.859 252.372C132.187 254.002 135.551 255.568 138.951 257.069C142.35 258.569 145.689 259.963 148.967 261.248L150.174 261.722C150.294 261.757 150.424 261.745 150.536 261.689C150.648 261.633 150.734 261.536 150.778 261.419C150.822 261.302 150.819 261.172 150.771 261.056C150.723 260.941 150.633 260.848 150.519 260.796L150.508 260.752Z" fill="#0E9E78"/>
<path d="M123.652 211.915C110.38 212.906 96.3102 207.122 87.2538 197.385C84.58 194.509 82.2189 191.116 81.6475 187.227C81.0761 183.339 82.7256 178.933 86.2512 177.242C89.3562 175.767 93.0973 176.661 96.1593 178.233C99.2481 179.933 102.083 182.058 104.58 184.545C112.713 192.303 119.209 201.609 123.684 211.915" fill="#2DBA98"/>
<path d="M123.824 211.592C121.539 210.278 119.275 208.917 117.032 207.51C114.79 206.102 112.522 204.605 110.229 203.018C107.965 201.467 105.722 199.862 103.523 198.214C101.324 196.566 99.2104 194.907 97.0541 193.184C94.8979 191.46 92.9788 189.769 91.0165 187.992L90.305 187.346C89.96 187.033 89.4532 187.55 89.7983 187.863C91.7389 189.651 93.7442 191.385 95.7711 193.065C97.7981 194.746 100.084 196.512 102.24 198.16C104.396 199.808 106.736 201.424 108.978 203.04C111.221 204.655 113.507 206.12 115.803 207.585C118.099 209.05 120.331 210.418 122.638 211.754L123.469 212.228C123.552 212.263 123.645 212.266 123.731 212.237C123.816 212.208 123.888 212.148 123.932 212.069C123.976 211.991 123.989 211.898 123.97 211.81C123.95 211.722 123.898 211.644 123.824 211.592Z" fill="#0E9E78"/>
<path d="M113.593 180.614C106.1 177.452 99.5984 172.333 94.7702 165.794C89.942 159.255 86.9657 151.538 86.1541 143.453C85.7337 138.746 86.1541 133.651 88.8926 129.051C91.6311 124.452 97.3776 120.574 102.79 120.79C107.534 120.984 110.887 124.14 112.87 127.651C114.797 131.352 116.056 135.363 116.59 139.5C118.718 153.269 117.693 167.341 113.593 180.657" fill="#2DBA98"/>
<path d="M114.067 180.377C112.687 177.598 111.393 174.776 110.164 171.932C108.935 169.088 107.706 166.04 106.596 163.046C105.485 160.051 104.439 156.949 103.361 153.847C102.283 150.745 101.485 147.697 100.677 144.584C99.8681 141.471 99.1781 138.476 98.5204 135.374C98.4557 134.997 98.3803 134.62 98.3156 134.297C98.2078 133.748 97.2374 134.017 97.2374 134.566C97.8196 137.654 98.4953 140.717 99.2643 143.754C100.062 146.899 100.943 150.016 101.906 153.104C102.876 156.227 103.922 159.308 105.043 162.367C106.164 165.426 107.329 168.388 108.579 171.34C109.83 174.291 111.102 177.081 112.472 179.903C112.633 180.237 112.795 180.571 112.967 180.905C113.205 181.4 114.164 180.905 113.916 180.42L114.067 180.377Z" fill="#0E9E78"/>
<path d="M128.708 220.995C124.902 211.775 122.239 201.995 121.787 192.021C121.334 182.046 123.404 171.835 128.493 163.24C130.8 159.33 133.883 155.7 138.002 153.772C142.12 151.843 147.457 152.07 150.778 155.183C152.127 156.546 153.183 158.169 153.883 159.954C156.356 166.099 157.138 172.794 156.147 179.343C153.991 195.758 143.651 213.811 128.708 220.952" fill="#2DBA98"/>
<path d="M129.204 221.039C129.84 217.484 130.53 213.929 131.274 210.396C132.018 206.863 132.859 203.126 133.732 199.507C134.606 195.887 135.544 192.193 136.525 188.552C137.506 184.912 138.53 181.357 139.608 177.781C140.686 174.205 141.765 170.844 142.918 167.397L143.349 166.137C143.554 165.534 142.627 165.189 142.422 165.792C141.243 169.225 140.126 172.682 139.069 176.165C138.013 179.648 136.97 183.238 135.943 186.937C134.94 190.588 134.002 194.25 133.096 197.934C132.191 201.618 131.382 205.226 130.595 208.888C129.808 212.551 129.118 216.041 128.439 219.66C128.352 220.101 128.277 220.543 128.202 220.985C128.196 221.048 128.202 221.113 128.221 221.174C128.24 221.235 128.271 221.292 128.313 221.341C128.354 221.39 128.404 221.43 128.461 221.46C128.518 221.489 128.58 221.507 128.644 221.512C128.775 221.522 128.904 221.479 129.005 221.395C129.105 221.311 129.169 221.191 129.183 221.06L129.204 221.039Z" fill="#0E9E78"/>
<path d="M146.034 255.658C143.146 249.018 141.449 241.923 141.021 234.697C140.612 227.439 142.296 220.217 145.872 213.886C147.424 210.964 149.821 208.577 152.751 207.036C155.737 205.657 159.586 205.808 161.99 208.059C162.964 209.049 163.727 210.225 164.233 211.517C166.021 215.954 166.587 220.789 165.872 225.519C164.33 237.368 156.837 250.434 146.034 255.615" fill="#2DBA98"/>
<path d="M146.39 255.69C146.843 253.116 147.349 250.552 147.888 247.988C148.427 245.425 149.031 242.732 149.657 240.115C150.282 237.497 150.972 234.826 151.683 232.198C152.395 229.569 153.128 226.984 153.904 224.399C154.681 221.814 155.468 219.38 156.309 216.859C156.406 216.547 156.514 216.245 156.621 215.944C156.729 215.642 156.093 215.254 155.942 215.696C155.09 218.173 154.293 220.683 153.516 223.236C152.74 225.789 151.975 228.428 151.263 231.045C150.551 233.663 149.851 236.334 149.204 238.994C148.557 241.655 147.953 244.272 147.392 246.922C146.832 249.572 146.314 252.092 145.851 254.688C145.786 255.011 145.732 255.324 145.678 255.647C145.674 255.693 145.679 255.74 145.693 255.784C145.707 255.828 145.729 255.869 145.76 255.904C145.79 255.939 145.827 255.968 145.868 255.989C145.91 256.009 145.955 256.021 146.002 256.024C146.095 256.03 146.188 256 146.26 255.94C146.333 255.88 146.379 255.794 146.39 255.701V255.69Z" fill="#0E9E78"/>
<path d="M303.561 239.921C299.755 235.45 296.195 230.776 292.898 225.918C279.68 206.489 270.797 184.449 266.85 161.29C266.732 160.579 266.624 159.879 266.505 159.136C266.478 159.063 266.425 159.001 266.357 158.963C266.289 158.924 266.209 158.911 266.132 158.925C266.055 158.939 265.986 158.98 265.936 159.04C265.886 159.1 265.858 159.176 265.858 159.254C266.773 165.06 267.996 170.813 269.524 176.488C272.585 187.849 276.857 198.848 282.268 209.298C287.663 219.756 294.169 229.604 301.674 238.671C302.127 239.221 302.591 239.748 303.054 240.308C303.114 240.359 303.19 240.388 303.269 240.388C303.347 240.389 303.424 240.361 303.484 240.311C303.545 240.261 303.586 240.191 303.6 240.114C303.614 240.036 303.6 239.957 303.561 239.888V239.921Z" fill="#0E9E78"/>
<path d="M290.774 223.236C285.81 224.272 280.679 224.214 275.739 223.066C270.799 221.918 266.169 219.708 262.171 216.59C259.755 214.876 257.908 212.479 256.867 209.707C256.004 206.896 256.716 203.438 259.152 201.79C261.309 200.347 264.155 200.584 266.602 201.402C269.075 202.31 271.406 203.565 273.524 205.129C280.429 209.951 286.295 216.108 290.774 223.236Z" fill="#2DBA98"/>
<path d="M290.871 222.967C289.024 222.249 287.195 221.495 285.384 220.705C283.572 219.915 281.721 219.067 279.831 218.163C277.977 217.258 276.137 216.321 274.311 215.351C272.485 214.382 270.71 213.384 268.985 212.357C267.274 211.344 265.585 210.292 263.918 209.201L263.325 208.802C263.034 208.608 262.71 209.05 263.001 209.244C264.655 210.343 266.326 211.398 268.015 212.411C269.704 213.423 271.501 214.439 273.405 215.459C275.231 216.45 277.075 217.401 278.936 218.313C280.78 219.207 282.634 220.08 284.51 220.909C286.386 221.739 288.187 222.493 290.041 223.214L290.71 223.484C290.775 223.496 290.842 223.485 290.9 223.453C290.957 223.421 291.002 223.369 291.025 223.307C291.048 223.245 291.049 223.177 291.027 223.115C291.004 223.052 290.961 223 290.904 222.967H290.871Z" fill="#0E9E78"/>
<path d="M276.004 196.038C272.267 196.241 268.531 195.628 265.057 194.24C261.582 192.852 258.452 190.724 255.886 188.003C254.315 186.484 253.237 184.529 252.791 182.391C252.591 181.322 252.728 180.216 253.184 179.228C253.639 178.24 254.392 177.418 255.336 176.876C256.23 176.545 257.189 176.422 258.138 176.518C259.087 176.613 260.002 176.923 260.813 177.425C262.515 178.36 264.076 179.531 265.449 180.905C269.945 185.193 273.534 190.339 276.004 196.038Z" fill="#2DBA98"/>
<path d="M276.122 195.801C274.861 195.08 273.61 194.326 272.37 193.55C271.131 192.775 269.848 191.913 268.608 191.062C267.368 190.211 266.117 189.317 264.899 188.412C263.681 187.507 262.505 186.581 261.341 185.622C260.177 184.664 259.099 183.737 258.01 182.757L257.611 182.402C257.427 182.229 257.136 182.509 257.33 182.693C258.409 183.673 259.487 184.631 260.64 185.558C261.794 186.484 262.991 187.464 264.198 188.38C265.406 189.295 266.656 190.2 267.918 191.073C269.179 191.945 270.419 192.775 271.691 193.593C272.963 194.412 274.192 195.155 275.475 195.898L275.928 196.157C276.155 196.286 276.349 195.931 276.122 195.801Z" fill="#0E9E78"/>
<path d="M270.473 178.686C266.331 176.938 262.737 174.109 260.068 170.494C257.398 166.88 255.753 162.614 255.303 158.145C254.937 155.395 255.467 152.6 256.813 150.174C258.355 147.643 261.503 145.488 264.5 145.607C265.679 145.704 266.813 146.105 267.79 146.771C268.768 147.438 269.554 148.347 270.074 149.409C271.135 151.448 271.828 153.658 272.122 155.937C273.299 163.547 272.735 171.324 270.473 178.686Z" fill="#2DBA98"/>
<path d="M270.732 178.546C269.966 177.016 269.255 175.454 268.575 173.882C267.896 172.309 267.217 170.65 266.602 168.97C265.988 167.29 265.384 165.598 264.845 163.886C264.306 162.173 263.767 160.493 263.357 158.759C262.947 157.025 262.527 155.387 262.193 153.675C262.193 153.47 262.117 153.255 262.074 153.05C262.031 152.845 261.449 152.899 261.514 153.201C261.826 154.913 262.204 156.604 262.592 158.285C262.98 159.965 263.519 161.742 264.047 163.455C264.575 165.168 265.125 166.88 265.783 168.571C266.441 170.262 267.044 171.9 267.734 173.537C268.424 175.174 269.125 176.704 269.891 178.266L270.16 178.815C270.3 179.095 270.818 178.815 270.689 178.546H270.732Z" fill="#0E9E78"/>
<path d="M278.828 201.004C276.619 195.932 275.323 190.509 275.001 184.987C274.687 179.45 275.971 173.94 278.699 169.11C279.888 166.878 281.721 165.054 283.96 163.875C285.086 163.303 286.354 163.073 287.609 163.213C288.864 163.353 290.05 163.856 291.022 164.661C291.769 165.41 292.353 166.305 292.736 167.29C294.118 170.702 294.55 174.423 293.987 178.061C292.812 187.141 287.076 197.105 278.828 201.068" fill="#2DBA98"/>
<path d="M279.098 201.025C279.454 199.065 279.831 197.094 280.241 195.144C280.651 193.195 281.125 191.127 281.599 189.123C282.074 187.12 282.602 185.084 283.141 183.07C283.68 181.055 284.219 179.084 284.845 177.113C285.47 175.142 286.041 173.278 286.677 171.372C286.753 171.135 286.839 170.909 286.915 170.672C286.99 170.435 286.516 170.144 286.408 170.478C285.754 172.381 285.136 174.291 284.553 176.208C283.95 178.19 283.367 180.183 282.828 182.176C282.289 184.168 281.75 186.226 281.254 188.261C280.758 190.297 280.295 192.29 279.863 194.315C279.432 196.34 279.044 198.268 278.688 200.25L278.559 200.982C278.559 201.054 278.587 201.122 278.638 201.173C278.688 201.223 278.757 201.252 278.828 201.252C278.9 201.252 278.969 201.223 279.019 201.173C279.07 201.122 279.098 201.054 279.098 200.982V201.025Z" fill="#0E9E78"/>
<path d="M288.402 220.166C286.805 216.495 285.867 212.572 285.631 208.576C285.414 204.58 286.341 200.604 288.305 197.115C289.166 195.5 290.491 194.179 292.111 193.324C292.928 192.918 293.844 192.756 294.75 192.858C295.657 192.959 296.515 193.319 297.221 193.895C297.761 194.439 298.183 195.088 298.461 195.801C299.45 198.263 299.763 200.944 299.367 203.567C298.515 210.127 294.364 217.344 288.402 220.209" fill="#2DBA98"/>
<path d="M288.596 220.177C288.844 218.755 289.125 217.344 289.427 215.922C289.728 214.5 290.063 213.014 290.408 211.614C290.753 210.213 291.13 208.695 291.486 207.24C291.842 205.786 292.294 204.354 292.726 202.932C293.157 201.51 293.577 200.164 294.041 198.785C294.106 198.613 294.16 198.451 294.214 198.279C294.232 198.23 294.231 198.176 294.209 198.129C294.188 198.081 294.149 198.044 294.1 198.026C294.052 198.007 293.998 198.009 293.95 198.03C293.903 198.051 293.866 198.09 293.847 198.139C293.373 199.517 292.931 200.896 292.51 202.286C292.09 203.675 291.648 205.162 291.259 206.594C290.871 208.027 290.483 209.513 290.117 210.989C289.75 212.465 289.427 213.908 289.114 215.373C288.801 216.838 288.532 218.227 288.262 219.681L288.165 220.209C288.165 220.261 288.183 220.312 288.217 220.351C288.25 220.391 288.297 220.417 288.348 220.425C288.401 220.428 288.453 220.41 288.493 220.376C288.533 220.342 288.559 220.294 288.564 220.241L288.596 220.177Z" fill="#0E9E78"/>
<path d="M371.613 280.378C369.457 255.604 368.875 229.063 380.174 206.95C382.686 202.016 386.837 196.835 392.357 197.115C397.877 197.395 401.521 203.05 404.087 208.038C401.338 198.21 401.125 187.847 403.469 177.915C405.812 167.984 410.635 158.807 417.488 151.24C420.363 147.893 423.961 145.242 428.011 143.485C432.108 141.902 436.97 141.826 440.722 144.12C445.229 146.867 447.255 152.242 448.98 157.229L451.568 164.694C454.382 152.845 460.646 141.718 470.155 134.179C479.664 126.639 492.559 123.052 504.364 125.917C516.17 128.782 526.348 138.498 528.536 150.432C530.768 162.604 524.623 175.293 515.07 183.167C505.518 191.04 493.066 194.67 480.742 195.92C483.889 195.571 487.075 195.885 490.092 196.843C493.11 197.8 495.893 199.379 498.262 201.478C501.766 204.623 504.289 209.147 504.106 213.854C503.858 220.015 499.189 225.11 494.133 228.643C478.403 239.619 457.994 240.578 438.814 241.138C442.242 242.409 445.757 243.723 448.517 246.06C451.277 248.398 453.347 252.028 452.829 255.647C452.464 257.503 451.682 259.252 450.544 260.763C446.231 267.011 439.557 271.265 432.657 274.443C414.825 282.651 390.664 285.085 371.613 280.378Z" fill="#2DBA98"/>
<path d="M372.864 279.969C384.968 259.521 399.297 240.473 415.59 223.171C423.721 214.525 432.316 206.327 441.336 198.613C459.338 183.201 478.977 169.808 499.901 158.673C501.216 157.954 502.532 157.265 503.847 156.604C504.634 156.206 503.944 155.021 503.157 155.42C492.536 160.878 482.227 166.923 472.279 173.526C442.44 193.333 416.044 217.882 394.135 246.2C386.877 255.577 380.143 265.347 373.963 275.466C373.198 276.726 372.432 277.997 371.678 279.279C371.608 279.434 371.599 279.61 371.651 279.772C371.704 279.934 371.814 280.07 371.961 280.156C372.108 280.241 372.282 280.27 372.448 280.235C372.615 280.2 372.763 280.106 372.864 279.969Z" fill="#0E9E78"/>
<path d="M377.435 272.515C377.942 268.874 378.696 265.266 379.484 261.668C380.271 258.07 381.09 254.365 381.899 250.714C382.707 247.062 383.516 243.443 384.335 239.813C385.155 236.183 385.985 232.51 386.847 228.869C387.71 225.229 388.561 221.577 389.456 217.947C389.564 217.495 389.683 217.042 389.791 216.601C389.995 215.739 388.712 215.373 388.464 216.235C387.573 219.868 386.696 223.505 385.834 227.146C384.971 230.787 384.13 234.434 383.311 238.09C382.492 241.716 381.679 245.349 380.874 248.99C380.069 252.631 379.254 256.304 378.427 260.009C377.629 263.607 376.842 267.204 376.271 270.845C376.195 271.298 376.131 271.75 376.066 272.202C376.022 272.378 376.049 272.563 376.139 272.72C376.23 272.877 376.377 272.992 376.551 273.043C376.727 273.089 376.914 273.064 377.071 272.973C377.229 272.882 377.344 272.733 377.392 272.558L377.435 272.515Z" fill="#0E9E78"/>
<path d="M413.423 225.39C413.826 221.017 414.426 216.673 415.224 212.357C416.011 208.048 417.003 203.74 418.178 199.539C419.353 195.338 420.722 191.094 422.264 186.969C423.806 182.843 425.499 178.858 427.407 174.916C429.315 170.973 431.396 167.053 433.649 163.261L434.501 161.85C434.965 161.096 433.768 160.407 433.315 161.161C431.008 164.938 428.873 168.816 426.911 172.794C424.949 176.779 423.159 180.861 421.52 185.008C419.881 189.155 418.491 193.367 417.262 197.643C416.033 201.919 414.998 206.206 414.146 210.569C413.294 214.931 412.647 219.347 412.184 223.774L412.022 225.412C412.025 225.593 412.099 225.765 412.228 225.892C412.357 226.019 412.531 226.09 412.712 226.09C412.891 226.085 413.062 226.012 413.19 225.886C413.318 225.76 413.394 225.591 413.402 225.412L413.423 225.39Z" fill="#0E9E78"/>
<path d="M435.299 203.578C437.531 203.492 439.752 203.524 441.972 203.578C444.193 203.632 446.414 203.826 448.625 203.988C450.835 204.149 453.067 204.311 455.298 204.418C457.53 204.526 459.708 204.58 461.918 204.526C464.167 204.48 466.41 204.292 468.635 203.966L469.454 203.837C469.63 203.786 469.78 203.669 469.871 203.51C469.961 203.351 469.986 203.163 469.939 202.986C469.885 202.813 469.766 202.668 469.608 202.58C469.449 202.492 469.263 202.468 469.088 202.512L468.311 202.641L467.913 202.695H467.718C467.632 202.695 467.632 202.695 467.718 202.695H467.578C467.039 202.77 466.5 202.824 465.94 202.878C464.861 202.986 463.783 203.05 462.651 203.093C460.495 203.169 458.242 203.093 456.042 203.029C451.6 202.835 447.18 202.415 442.749 202.199C440.28 202.081 437.789 202.027 435.31 202.135C435.129 202.135 434.957 202.206 434.829 202.334C434.702 202.461 434.63 202.633 434.63 202.813C434.63 202.994 434.702 203.168 434.829 203.297C434.956 203.426 435.128 203.5 435.31 203.503L435.299 203.578Z" fill="#0E9E78"/>
<path d="M469.271 176.973C469.605 175.993 469.961 175.013 470.349 174.043C470.543 173.569 470.727 173.095 470.921 172.611C470.975 172.492 471.028 172.374 471.072 172.255L471.147 172.094V172.007V171.954V171.878L471.222 171.706L471.384 171.329C472.204 169.433 473.109 167.57 474.069 165.739C475.028 163.907 476.085 162.109 477.206 160.353C478.327 158.597 479.481 156.906 480.721 155.247C480.872 155.043 481.023 154.827 481.184 154.622L481.411 154.321L481.465 154.245C481.465 154.245 481.54 154.17 481.465 154.245C481.389 154.321 481.465 154.245 481.465 154.245L481.551 154.127L482.511 152.921C483.168 152.113 483.837 151.316 484.527 150.54L485.033 149.959C485.14 149.826 485.195 149.659 485.186 149.489C485.177 149.319 485.105 149.158 484.984 149.038C484.864 148.918 484.703 148.846 484.533 148.837C484.363 148.828 484.196 148.882 484.063 148.989C482.651 150.572 481.292 152.22 480.009 153.912C478.726 155.603 477.54 157.272 476.398 159.028C475.255 160.784 474.241 162.572 473.163 164.414C472.085 166.256 471.233 168.141 470.382 170.058C469.53 171.975 468.732 173.968 468.02 175.971L467.913 176.65C467.888 176.738 467.881 176.829 467.892 176.92C467.904 177.01 467.933 177.097 467.978 177.176C468.023 177.255 468.083 177.325 468.155 177.381C468.227 177.436 468.31 177.477 468.398 177.501C468.573 177.544 468.759 177.518 468.916 177.428C469.073 177.337 469.188 177.19 469.239 177.016L469.271 176.973Z" fill="#0E9E78"/>
<path d="M390.384 253.288C392.489 252.52 394.606 251.801 396.734 251.134C398.861 250.466 401.018 249.852 403.203 249.292C405.359 248.732 407.515 248.225 409.671 247.773C411.828 247.321 414.024 246.915 416.259 246.556C417.337 246.373 418.48 246.211 419.59 246.06H419.784H419.86H420.28L421.132 245.953L422.782 245.759L423.709 245.586C423.89 245.581 424.063 245.507 424.191 245.379C424.319 245.25 424.393 245.078 424.399 244.897C424.399 244.714 424.326 244.539 424.197 244.41C424.067 244.28 423.892 244.208 423.709 244.208C421.445 244.445 419.181 244.746 416.917 245.091C414.652 245.436 412.496 245.823 410.297 246.265C408.097 246.707 405.909 247.213 403.731 247.762C401.553 248.312 399.418 248.904 397.262 249.561C395.106 250.218 392.95 250.907 390.869 251.715L390.071 252.006C389.908 252.065 389.773 252.184 389.693 252.338C389.613 252.492 389.595 252.671 389.641 252.838C389.687 253.005 389.795 253.149 389.942 253.24C390.09 253.332 390.267 253.364 390.437 253.331L390.384 253.288Z" fill="#0E9E78"/>
<path d="M391.968 400.392C400.834 395.183 409.41 389.498 417.66 383.363C425.89 377.231 433.786 370.666 441.315 363.694C448.86 356.704 456.029 349.319 462.791 341.57C469.541 333.842 475.871 325.759 481.756 317.356C487.633 308.96 493.05 300.251 497.982 291.268C498.586 290.191 499.179 289.113 499.772 287.961C499.846 287.828 499.97 287.73 500.117 287.689C500.263 287.647 500.42 287.666 500.553 287.74C500.686 287.814 500.784 287.938 500.826 288.085C500.867 288.231 500.849 288.388 500.774 288.521C495.931 297.62 490.594 306.448 484.785 314.965C478.992 323.48 472.744 331.678 466.069 339.523C452.707 355.234 437.708 369.479 421.326 382.016C413.14 388.288 404.617 394.11 395.796 399.455C394.718 400.101 393.639 400.737 392.561 401.372C391.925 401.749 391.321 400.769 391.958 400.392H391.968Z" fill="#0E9E78"/>
<path d="M422.728 380.11C437.531 389.384 457.411 391.29 473.907 385.495C478.78 383.793 483.61 381.305 486.651 377.148C489.691 372.99 490.51 366.861 487.427 362.735C484.721 359.116 479.88 357.856 475.319 357.813C470.705 357.883 466.124 358.609 461.713 359.967C447.503 363.979 434.246 370.803 422.728 380.034" fill="#2DBA98"/>
<path d="M422.717 379.625C426.189 379.506 429.649 379.302 433.11 379.043C436.571 378.785 440.226 378.419 443.762 377.966C447.299 377.514 450.943 377.061 454.544 376.49C458.145 375.92 461.595 375.306 465.099 374.595C468.603 373.884 471.923 373.13 475.298 372.268L476.516 371.956C477.109 371.805 477.389 372.721 476.786 372.871C473.429 373.755 470.054 374.544 466.662 375.241C463.136 375.984 459.589 376.631 456.042 377.212C452.495 377.794 448.851 378.289 445.261 378.752C441.671 379.216 438.113 379.56 434.533 379.83C430.954 380.099 427.547 380.336 424.043 380.487H422.782C422.667 380.469 422.562 380.412 422.486 380.324C422.41 380.236 422.369 380.123 422.369 380.007C422.369 379.891 422.41 379.779 422.486 379.691C422.562 379.603 422.667 379.545 422.782 379.528L422.717 379.625Z" fill="#0E9E78"/>
<path d="M462.824 343.455C474.683 348.571 489.368 347.763 500.753 341.71C504.116 339.922 507.351 337.574 509.119 334.17C510.887 330.766 510.79 326.242 508.041 323.571C505.669 321.234 501.96 320.857 498.661 321.33C495.296 321.907 492.03 322.955 488.958 324.443C479.047 328.958 470.142 335.411 462.77 343.422" fill="#2DBA98"/>
<path d="M462.77 343.11C465.282 342.636 467.783 342.098 470.317 341.527C472.85 340.956 475.427 340.277 477.961 339.577C480.494 338.877 483.093 338.112 485.637 337.304C488.182 336.496 490.651 335.646 493.119 334.741C495.588 333.836 497.939 332.92 500.3 331.919L501.152 331.552C501.572 331.369 501.874 332.005 501.453 332.188C499.103 333.2 496.731 334.152 494.338 335.042C491.944 335.933 489.429 336.805 486.791 337.66C484.232 338.486 481.666 339.261 479.093 339.986C476.52 340.712 473.95 341.38 471.384 341.99C468.876 342.586 466.36 343.132 463.837 343.627L462.932 343.799C462.84 343.815 462.746 343.794 462.67 343.74C462.594 343.687 462.543 343.605 462.527 343.514C462.512 343.423 462.533 343.329 462.586 343.253C462.64 343.177 462.721 343.126 462.813 343.11H462.77Z" fill="#0E9E78"/>
<path d="M481.982 318.013C489.844 317.495 497.421 314.872 503.918 310.42C510.415 305.968 515.593 299.851 518.908 292.711C520.795 288.532 522.067 283.749 520.979 278.654C519.89 273.56 515.911 268.206 510.887 266.687C506.499 265.363 502.413 267.183 499.48 269.768C496.553 272.536 494.134 275.795 492.332 279.398C486.004 291.322 482.465 304.525 481.982 318.013Z" fill="#2DBA98"/>
<path d="M481.626 317.636C483.783 315.525 485.867 313.37 487.88 311.173C489.892 308.976 491.926 306.646 493.982 304.182C495.973 301.77 497.917 299.303 499.815 296.783C501.669 294.284 503.48 291.742 505.205 289.146C506.93 286.55 508.526 284.029 510.068 281.39L510.618 280.432C510.887 279.958 511.696 280.539 511.469 281.003C509.96 283.652 508.354 286.237 506.693 288.769C505.033 291.3 503.168 293.971 501.302 296.492C499.437 299.012 497.486 301.522 495.491 303.967C493.497 306.412 491.481 308.75 489.389 311.055C487.297 313.36 485.26 315.514 483.114 317.657L482.338 318.422C481.961 318.788 481.26 318.045 481.626 317.668V317.636Z" fill="#0E9E78"/>
<path d="M455.309 350.165C461.876 343.03 467.138 334.797 470.856 325.844C474.392 316.839 475.805 306.854 473.875 297.375C473.001 293.066 471.352 288.758 468.182 285.688C465.012 282.618 460.064 281.132 456.053 282.931C454.4 283.753 452.932 284.904 451.74 286.313C447.512 291.161 444.66 297.052 443.482 303.375C440.248 319.068 443.967 338.92 455.341 350.165" fill="#2DBA98"/>
<path d="M454.846 350.068C455.395 346.611 455.924 343.142 456.333 339.663C456.743 336.184 457.196 332.511 457.541 328.892C457.886 325.273 458.209 321.621 458.468 317.981C458.727 314.34 458.932 310.753 459.083 307.145C459.234 303.536 459.32 300.1 459.352 296.589C459.352 296.158 459.352 295.716 459.352 295.285C459.369 295.171 459.427 295.066 459.515 294.99C459.603 294.914 459.716 294.873 459.832 294.873C459.948 294.873 460.06 294.914 460.148 294.99C460.236 295.066 460.294 295.171 460.312 295.285C460.312 298.804 460.233 302.323 460.074 305.841C459.945 309.471 459.751 313.09 459.503 316.72C459.255 320.35 458.964 324.034 458.608 327.686C458.252 331.337 457.864 334.902 457.422 338.457C456.98 342.011 456.506 345.48 455.956 348.97L455.762 350.252C455.747 350.313 455.72 350.37 455.682 350.421C455.645 350.471 455.597 350.514 455.543 350.546C455.489 350.578 455.429 350.599 455.367 350.608C455.304 350.616 455.241 350.612 455.18 350.596C455.058 350.563 454.953 350.484 454.889 350.375C454.825 350.267 454.805 350.137 454.835 350.015L454.846 350.068Z" fill="#0E9E78"/>
<path d="M428.431 376.394C433.184 371.229 436.994 365.272 439.687 358.793C442.36 352.279 443.108 345.135 441.843 338.209C441.353 335.041 439.918 332.094 437.725 329.754C435.439 327.546 431.86 326.468 428.949 327.761C427.739 328.351 426.664 329.183 425.79 330.206C422.743 333.709 420.691 337.964 419.849 342.528C417.477 353.881 420.194 368.197 428.474 376.372" fill="#2DBA98"/>
<path d="M428.097 376.307C428.499 373.794 428.859 371.281 429.175 368.767C429.491 366.254 429.786 363.665 430.059 361.001C430.318 358.373 430.541 355.741 430.728 353.106C430.914 350.471 431.062 347.857 431.17 345.264C431.277 342.722 431.342 340.177 431.364 337.628V336.69C431.378 336.608 431.421 336.534 431.485 336.48C431.549 336.426 431.63 336.397 431.714 336.397C431.798 336.397 431.879 336.426 431.943 336.48C432.007 336.534 432.05 336.608 432.064 336.69C432.064 339.232 431.989 341.785 431.892 344.327C431.795 346.869 431.655 349.573 431.482 352.19C431.31 354.808 431.083 357.479 430.835 360.118C430.587 362.757 430.296 365.342 429.973 367.949C429.649 370.555 429.304 373.022 428.895 375.489C428.895 375.801 428.798 376.113 428.755 376.415C428.732 376.504 428.675 376.581 428.597 376.629C428.518 376.677 428.424 376.693 428.334 376.674C428.245 376.651 428.168 376.594 428.12 376.516C428.072 376.437 428.056 376.343 428.075 376.253L428.097 376.307Z" fill="#0E9E78"/>
<path d="M170.13 156.324C170.691 162.572 182.842 177.641 181.925 193.098C181.559 199.367 180.632 204.192 176.103 208.533C175.044 209.4 174.111 210.412 173.333 211.538C172.006 213.843 172.524 216.859 173.979 219.078C175.56 221.225 177.582 223.01 179.909 224.313C185.127 227.641 190.798 230.485 196.911 231.444C203.721 232.318 210.64 231.332 216.932 228.589C223.192 225.853 229.094 222.362 234.506 218.195C225.11 213.206 217.946 204.856 214.446 194.817C210.946 184.778 211.368 173.789 215.628 164.047" fill="#FFB299"/>
<path d="M213.698 192.591C213.698 192.591 211.542 188.057 212.49 175.099L174.928 168.13C174.928 168.13 181.645 178.815 181.979 191.579C181.979 191.579 198.173 202.727 213.698 192.591Z" fill="#F79E86"/>
<path d="M244.296 105.15C244.296 105.15 250.236 118.603 251.002 144.239C251.767 169.875 261.783 182.445 261.783 182.445C261.783 182.445 241.805 167.106 239.811 146.285C237.816 125.464 218.862 95.8649 218.862 95.8649" fill="#4A1914"/>
<path d="M225.547 79.6109C230.127 83.7335 233.739 88.8161 236.124 94.4953C238.51 100.174 239.61 106.31 239.347 112.464C239.174 116.029 238.528 119.605 238.916 123.149C239.388 126.026 240.066 128.866 240.943 131.647C243.294 140.922 242.688 150.699 239.209 159.612C235.73 168.526 229.551 176.132 221.536 181.368C218.898 183.167 215.985 184.527 212.911 185.396C209.821 186.134 206.634 186.384 203.467 186.139C188.297 185.267 170.831 170.456 164.007 156.884C158.519 145.973 161.063 139.456 158.616 127.479C157.43 121.587 155.629 115.738 155.77 109.728C155.964 100.734 160.438 92.4934 164.804 84.5765" fill="#FFB299"/>
<path d="M242.377 115.167C242.377 115.167 232.102 121.037 212.598 115.167C193.095 109.297 188.998 98.6439 171.963 100.658C154.929 102.672 186.604 83.5101 186.604 83.5101" fill="#F79E86"/>
<path d="M224.835 133.274C225.068 132.171 225.536 131.132 226.208 130.226C226.88 129.321 227.739 128.571 228.727 128.028C229.582 127.604 230.528 127.397 231.482 127.427C232.436 127.457 233.367 127.723 234.193 128.2C235.118 128.698 235.883 129.444 236.404 130.355C236.481 130.498 236.612 130.604 236.767 130.65C236.923 130.697 237.091 130.68 237.234 130.602C237.377 130.525 237.483 130.395 237.53 130.239C237.576 130.084 237.559 129.916 237.482 129.773C236.917 128.796 236.128 127.967 235.179 127.355C234.231 126.742 233.15 126.364 232.026 126.251C230.794 126.136 229.553 126.338 228.42 126.837C227.288 127.337 226.303 128.118 225.558 129.105C224.649 130.219 224.011 131.528 223.692 132.929C223.531 133.672 224.673 134.006 224.835 133.241V133.274Z" fill="#4A1914"/>
<path d="M199.003 134.512C198.495 133.507 197.775 132.624 196.893 131.923C196.011 131.222 194.987 130.72 193.893 130.452C192.955 130.268 191.987 130.318 191.074 130.596C190.16 130.874 189.329 131.372 188.653 132.046C187.886 132.776 187.343 133.711 187.09 134.739C187.04 134.879 186.939 134.995 186.808 135.065C186.676 135.134 186.523 135.152 186.379 135.114C186.235 135.076 186.111 134.985 186.031 134.86C185.95 134.734 185.921 134.583 185.947 134.437C186.233 133.351 186.773 132.348 187.523 131.511C188.273 130.674 189.21 130.027 190.259 129.622C191.415 129.198 192.659 129.074 193.876 129.262C195.092 129.451 196.241 129.945 197.213 130.699C198.385 131.545 199.345 132.652 200.016 133.931C200.361 134.609 199.337 135.213 198.938 134.534L199.003 134.512Z" fill="#4A1914"/>
<path d="M203.531 160.762C199.423 161.419 209.202 166.686 212.857 166.557C214.806 166.394 216.675 165.707 218.266 164.569C219.856 163.432 221.109 161.885 221.892 160.094C215.769 159.521 209.597 159.746 203.531 160.762Z" fill="white"/>
<path d="M199.456 118.872C196.716 117.985 193.818 117.697 190.958 118.026C188.097 118.354 185.34 119.293 182.874 120.779C181.563 121.585 180.373 122.571 179.338 123.709C179.265 123.805 179.214 123.916 179.188 124.034C179.161 124.152 179.16 124.274 179.185 124.392C179.209 124.51 179.259 124.622 179.33 124.719C179.401 124.817 179.492 124.898 179.596 124.958C179.817 125.094 180.079 125.145 180.334 125.104C180.589 125.062 180.821 124.93 180.987 124.732C181.084 124.614 181.192 124.506 181.3 124.387L181.375 124.323C181.451 124.247 181.375 124.323 181.321 124.323C181.268 124.323 181.472 124.183 181.516 124.14C181.742 123.924 181.979 123.709 182.216 123.515C182.706 123.107 183.217 122.726 183.747 122.373L184.157 122.125C184.157 122.125 184.405 121.975 184.286 122.039L184.416 121.964C184.696 121.802 184.987 121.651 185.278 121.511C185.871 121.221 186.475 120.962 187.1 120.725L188.038 120.413H188.103H188.308L188.815 120.273C189.461 120.122 190.108 119.993 190.766 119.896L191.758 119.777H192.221H192.469H192.566C193.235 119.777 193.903 119.777 194.561 119.777C195.219 119.777 196.049 119.971 196.793 120.057C196.793 120.057 196.566 120.057 196.739 120.057H196.879L197.159 120.122L197.709 120.262C198.076 120.355 198.435 120.463 198.787 120.585C199.026 120.67 199.287 120.663 199.521 120.566C199.754 120.468 199.942 120.287 200.049 120.057C200.087 119.941 200.101 119.819 200.09 119.697C200.08 119.576 200.045 119.458 199.987 119.35C199.93 119.242 199.851 119.147 199.756 119.071C199.661 118.994 199.552 118.938 199.434 118.905L199.456 118.872Z" fill="#4A1914"/>
<path opacity="0.32" d="M194.065 149.571C194.065 153.298 190.001 156.324 184.998 156.324C179.995 156.324 175.931 153.298 175.931 149.571C175.931 145.844 179.985 142.828 184.998 142.828C190.011 142.828 194.065 145.844 194.065 149.571Z" fill="#F76464"/>
<path opacity="0.32" d="M240.986 143C241.665 146.662 238.226 150.368 233.309 151.294C228.393 152.22 223.833 149.98 223.153 146.318C222.474 142.656 225.903 138.939 230.83 138.024C235.757 137.108 240.296 139.338 240.986 143Z" fill="#F76464"/>
<path d="M210.237 130.441C210.237 130.441 212.458 141.471 219.822 148.537C217.336 150.221 214.574 151.457 211.66 152.188" fill="#F79E86"/>
<path d="M221.342 117.181C223.632 115.914 226.197 115.226 228.814 115.178C231.438 115.113 234.041 115.663 236.414 116.783C237.733 117.404 238.956 118.209 240.048 119.174C240.215 119.343 240.309 119.572 240.309 119.81C240.309 120.047 240.215 120.276 240.048 120.445C239.876 120.607 239.648 120.697 239.412 120.697C239.175 120.697 238.948 120.607 238.776 120.445L238.441 120.154L238.366 120.09H238.42C238.355 120.09 238.269 119.971 238.215 119.939C237.978 119.756 237.73 119.573 237.482 119.411C236.984 119.076 236.466 118.774 235.929 118.506C235.8 118.431 235.66 118.366 235.52 118.302H235.39L235.261 118.248L234.431 117.914C233.854 117.71 233.268 117.538 232.673 117.397C232.382 117.321 232.08 117.268 231.789 117.214H231.725H231.541L231.056 117.149C230.458 117.081 229.857 117.045 229.256 117.041H228.361H227.94H227.714C227.714 117.041 227.541 117.041 227.714 117.041C227.886 117.041 227.714 117.041 227.714 117.041C227.116 117.112 226.522 117.217 225.935 117.354C225.277 117.504 224.652 117.741 224.005 117.935C224.005 117.935 224.199 117.86 224.005 117.935H223.886L223.649 118.032L223.175 118.248C222.862 118.399 222.56 118.549 222.258 118.722C222.053 118.817 221.819 118.831 221.603 118.761C221.388 118.69 221.207 118.541 221.098 118.343C220.988 118.145 220.958 117.912 221.013 117.693C221.069 117.473 221.206 117.283 221.396 117.16L221.342 117.181Z" fill="#4A1914"/>
<path d="M234.032 59.5763C225.706 57.0132 217 55.9019 208.297 56.291C207.003 49.5481 201.041 31.2907 175.068 29.9874C143.188 28.3932 126.843 53.3935 126.617 71.0908C126.412 86.8708 130.498 100.637 141.021 107.8C141.726 116.046 144.387 124.007 148.783 131.023C157.926 146.264 166.723 132.811 169.979 114.392C172.136 102.177 179.176 95.7141 183.683 92.7304C191.686 94.9013 199.352 98.1634 206.464 102.425C220.48 110.805 233.989 119.486 248.145 114.521C273.362 105.613 266.214 69.8844 234.032 59.5763Z" fill="#4A1914"/>
<path d="M161.214 137.69C161.214 137.69 159.575 129.181 151.371 130.032C143.166 130.882 144.298 144.874 151.371 151.574C158.443 158.274 166.529 156.884 163.36 145.898C160.19 134.911 161.214 137.69 161.214 137.69Z" fill="#FFB299"/>
<path d="M160.136 140.846C160.136 140.846 159.349 136.807 155.468 137.216C151.586 137.625 152.115 144.25 155.468 147.416C158.821 150.583 162.648 149.937 161.149 144.724C159.651 139.51 160.136 140.846 160.136 140.846Z" fill="#F79E86"/>
<path d="M178.497 205.377C182.928 210.763 189.44 212.605 196.437 212.583C204.243 212.583 209.03 212.648 215.951 209.029C217.278 208.339 219.488 206.056 221.04 205.377C222.183 204.871 226.539 207.133 227.66 207.671C232.134 209.826 235.671 210.903 240.145 212.992C243.164 214.425 246.279 215.922 248.468 218.464C250.069 220.541 251.318 222.866 252.166 225.347C259.605 243.766 267.163 262.724 267.26 282.586C267.336 297.666 263.098 312.379 261.869 327.384C259.109 359.784 270.193 391.818 270.861 424.326C270.861 425.715 270.861 427.277 269.783 428.204C269.035 428.751 268.151 429.082 267.228 429.162L222.701 436.95C214.075 438.458 205.45 439.955 196.771 440.612C179.252 441.926 161.613 439.751 144.417 436.11C142.971 435.937 141.606 435.354 140.482 434.429C139.554 433.305 138.986 431.928 138.854 430.476C133.377 399.993 150.573 369.457 148.298 338.565C147.22 323.851 141.754 309.794 139.802 295.167C138.336 284.191 138.875 273.064 139.403 262.002C140.05 248.796 140.694 235.591 141.333 222.385C141.315 221.055 141.541 219.733 142.002 218.486C142.659 217.032 141.096 216.331 142.541 215.696C154.142 210.181 165.624 209.05 178.529 205.377" fill="#F7C639"/>
<path d="M147.587 219.444C147.587 219.444 162.68 234.18 164.158 290.471C165.635 346.762 196.653 383.977 231.067 398.992C231.067 398.992 174.227 400.597 142.886 351.038C111.544 301.479 136.924 250.089 136.924 250.089" fill="#EAB42D"/>
<path d="M178.238 207.768C177.192 206.297 176.524 204.59 176.295 202.8C176.065 201.01 176.281 199.19 176.923 197.503C177.977 197.783 178.952 198.305 179.77 199.027C180.587 199.748 181.226 200.65 181.634 201.661C181.958 202.469 182.367 203.514 183.23 203.481C183.586 203.413 183.924 203.269 184.222 203.061C184.99 202.659 185.867 202.513 186.725 202.645C187.582 202.777 188.375 203.179 188.987 203.794C190.065 204.968 190.604 206.885 192.221 207.316C193.839 207.747 195.456 206.239 197.17 206.476C198.884 206.713 200.157 209.136 201.968 208.867C203.779 208.598 204.307 205.743 206.108 205.108C207.908 204.472 209.558 206.185 211.315 205.883C214.108 205.442 214.614 200.799 217.418 200.433C217.957 200.368 218.496 200.433 219.024 200.368C220.986 199.948 221.482 196.878 223.455 196.577C223.899 198.059 224.005 199.621 223.766 201.149C223.528 202.677 222.95 204.133 222.075 205.409C220.306 207.957 217.965 210.056 215.24 211.538C208.369 215.564 200.395 217.303 192.469 216.504C190.407 216.326 188.379 215.866 186.443 215.136C183.095 213.786 180.302 211.346 178.518 208.21" fill="#EAB42D"/>
<path d="M201.386 217.139C202.457 227.824 203.535 238.51 204.62 249.195C205.289 255.841 205.957 262.497 206.065 269.186C206.173 275.649 205.741 282.112 205.472 288.661C203.941 324.874 207.186 361.303 203.132 397.333C203.014 398.41 202.539 399.703 201.504 399.595C202.6 400.54 203.981 401.091 205.426 401.159C206.872 401.227 208.299 400.809 209.479 399.972C210.659 399.134 211.523 397.926 211.934 396.539C212.346 395.153 212.279 393.669 211.747 392.324C211.121 390.633 209.784 389.093 210 387.294C210.216 385.495 211.693 384.461 212.566 382.986C215.38 378.397 211.553 372.634 211.66 367.259C211.801 360.743 217.817 354.495 215.348 348.453C214.701 346.869 213.515 345.534 212.933 343.929C210.571 337.38 218.949 329.808 215.304 323.873C214.636 322.795 213.633 321.944 213.073 320.813C210.55 315.686 218.463 309.87 216.21 304.656C215.412 302.868 213.547 301.673 212.976 299.809C211.65 295.501 218.065 291.429 216.512 287.164C215.649 284.751 212.501 283.566 212.059 281.046C211.617 278.525 214.302 276.414 215.466 274.012C218.215 268.389 212.135 261.862 213.472 255.701C213.903 253.73 215.078 252.006 215.8 250.121C216.523 248.236 216.717 245.888 215.369 244.38C214.507 243.411 213.148 242.969 212.34 241.946C209.73 238.714 214.873 233.846 213.364 229.946C212.868 228.665 211.671 227.641 211.574 226.263C211.612 225.332 211.851 224.421 212.275 223.591C214.065 218.755 211.93 213.434 209.828 208.716L203.262 214.824" fill="#EAB42D"/>
<path d="M198.712 221.89C198.714 222.38 198.57 222.861 198.298 223.27C198.027 223.679 197.64 223.998 197.186 224.187C196.733 224.376 196.233 224.426 195.751 224.331C195.269 224.235 194.826 223.999 194.479 223.652C194.131 223.305 193.895 222.863 193.8 222.381C193.704 221.899 193.754 221.4 193.943 220.947C194.132 220.494 194.452 220.107 194.861 219.836C195.271 219.564 195.752 219.421 196.243 219.423C196.898 219.423 197.526 219.683 197.989 220.145C198.452 220.608 198.712 221.235 198.712 221.89Z" fill="#EAB42D"/>
<path d="M202.507 270.468C202.507 270.956 202.362 271.433 202.091 271.839C201.82 272.244 201.434 272.56 200.983 272.747C200.532 272.934 200.035 272.983 199.556 272.887C199.077 272.792 198.638 272.557 198.292 272.212C197.947 271.867 197.712 271.428 197.617 270.949C197.521 270.471 197.57 269.975 197.757 269.524C197.944 269.074 198.26 268.688 198.666 268.417C199.072 268.146 199.55 268.002 200.038 268.002C200.692 268.004 201.318 268.265 201.781 268.727C202.243 269.189 202.504 269.815 202.507 270.468Z" fill="#EAB42D"/>
<path d="M202.507 318.142C202.507 318.63 202.362 319.107 202.091 319.513C201.82 319.918 201.434 320.234 200.983 320.421C200.532 320.608 200.035 320.657 199.556 320.561C199.077 320.466 198.638 320.231 198.292 319.886C197.947 319.541 197.712 319.102 197.617 318.623C197.521 318.145 197.57 317.649 197.757 317.198C197.944 316.747 198.26 316.362 198.666 316.091C199.072 315.82 199.55 315.676 200.038 315.676C200.693 315.676 201.321 315.935 201.784 316.398C202.247 316.861 202.507 317.488 202.507 318.142Z" fill="#EAB42D"/>
<path d="M201.181 244.66C201.181 245.148 201.036 245.625 200.765 246.03C200.493 246.436 200.108 246.752 199.657 246.939C199.206 247.126 198.709 247.175 198.23 247.079C197.751 246.984 197.311 246.749 196.966 246.404C196.621 246.059 196.386 245.62 196.29 245.141C196.195 244.663 196.244 244.167 196.431 243.716C196.618 243.265 196.934 242.88 197.34 242.609C197.746 242.338 198.224 242.193 198.712 242.193C199.367 242.193 199.995 242.453 200.458 242.916C200.921 243.378 201.181 244.006 201.181 244.66Z" fill="#EAB42D"/>
<path d="M202.14 292.366C202.14 292.854 201.996 293.331 201.724 293.737C201.453 294.142 201.067 294.459 200.616 294.645C200.165 294.832 199.669 294.881 199.19 294.786C198.711 294.69 198.271 294.455 197.926 294.111C197.58 293.766 197.345 293.326 197.25 292.848C197.155 292.369 197.204 291.873 197.39 291.422C197.577 290.972 197.894 290.586 198.3 290.315C198.706 290.044 199.183 289.9 199.671 289.9C200.326 289.9 200.954 290.16 201.417 290.622C201.88 291.085 202.14 291.712 202.14 292.366Z" fill="#EAB42D"/>
<path d="M202.507 345.232C202.507 345.72 202.362 346.197 202.091 346.602C201.82 347.008 201.434 347.324 200.983 347.511C200.532 347.698 200.035 347.746 199.556 347.651C199.077 347.556 198.638 347.321 198.292 346.976C197.947 346.631 197.712 346.192 197.617 345.713C197.521 345.235 197.57 344.739 197.757 344.288C197.944 343.837 198.26 343.452 198.666 343.181C199.072 342.91 199.55 342.765 200.038 342.765C200.692 342.768 201.318 343.029 201.781 343.491C202.243 343.953 202.504 344.579 202.507 345.232Z" fill="#EAB42D"/>
<path d="M146.681 214.802C146.681 214.802 153.473 220.662 152.859 255.518C152.244 290.374 134.692 357.921 224.695 397.958L217.784 422.98C217.784 422.98 158.594 435.851 118.703 392.82C68.0737 338.145 122.671 212.691 146.681 214.802Z" fill="#F7C639"/>
<path d="M246.894 216.881C254.603 218.583 263.314 226.769 266.84 233.824C278.483 257.079 276.92 284.396 280.661 310.117C282.117 320.135 284.402 330.012 286.235 339.976C290.496 363.242 292.206 386.902 291.335 410.539C291.395 411.876 291.124 413.208 290.548 414.416C289.157 416.808 285.923 417.195 283.152 417.292C275.289 417.572 267.425 417.655 259.562 417.54C256.985 417.54 254.236 417.389 252.112 415.924C249.751 414.287 248.716 411.368 247.8 408.643C240.005 384.537 235.034 369.64 234.959 344.327C234.959 335.646 236.587 317.507 237.331 308.857C238.086 299.949 239.088 290.664 239.854 281.746C241.622 260.925 242.689 236.355 246.84 216.881" fill="#F7C639"/>
<path d="M319.981 148.989C323.674 157.953 325.28 167.639 324.676 177.314C324.073 186.99 321.277 196.401 316.499 204.838C319.798 208.792 324.94 210.86 330.051 211.42C335.161 211.98 340.336 211.183 345.404 210.256C355.107 208.479 371.031 203.33 380.497 200.562C356.444 176.984 357.5 152.317 366.05 130.376" fill="#FFB299"/>
<path d="M324.757 170.995C324.757 170.995 346.406 175.303 360.627 160.816C360.627 160.816 359.991 142.505 366.675 128.071C373.36 113.638 322.364 155.635 322.364 155.635C323.448 160.706 324.247 165.834 324.757 170.995Z" fill="#F79E86"/>
<path d="M277.761 78.2753C277.761 78.2753 272.759 107.541 288.219 115.016C303.68 122.492 297.922 69.8521 297.922 69.8521" fill="#4A1914"/>
<path d="M370.255 83.8117C371.782 99.9584 370.216 116.248 365.64 131.809C364.43 136.497 362.472 140.96 359.84 145.025C357.215 148.575 354.033 151.677 350.417 154.213C342.978 159.739 333.943 164.144 324.757 162.949C321.829 162.513 318.974 161.68 316.272 160.471C307.927 156.917 300.402 151.111 295.712 143.356C291.4 136.139 289.621 127.651 288.65 119.271C286.732 102.792 287.431 86.1135 290.72 69.8521" fill="#FFB299"/>
<path d="M281.394 78.2322C281.394 78.2322 298.375 97.4159 332.315 92.795C363.581 88.4865 362.988 105.721 371.85 102.726C380.713 99.7318 356.347 74.7207 356.347 74.7207L310.698 71.9094" fill="#F4947A"/>
<path d="M354.417 86.3861C339.495 89.3267 324.369 92.2888 309.135 91.3086C293.901 90.3284 278.473 84.9535 268.338 73.6221C264.603 69.6616 262.033 64.7497 260.91 59.4254C259.088 49.085 265.503 38.1413 275.077 33.8328C284.65 29.5242 296.531 31.6139 304.704 38.2059C301.76 34.5006 303.259 28.6302 306.86 25.5604C310.461 22.4905 316.973 20.7348 321.684 20.2393C342.352 18.0851 360.551 21.7689 367.247 39.897C372.767 37.6674 377.694 38.109 384.055 41.8682C390.416 45.6274 393.812 51.5624 396.206 56.194C398.465 60.9616 399.72 66.1419 399.893 71.4139C400.73 86.0262 396.749 100.51 388.562 112.647C385.456 117.214 381.467 121.608 376.152 123.138C370.837 124.667 366.815 125.292 365.371 119.906C364.864 118.054 366.233 118.366 366.524 116.481C367.257 111.86 368.217 110.277 369.543 104.299C365.134 101.347 358.837 91.3732 355.635 87.0647" fill="#4A1914"/>
<path d="M365.209 117.58C366.241 113.726 368.514 110.32 371.678 107.886C372.637 107.164 374.298 107.175 375.494 107.121C376.353 107.143 377.189 107.398 377.912 107.86C378.636 108.321 379.22 108.97 379.602 109.738C380.338 111.292 380.647 113.013 380.497 114.725C380.308 119.056 378.804 123.226 376.185 126.682C374.503 128.901 372.174 130.882 369.392 131.152C366.611 131.421 363.538 129.31 363.613 126.52" fill="#FFB299"/>
<path d="M365.338 122.793C365.143 121.081 365.584 119.357 366.578 117.949C367.572 116.541 369.049 115.547 370.729 115.156C371.314 115.013 371.927 115.039 372.497 115.232C372.975 115.457 373.379 115.812 373.665 116.256C373.951 116.699 374.107 117.214 374.114 117.741C374.113 118.795 373.893 119.837 373.468 120.801C373.057 122.077 372.445 123.281 371.656 124.366C371.259 124.905 370.758 125.36 370.182 125.702C369.606 126.045 368.967 126.268 368.303 126.359C367.789 126.408 367.271 126.331 366.794 126.132C366.289 125.859 365.86 125.463 365.548 124.981C365.235 124.5 365.048 123.947 365.004 123.375C364.928 122.231 365.052 121.083 365.371 119.982" fill="#F4947A"/>
<path d="M308.564 110.632C308.216 109.56 307.641 108.575 306.878 107.744C306.116 106.913 305.183 106.256 304.143 105.818C303.251 105.497 302.294 105.398 301.355 105.529C300.415 105.661 299.522 106.018 298.752 106.572C297.885 107.176 297.205 108.012 296.79 108.984C296.719 109.115 296.6 109.214 296.459 109.261C296.317 109.309 296.163 109.301 296.027 109.24C295.891 109.179 295.783 109.068 295.725 108.931C295.666 108.794 295.662 108.64 295.712 108.5C296.175 107.487 296.868 106.596 297.737 105.898C298.605 105.201 299.625 104.716 300.715 104.482C301.922 104.244 303.17 104.317 304.341 104.694C305.512 105.071 306.568 105.739 307.41 106.636C308.431 107.65 309.206 108.884 309.674 110.245C309.911 110.977 308.801 111.408 308.596 110.675L308.564 110.632Z" fill="#4A1914"/>
<path d="M332.638 135.719C336.8 135.945 327.625 142.182 324.013 142.462C322.061 142.519 320.128 142.049 318.421 141.101C316.713 140.154 315.293 138.763 314.31 137.076C320.335 135.836 326.496 135.38 332.638 135.719Z" fill="white"/>
<path opacity="0.32" d="M350.595 129.347C355.575 128.822 359.294 125.393 358.903 121.69C358.511 117.987 354.157 115.411 349.177 115.936C344.197 116.462 340.477 119.89 340.869 123.593C341.26 127.297 345.615 129.873 350.595 129.347Z" fill="#F76464"/>
<path opacity="0.32" d="M293.534 121.996C293.232 125.712 297.038 129.041 302.041 129.439C307.043 129.838 311.313 127.145 311.615 123.429C311.917 119.713 308.1 116.384 303.108 115.986C298.116 115.587 293.825 118.28 293.534 121.996Z" fill="#F76464"/>
<path d="M322.741 106.292C322.741 106.292 321.663 117.494 315.119 125.292C317.765 126.71 320.641 127.651 323.614 128.071" fill="#F79E86"/>
<path d="M334.374 109.157C334.778 108.104 335.404 107.15 336.21 106.36C337.015 105.57 337.981 104.963 339.043 104.579C339.961 104.306 340.932 104.261 341.872 104.449C342.811 104.637 343.691 105.051 344.433 105.656C345.269 106.307 345.904 107.181 346.266 108.177C346.341 108.288 346.452 108.371 346.581 108.411C346.71 108.451 346.848 108.447 346.973 108.398C347.099 108.349 347.204 108.259 347.272 108.142C347.339 108.026 347.365 107.89 347.344 107.756C346.938 106.709 346.29 105.773 345.452 105.025C344.614 104.276 343.611 103.736 342.525 103.448C341.33 103.149 340.079 103.158 338.889 103.475C337.699 103.791 336.609 104.405 335.722 105.257C334.645 106.21 333.806 107.401 333.274 108.737C332.994 109.448 334.072 109.943 334.353 109.232L334.374 109.157Z" fill="#4A1914"/>
<path d="M332.293 93.7106C334.926 92.5415 337.779 91.95 340.66 91.976C343.541 92.0021 346.383 92.645 348.994 93.8614C350.385 94.5202 351.675 95.3764 352.821 96.4034C352.903 96.4911 352.965 96.5954 353.004 96.7091C353.042 96.8229 353.056 96.9435 353.043 97.063C353.031 97.1824 352.993 97.2978 352.933 97.4014C352.872 97.505 352.79 97.5945 352.692 97.6637C352.489 97.8218 352.236 97.9022 351.979 97.8903C351.722 97.8785 351.478 97.7752 351.29 97.5991L350.934 97.2867L350.859 97.2221H350.913C350.848 97.2221 350.751 97.1036 350.697 97.0605C350.449 96.8666 350.19 96.6835 349.932 96.5111C349.407 96.1526 348.86 95.8288 348.293 95.5417L347.862 95.3263L347.722 95.2617L347.581 95.197C347.29 95.0678 346.988 94.9493 346.687 94.8416C346.061 94.6117 345.424 94.414 344.778 94.2492L343.819 94.0337H343.603L343.075 93.9476C342.428 93.8614 341.759 93.7968 341.102 93.7752H339.388C339.388 93.7752 339.193 93.7752 339.388 93.7752C339.582 93.7752 339.387 93.7752 339.334 93.7752C338.668 93.817 338.006 93.8961 337.35 94.0122C336.606 94.1415 335.894 94.3569 335.194 94.5292C335.194 94.5292 335.42 94.4646 335.247 94.5292H335.118L334.838 94.6154L334.223 94.7877L333.145 95.2294C332.915 95.3272 332.658 95.3421 332.418 95.2713C332.178 95.2006 331.97 95.0487 331.83 94.8416C331.78 94.7308 331.754 94.6113 331.751 94.49C331.749 94.3687 331.771 94.2482 331.816 94.1357C331.862 94.0232 331.929 93.9209 332.015 93.8349C332.1 93.7489 332.203 93.681 332.315 93.6352L332.293 93.7106Z" fill="#4A1914"/>
<path d="M308.229 92.8166C305.827 91.7773 303.205 91.3445 300.596 91.5563C297.994 91.8008 295.482 92.6372 293.254 94.0014C292.004 94.7564 290.868 95.6848 289.879 96.7589C289.735 96.9464 289.67 97.1823 289.696 97.4172C289.722 97.6521 289.838 97.8677 290.02 98.0191C290.211 98.1579 290.448 98.2185 290.682 98.1885C290.917 98.1584 291.131 98.0401 291.281 97.8576L291.583 97.5344L291.658 97.459H291.604C291.669 97.459 291.745 97.319 291.788 97.2759C292.014 97.0713 292.23 96.8774 292.467 96.6835C292.923 96.291 293.405 95.9311 293.912 95.6064L294.289 95.3694L294.418 95.294L294.537 95.2294C294.807 95.0786 295.065 94.9385 295.335 94.8093C295.884 94.5401 296.449 94.3063 297.027 94.1091L297.89 93.8291C298.095 93.8291 297.793 93.8291 297.944 93.8291H298.138L298.602 93.7214C299.189 93.5895 299.783 93.4888 300.38 93.4198L301.286 93.3444H301.879C301.879 93.3444 302.062 93.3444 301.879 93.3444C302.477 93.3517 303.075 93.3912 303.669 93.4629C304.348 93.549 304.995 93.7214 305.653 93.8506H305.782L306.019 93.926L306.515 94.0876C306.839 94.1953 307.162 94.3246 307.475 94.4646C307.584 94.5159 307.703 94.5446 307.823 94.5489C307.944 94.5532 308.064 94.5331 308.177 94.4897C308.29 94.4463 308.392 94.3806 308.479 94.2965C308.565 94.2125 308.634 94.1117 308.681 94.0004C308.727 93.8891 308.751 93.7696 308.75 93.6489C308.749 93.5283 308.724 93.4091 308.676 93.2985C308.627 93.1879 308.557 93.0881 308.469 93.0053C308.382 92.9225 308.278 92.8583 308.165 92.8166H308.229Z" fill="#4A1914"/>
<path d="M297.071 199.14C297.071 199.14 282.591 203.449 278.645 222.17C274.699 240.89 258.236 326.651 262.473 367.636C262.473 367.636 264.565 379.097 269.276 387.628C273.988 396.159 304.445 390.924 304.445 390.924" fill="#4199A4"/>
<path d="M323.711 185.008C330.332 188.636 337.837 190.339 345.376 189.926C352.916 189.513 360.189 187 366.373 182.671C366.373 182.671 393.952 189.716 404.723 193.216C404.723 193.216 429.671 394.543 426.835 415.666C426.835 415.666 317.156 426.706 290.494 414.416C290.494 414.416 288.952 222.859 293.728 201.715C293.685 201.715 307.669 190.243 323.711 185.008Z" fill="#4199A4"/>
<path d="M400.723 209.136C400.723 209.136 392.928 210.784 387.591 253.299C382.254 295.813 379.376 324.745 348.379 328.558C317.383 332.371 345.77 384.407 415.224 358.782C434.178 351.803 420.863 252.943 420.863 252.943" fill="#147C84"/>
<path d="M345.005 190.523L351.991 208.835C352.157 209.275 352.425 209.668 352.775 209.983C353.124 210.298 353.544 210.524 353.999 210.644C354.454 210.763 354.932 210.771 355.391 210.668C355.85 210.565 356.277 210.354 356.638 210.052C360.347 206.939 366.902 199.991 374.966 185.278C375.012 185.188 375.023 185.084 374.997 184.987C374.971 184.89 374.91 184.805 374.826 184.75L365.198 178.804C365.131 178.754 365.05 178.727 364.966 178.727C364.883 178.727 364.802 178.754 364.735 178.804C363.128 180.301 352.584 189.834 345.328 189.92C345.259 189.923 345.192 189.944 345.134 189.981C345.075 190.018 345.028 190.069 344.995 190.13C344.962 190.191 344.946 190.259 344.948 190.328C344.95 190.397 344.969 190.464 345.005 190.523Z" fill="#147C84"/>
<path d="M342.848 190.416L340.239 209.05C340.181 209.462 340.018 209.852 339.767 210.184C339.516 210.516 339.185 210.778 338.805 210.948C338.424 211.117 338.007 211.186 337.592 211.15C337.178 211.114 336.779 210.973 336.433 210.741C327.839 204.941 320.32 197.692 314.213 189.317C314.182 189.275 314.161 189.227 314.149 189.176C314.137 189.126 314.136 189.073 314.145 189.022C314.154 188.97 314.173 188.922 314.202 188.878C314.23 188.834 314.267 188.797 314.31 188.768L324.013 182.24C324.077 182.192 324.155 182.166 324.234 182.166C324.314 182.166 324.392 182.192 324.455 182.24C325.9 183.317 334.245 189.446 342.493 189.974C342.546 189.978 342.597 189.993 342.644 190.017C342.692 190.042 342.733 190.076 342.766 190.118C342.8 190.159 342.824 190.207 342.838 190.258C342.853 190.309 342.856 190.363 342.848 190.416Z" fill="#147C84"/>
<path d="M404.583 193.216C404.583 193.216 419.978 193.485 426.9 211.624C433.822 229.763 459.018 314.415 441.811 334.418C424.604 354.42 386.481 361.572 358.384 355.508L356.864 333.534C356.864 333.534 402.038 316.559 401.521 303.202C401.003 289.846 391.289 211.215 404.583 193.216Z" fill="#4199A4"/>
<path opacity="0.21" d="M360.605 279.419C357.454 276.248 354.876 272.557 352.983 268.508C351.377 265.115 349.964 261.56 348.606 258.017C343.452 232.23 335.032 216.008 318.515 207.488C313.725 205.009 308.41 203.716 303.017 203.716C297.623 203.716 292.308 205.009 287.518 207.488C284.975 207.14 282.409 206.971 279.842 206.982C276.113 207.189 272.418 207.803 268.823 208.813C261.355 211.01 254.639 215.226 249.417 220.995C241.04 230.894 237.999 241.461 237.094 253.923C237.057 254.57 237.246 255.21 237.627 255.734C238.008 256.258 238.558 256.634 239.185 256.799L240.263 257.079C239.802 261.167 239.561 265.277 239.541 269.391C239.379 278.784 239.304 288.564 235.164 296.998C234.571 298.215 233.87 299.529 234.161 300.854C234.397 301.668 234.835 302.409 235.433 303.008C238.431 306.33 242.313 308.732 246.624 309.934C246.301 313.737 245.848 318.928 245.428 324.293C243.507 325.917 241.835 327.815 240.468 329.926C232.361 342.518 229.439 376.835 221.73 394.166C214.022 411.497 220.577 423.637 220.577 423.637L242.484 424.638C242.898 425.147 243.453 425.522 244.08 425.715C249.341 427.73 255.066 428.182 260.705 428.301C278.106 428.688 295.572 426.146 312.876 428.042C317.329 428.527 321.846 429.281 326.234 428.398C326.979 428.3 327.685 428.011 328.283 427.557C328.81 427.058 329.158 426.399 329.275 425.683L331.054 427.568C332.682 429.302 334.719 431.198 337.016 430.8C337.633 430.656 338.226 430.42 338.773 430.099C343.732 427.39 348.054 423.653 351.449 419.139C354.845 414.625 357.235 409.438 358.46 403.925C359.48 398.544 359.924 393.07 359.786 387.596C359.786 384.041 359.786 380.487 359.506 376.943C358.535 364.901 354.363 353.386 349.716 342.281C346.396 334.342 339.83 323.506 332.153 320.07C328.509 318.444 323.043 317.194 318.396 318.713C313.07 316.656 305.372 315.062 302.224 314.027C301.458 313.738 300.637 313.621 299.82 313.683C299.78 313.576 299.733 313.471 299.68 313.37C299.472 312.964 299.151 312.627 298.754 312.402C298.358 312.176 297.904 312.071 297.448 312.099C297.003 312.17 296.594 312.386 296.284 312.713C295.536 310.972 295.08 309.12 294.936 307.231C294.764 304.443 295.066 301.645 295.831 298.958C296.532 298.614 297.211 298.258 297.89 297.881C307.51 303.999 318.869 306.806 330.234 305.874C336.509 305.312 342.597 303.445 348.107 300.391C353.616 297.338 358.424 293.166 362.223 288.144C362.921 287.306 363.406 286.312 363.635 285.246C363.904 282.985 362.179 281.046 360.605 279.419Z" fill="#606060"/>
<path d="M287.615 295.21C286.026 299.049 285.29 303.187 285.459 307.338C285.559 309.411 286.083 311.441 286.999 313.302C287.915 315.164 289.204 316.819 290.785 318.164C288.208 320.943 285.481 323.819 281.89 325.014C279.528 325.673 277.073 325.942 274.624 325.811C269.632 325.811 264.155 325.617 260.435 322.3C264.748 319.284 266.182 313.683 266.473 308.297C266.473 307.629 266.473 306.972 266.473 306.326C266.647 302.097 266.089 297.87 264.823 293.831" fill="#FFB299"/>
<path d="M266.527 307.22C266.63 304.173 266.453 301.122 265.999 298.107C265.287 295.027 287.928 292.151 287.928 292.151C287.928 292.151 285.437 301.727 285.459 304.538C285.481 307.349 269.675 311.485 266.527 307.22Z" fill="#F79E86"/>
<path d="M351.193 279.57C348.042 276.399 345.463 272.707 343.571 268.659C341.964 265.255 340.552 261.711 339.193 258.167C334.04 232.381 325.62 216.159 309.103 207.639C304.313 205.16 298.998 203.866 293.604 203.866C288.21 203.866 282.895 205.16 278.106 207.639L283.734 212.292C282.776 212.734 281.866 213.271 281.017 213.897L285.33 295.899C295.556 303.412 308.147 306.994 320.8 305.992C327.076 305.431 333.164 303.563 338.673 300.51C344.182 297.456 348.99 293.284 352.789 288.262C353.49 287.425 353.979 286.431 354.212 285.365C354.492 283.135 352.767 281.186 351.193 279.57Z" fill="#4A1914"/>
<path d="M235.541 242.193C230.787 250.304 230.312 260.138 230.15 269.542C229.989 278.945 229.913 288.704 225.773 297.149C225.18 298.366 224.479 299.68 224.771 301.005C225.006 301.819 225.444 302.56 226.043 303.159C233.331 311.421 246.398 313.392 256.403 308.75C266.408 304.107 273.157 293.745 274.732 282.834" fill="#4A1914"/>
<path d="M314.817 244.865C312.499 258.232 308.262 280.819 298.645 290.46C296.51 292.554 294.165 294.424 291.648 296.039C283.324 301.49 273.136 304.796 263.357 302.944C253.072 300.994 244.35 293.39 239.724 284.008C235.099 274.626 234.247 263.693 235.908 253.374C237.568 243.055 241.622 233.242 246.366 223.914" fill="#FFB299"/>
<path d="M308.736 270.167C310.074 267.354 312.164 264.965 314.774 263.262C317.081 261.765 320.24 260.903 322.493 262.476C323.277 263.126 323.895 263.954 324.294 264.891C324.693 265.828 324.863 266.846 324.79 267.862C324.79 271.89 322.472 275.649 319.399 278.31C316.973 280.624 313.781 281.966 310.429 282.08C307.108 282.026 303.712 280.001 302.731 276.834" fill="#FFB299"/>
<path d="M311.216 270.996C311.897 269.566 312.961 268.351 314.288 267.485C315.464 266.72 317.07 266.278 318.213 267.086C318.614 267.415 318.93 267.835 319.135 268.311C319.339 268.787 319.426 269.305 319.388 269.822C319.325 270.847 319.05 271.848 318.58 272.762C318.111 273.676 317.457 274.483 316.66 275.132C315.428 276.31 313.804 276.993 312.1 277.049C311.252 277.06 310.421 276.809 309.721 276.331C309.021 275.853 308.485 275.171 308.186 274.378" fill="#F79E86"/>
<path d="M236.167 257.435C236.167 257.435 244.792 261.065 247.627 259.589C250.463 258.113 256.77 245.985 259.907 244.585C263.045 243.184 264.22 254.279 264.22 254.279C264.22 254.279 289.944 263.661 297.071 260.128C304.197 256.595 305.211 269.682 305.211 269.682C305.211 269.682 303.561 236.668 303.68 236.377C303.798 236.086 289.664 230.991 289.664 230.991L271.54 227.512H264.565" fill="#F79E86"/>
<path d="M289.308 212.12C285.621 207.973 276.133 207.122 270.43 207.122C266.701 207.338 263.007 207.955 259.411 208.964C251.941 211.157 245.224 215.373 240.005 221.146C231.628 231.045 228.587 241.612 227.682 254.074C227.647 254.721 227.836 255.359 228.217 255.883C228.598 256.406 229.147 256.783 229.773 256.95C233.722 258.047 237.723 258.946 241.762 259.643C242.67 259.89 243.633 259.841 244.511 259.503C245.228 259.036 245.782 258.359 246.096 257.564C251.021 248.039 257.184 239.205 264.425 231.293C263.312 237.113 262.821 243.034 262.958 248.958C263.034 252.502 263.476 256.185 265.028 258.006C268.101 261.571 273.459 261.237 278.085 261.636C281.385 261.95 284.7 262.065 288.014 261.98C290.537 261.84 294.289 261.55 295.162 260.548C295.963 259.489 296.405 258.202 296.424 256.875C296.952 251.888 297.189 249.615 297.717 244.617C300.531 251.801 303.054 256.519 303.68 264.167C304.305 271.815 303.852 281.617 300.445 288.542C304.391 287.325 308.337 283.523 310.655 280.259C318.914 268.594 320.067 252.254 316.391 238.628" fill="#4A1914"/>
<path d="M243.66 264.081C244.104 263.199 244.732 262.422 245.502 261.804C246.272 261.185 247.166 260.738 248.123 260.494C248.945 260.331 249.794 260.371 250.596 260.612C251.399 260.852 252.13 261.285 252.727 261.873C253.399 262.51 253.877 263.324 254.107 264.221C254.124 264.287 254.155 264.348 254.196 264.402C254.238 264.456 254.29 264.502 254.349 264.536C254.408 264.57 254.473 264.592 254.541 264.6C254.608 264.609 254.677 264.605 254.743 264.587C254.809 264.569 254.87 264.539 254.924 264.497C254.978 264.456 255.024 264.404 255.058 264.345C255.092 264.286 255.114 264.221 255.123 264.153C255.132 264.086 255.127 264.017 255.109 263.952C254.85 262.999 254.368 262.121 253.702 261.391C253.037 260.66 252.207 260.098 251.282 259.751C250.266 259.388 249.175 259.288 248.11 259.46C247.045 259.631 246.041 260.068 245.191 260.731C244.174 261.479 243.341 262.447 242.754 263.564C242.452 264.156 243.347 264.641 243.66 264.081Z" fill="#4A1914"/>
<path d="M287.863 264.145C287.314 263.323 286.593 262.629 285.75 262.11C284.907 261.591 283.962 261.261 282.979 261.14C282.145 261.079 281.308 261.224 280.543 261.562C279.778 261.9 279.107 262.421 278.591 263.079C277.997 263.794 277.623 264.666 277.513 265.589C277.493 265.732 277.417 265.861 277.302 265.948C277.187 266.034 277.042 266.072 276.899 266.052C276.756 266.032 276.626 265.956 276.539 265.841C276.453 265.726 276.415 265.581 276.435 265.438C276.571 264.465 276.935 263.537 277.497 262.731C278.059 261.924 278.803 261.261 279.669 260.796C280.631 260.307 281.702 260.07 282.781 260.108C283.859 260.145 284.911 260.456 285.836 261.011C286.942 261.621 287.891 262.481 288.607 263.521C288.985 264.07 288.154 264.695 287.777 264.145H287.863Z" fill="#4A1914"/>
<path d="M261.255 286.862C262.502 287.868 263.987 288.535 265.567 288.801C267.103 288.951 268.644 288.571 269.934 287.724C271.217 286.867 272.274 285.714 273.017 284.363" fill="#FC7373"/>
<path d="M265.729 263.984C265.449 268.206 264.004 272.245 260.802 274.831C260.543 275.035 260.252 275.294 260.306 275.617C260.334 275.751 260.393 275.876 260.479 275.983C261.826 277.473 263.539 278.587 265.449 279.215" fill="#F79E86"/>
<path opacity="0.32" d="M253.675 277.567C253.675 280.367 250.624 282.64 246.851 282.64C243.077 282.64 240.026 280.367 240.026 277.567C240.026 274.766 243.088 272.515 246.894 272.515C250.7 272.515 253.675 274.766 253.675 277.567Z" fill="#F76464"/>
<path opacity="0.32" d="M295.561 275.542C295.561 278.353 292.499 280.626 288.737 280.626C284.974 280.626 281.912 278.353 281.912 275.542C281.912 272.73 284.974 270.468 288.737 270.468C292.499 270.468 295.561 272.741 295.561 275.542Z" fill="#F76464"/>
<path d="M244.026 255.69C245.743 254.101 247.79 252.909 250.021 252.2C252.256 251.495 254.676 251.665 256.791 252.674C257.395 252.986 257.869 252.082 257.32 251.78C253.665 249.895 249.363 250.789 246.01 252.857C245.05 253.468 244.141 254.156 243.293 254.914C242.786 255.356 243.53 256.088 244.026 255.647V255.69Z" fill="#4A1914"/>
<path d="M264.737 315.137C251.131 315.191 247.746 322.569 244.199 330.82C240.652 339.071 241.708 350.413 241.018 359.364C239.412 380.403 236.695 401.343 232.878 422.096C232.593 422.984 232.671 423.948 233.094 424.778C233.507 425.287 234.063 425.662 234.689 425.855C239.951 427.87 245.676 428.322 251.314 428.441C268.716 428.828 286.181 426.286 303.486 428.182C307.938 428.656 312.456 429.421 316.844 428.538C317.587 428.435 318.292 428.146 318.892 427.697C319.884 426.836 320.024 425.371 320.078 424.057C320.725 408.815 319.399 393.574 318.073 378.386L316.251 357.608C315.173 344.758 322.72 330.82 313.814 321.514C310.58 318.142 297.232 315.589 292.769 314.146C291.924 313.811 291.007 313.699 290.106 313.823C289.322 314.07 288.591 314.461 287.95 314.975C280.64 319.973 272.651 320.62 265.018 316.128" fill="#FC7373"/>
<path d="M308.639 321.88C305.096 324.897 302.585 328.946 301.459 333.459C300.31 337.666 299.855 342.032 300.111 346.385C300.613 350.851 301.368 355.285 302.375 359.666C303.194 363.974 304.531 368.067 305.609 372.279C308.639 384.677 308.844 397.602 308.154 410.345C307.906 415.192 307.248 420.621 303.442 423.647C303.442 423.647 321.501 425.748 325.749 411.4C329.997 397.053 321.857 337.778 321.857 337.778" fill="#F25F5F"/>
<path d="M301.275 327.179C304.887 315.719 316.499 317.399 322.741 320.189C330.417 323.625 336.983 334.461 340.304 342.399C344.951 353.504 349.123 365.019 350.093 377.061C350.385 380.605 350.395 384.16 350.374 387.714C350.512 393.189 350.067 398.663 349.048 404.044C347.816 409.543 345.423 414.717 342.03 419.22C338.637 423.722 334.322 427.45 329.372 430.153C328.824 430.474 328.232 430.71 327.614 430.853C325.318 431.284 323.302 429.399 321.652 427.622L315.108 420.642C314.03 419.5 312.952 418.197 312.844 416.614C312.902 415.586 313.162 414.579 313.609 413.652C314.261 411.786 314.741 409.864 315.043 407.91C316.41 400.047 316.588 392.022 315.571 384.106C314.159 373.098 310.461 362.563 306.806 352.115C305.944 349.67 305.092 347.236 304.111 344.844C303.089 342.583 302.203 340.263 301.459 337.897C300.497 334.378 300.434 330.675 301.275 327.125" fill="#FC7373"/>
<path d="M254.991 317.227C254.991 317.227 239.174 317.485 231.067 330.066C222.959 342.647 220.038 376.997 212.329 394.306C204.62 411.616 211.175 423.777 211.175 423.777L233.083 424.778C233.083 424.778 243.282 410.926 246.851 372.828C250.419 334.73 254.991 317.227 254.991 317.227Z" fill="#FC7373"/>
<path d="M232.878 422.236C232.878 422.236 237.191 364.75 243.66 351.146C243.66 351.146 248.026 394.694 243.66 423.195" fill="#F25F5F"/>
<path d="M274.829 319.047C277.41 318.581 279.938 317.859 282.376 316.893C283.339 316.567 284.218 316.034 284.952 315.331C285.966 314.254 286.505 312.379 288.003 312.164C288.459 312.143 288.911 312.253 289.306 312.48C289.702 312.707 290.024 313.042 290.235 313.446C290.632 314.271 290.824 315.18 290.796 316.096C290.893 319.467 290.138 323.032 287.809 325.467C285.481 327.901 281.341 328.763 278.678 326.705C277.287 325.628 274.829 322.02 274.829 319.004" fill="#F25F5F"/>
<path d="M275.174 319.036C272.857 318.877 270.565 318.465 268.338 317.808C267.435 317.584 266.597 317.153 265.891 316.548C264.813 315.557 264.144 313.801 262.818 313.758C262.399 313.796 262.003 313.962 261.682 314.234C261.362 314.506 261.133 314.87 261.028 315.277C260.783 316.153 260.732 317.072 260.877 317.97C261.222 321.32 262.354 324.767 264.694 326.921C267.034 329.075 270.764 329.452 272.823 327.115C274.508 324.77 275.338 321.918 275.174 319.036Z" fill="#F25F5F"/>
<path d="M276.478 332.145C276.394 332.45 276.226 332.726 275.993 332.941C275.76 333.157 275.472 333.303 275.161 333.363C274.85 333.424 274.528 333.396 274.231 333.284C273.935 333.171 273.676 332.978 273.483 332.727C273.29 332.475 273.172 332.175 273.141 331.859C273.11 331.544 273.167 331.226 273.307 330.942C273.447 330.658 273.663 330.418 273.932 330.25C274.201 330.082 274.511 329.992 274.829 329.991C275.332 330.06 275.788 330.326 276.097 330.729C276.405 331.132 276.543 331.641 276.478 332.145Z" fill="#F25F5F"/>
<path d="M276.338 361.044C276.252 361.346 276.083 361.619 275.851 361.83C275.619 362.042 275.332 362.185 275.023 362.243C274.714 362.301 274.395 362.272 274.102 362.159C273.809 362.047 273.553 361.854 273.362 361.604C273.172 361.354 273.055 361.056 273.025 360.744C272.995 360.431 273.052 360.116 273.191 359.835C273.33 359.553 273.545 359.315 273.811 359.148C274.077 358.982 274.385 358.892 274.699 358.89C275.201 358.962 275.654 359.229 275.96 359.632C276.267 360.035 276.403 360.542 276.338 361.044Z" fill="#F25F5F"/>
<path d="M276.338 345.361C276.252 345.663 276.083 345.935 275.851 346.147C275.619 346.359 275.332 346.502 275.023 346.56C274.714 346.618 274.395 346.589 274.102 346.476C273.809 346.364 273.553 346.171 273.362 345.921C273.172 345.671 273.055 345.373 273.025 345.061C272.995 344.748 273.052 344.433 273.191 344.151C273.33 343.87 273.545 343.632 273.811 343.465C274.077 343.298 274.385 343.209 274.699 343.207C275.201 343.279 275.654 343.546 275.96 343.949C276.267 344.352 276.403 344.859 276.338 345.361Z" fill="#F25F5F"/>
<path d="M276.338 376.727C276.252 377.029 276.083 377.302 275.851 377.513C275.619 377.725 275.332 377.868 275.023 377.926C274.714 377.984 274.395 377.955 274.102 377.843C273.809 377.73 273.553 377.538 273.362 377.288C273.172 377.037 273.055 376.739 273.025 376.427C272.995 376.114 273.052 375.799 273.191 375.518C273.33 375.236 273.545 374.998 273.811 374.831C274.077 374.665 274.385 374.575 274.699 374.573C275.201 374.645 275.654 374.912 275.96 375.315C276.267 375.718 276.403 376.225 276.338 376.727Z" fill="#F25F5F"/>
<path d="M276.478 406.553C276.394 406.859 276.226 407.135 275.993 407.35C275.76 407.565 275.472 407.711 275.161 407.771C274.85 407.832 274.528 407.804 274.231 407.692C273.935 407.579 273.676 407.386 273.483 407.135C273.29 406.883 273.172 406.583 273.141 406.268C273.11 405.952 273.167 405.635 273.307 405.35C273.447 405.066 273.663 404.826 273.932 404.658C274.201 404.49 274.511 404.4 274.829 404.399C275.332 404.469 275.788 404.734 276.097 405.137C276.405 405.541 276.543 406.049 276.478 406.553Z" fill="#F25F5F"/>
<path d="M276.338 392.518C276.252 392.82 276.083 393.092 275.851 393.304C275.619 393.516 275.332 393.659 275.023 393.717C274.714 393.775 274.395 393.746 274.102 393.633C273.809 393.521 273.553 393.328 273.362 393.078C273.172 392.828 273.055 392.53 273.025 392.218C272.995 391.905 273.052 391.59 273.191 391.308C273.33 391.027 273.545 390.789 273.811 390.622C274.077 390.455 274.385 390.366 274.699 390.364C275.202 390.434 275.657 390.699 275.964 391.103C276.271 391.507 276.406 392.016 276.338 392.518Z" fill="#F25F5F"/>
<path d="M357.123 336.83C351.127 335.62 345.565 332.827 341.015 328.741C332.067 320.792 313.857 319.909 300.542 322.063C287.227 324.217 292.941 336.066 304.316 337.337C315.69 338.608 325.458 339.663 330.31 344.22C334.719 348.367 340.509 354.323 357.953 349.11L357.123 336.83Z" fill="#FFB299"/>
</g>
<defs>
<clipPath id="clip0">
<rect width="529" height="441" fill="white"/>
</clipPath>
</defs>
</svg>
