<svg width="429" height="356" viewBox="0 0 429 356" fill="none" xmlns="http://www.w3.org/2000/svg">
<g clip-path="url(#clip0)">
<path opacity="0.02" d="M232.703 332.755L0 186.213L94.7846 126.626L242.328 229.596L309.269 313.173L232.703 332.755Z" fill="#0F054C"/>
<path opacity="0.5" d="M160.781 109.901C184.57 101.561 201.785 88.8766 199.232 81.57C196.679 74.2634 175.325 75.1013 151.536 83.4415C127.748 91.7817 110.533 104.466 113.086 111.773C115.639 119.079 136.993 118.241 160.781 109.901Z" fill="#0F054C"/>
<path d="M138.995 54.9729L139.296 47.4413L141.053 43.0492L142.161 46.6961L138.995 54.9729Z" fill="#DD821F"/>
<path d="M217.792 56.4L218.093 49.0269C218.093 49.0269 211.857 55.2425 211.857 55.3693C211.857 55.4962 217.792 56.4 217.792 56.4Z" fill="#FFD85A"/>
<path d="M177.856 78.2814C156.107 77.6947 138.837 66.6906 139.296 47.4413C139.755 28.1921 157.769 13.0337 179.518 13.557C201.267 14.0802 218.536 30.1265 218.077 49.3441C217.618 68.5616 199.605 78.8046 177.856 78.2814Z" fill="#FFD85A"/>
<path d="M217.772 56.8445C218.232 37.6107 200.97 21.5962 179.217 21.0751C157.463 20.554 139.457 35.7236 138.998 54.9573C138.539 74.1911 155.801 90.2055 177.554 90.7267C199.307 91.2478 217.313 76.0782 217.772 56.8445Z" fill="#FFD85A"/>
<path d="M150.899 30.8083C147.321 33.7638 144.411 37.4458 142.359 41.6113C140.307 45.7768 139.16 50.3309 138.995 54.973C138.536 74.2063 155.806 90.221 177.555 90.7442C187.659 91.0811 197.548 87.7663 205.414 81.405L150.899 30.8083Z" fill="#DD821F"/>
<path d="M216.016 56.8024C216.455 38.4266 199.962 23.1264 179.179 22.6286C158.396 22.1307 141.193 36.6236 140.754 54.9994C140.315 73.3752 156.808 88.6753 177.591 89.1732C198.374 89.6711 215.577 75.1782 216.016 56.8024Z" fill="#F9BF30"/>
<path d="M208.594 56.6246C208.946 41.8732 195.707 29.5908 179.023 29.1911C162.339 28.7914 148.528 40.4258 148.176 55.1772C147.824 69.9286 161.063 82.211 177.747 82.6107C194.431 83.0104 208.242 71.376 208.594 56.6246Z" fill="#F2B42A"/>
<path d="M208.596 56.6378C208.596 56.0194 208.596 55.4169 208.596 54.8144C207.203 68.7043 193.859 79.3754 177.871 78.9948C161.884 78.6143 149.063 67.3089 148.334 53.3715C148.334 53.974 148.224 54.5765 148.208 55.179C147.86 69.941 161.093 82.2295 177.792 82.6259C194.492 83.0223 208.248 71.3522 208.596 56.6378Z" fill="#FFD85A"/>
<path d="M184.187 58.16L177.998 52.4201C172.031 53.7679 160.903 56.3048 152.023 58.3978C153.245 61.8095 155.183 64.9193 157.706 67.5176C160.228 70.116 163.278 72.1427 166.649 73.4611L184.187 58.16Z" fill="#FFD85A"/>
<path d="M174.437 75.5065C175.418 75.6175 176.415 75.6968 177.444 75.7285C184.318 75.9698 191.052 73.7492 196.439 69.4653L186.324 60.0944L174.437 75.5065Z" fill="#FFD85A"/>
<path d="M171.35 46.252L159.668 35.4224C155.742 38.8473 152.244 42.6369 151.294 47.6949L171.35 46.252Z" fill="#FFD85A"/>
<path d="M177.444 32.394C194.128 32.7904 207.377 45.0788 207.029 59.8249C206.95 62.7496 206.339 65.6354 205.224 68.3396C207.337 64.7959 208.499 60.7646 208.596 56.6379C208.96 41.8759 195.711 29.6826 179.027 29.191C165.731 28.8739 154.254 36.2153 149.981 46.6327C155.125 37.9436 165.541 32.1086 177.444 32.394Z" fill="#DD821F"/>
<path d="M139.296 47.4413C139.036 49.9868 139.153 52.5569 139.644 55.0681C140.499 52.325 142.462 43.7944 142.462 43.7944L145.469 37.0873L147.97 35.026L152.197 31.9341L152.545 22.2619C148.602 25.2039 145.366 28.992 143.074 33.3486C140.781 37.7053 139.491 42.5204 139.296 47.4413Z" fill="#DD821F"/>
<path d="M215.529 46.4582L215.703 44.4762C215.701 44.4103 215.712 44.3447 215.736 44.2832C215.759 44.2218 215.795 44.1657 215.841 44.1183C215.887 44.071 215.942 44.0334 216.002 44.0077C216.063 43.982 216.128 43.9688 216.194 43.9688H216.336C216.402 43.9708 216.467 43.9861 216.527 44.0137C216.586 44.0413 216.64 44.0807 216.684 44.1295C216.729 44.1783 216.763 44.2356 216.785 44.2979C216.806 44.3602 216.815 44.4262 216.811 44.4921L216.653 46.4741C216.649 46.6074 216.594 46.7341 216.5 46.8284C216.406 46.9227 216.279 46.9775 216.146 46.9815H216.004C215.938 46.9795 215.873 46.9642 215.813 46.9366C215.753 46.909 215.7 46.8696 215.655 46.8208C215.611 46.772 215.577 46.7147 215.555 46.6524C215.534 46.5901 215.525 46.5241 215.529 46.4582Z" fill="#DD821F"/>
<path d="M212.11 38.8632L212.316 35.2956C212.316 35.1469 212.373 35.004 212.477 34.8974C212.58 34.7908 212.721 34.7289 212.87 34.7247H213.218C213.366 34.7329 213.505 34.7989 213.606 34.9085C213.707 35.018 213.76 35.1626 213.756 35.3114L213.55 38.879C213.55 38.954 213.535 39.0282 213.507 39.0975C213.478 39.1667 213.436 39.2296 213.383 39.2827C213.33 39.3357 213.268 39.3777 213.198 39.4064C213.129 39.4351 213.055 39.4498 212.98 39.4498H212.632C212.487 39.4377 212.351 39.3701 212.254 39.2609C212.157 39.1518 212.105 39.0094 212.11 38.8632Z" fill="#DD821F"/>
<path d="M207.361 32.2353L207.551 28.7787C207.555 28.6075 207.625 28.4445 207.746 28.3235C207.866 28.2024 208.029 28.1326 208.2 28.1286H208.802C208.969 28.1446 209.125 28.224 209.237 28.3506C209.348 28.4772 209.408 28.6415 209.403 28.8104L209.197 32.267C209.199 32.3516 209.185 32.4358 209.154 32.5146C209.123 32.5934 209.077 32.6652 209.018 32.7258C208.958 32.7864 208.888 32.8345 208.81 32.8674C208.732 32.9002 208.649 32.9172 208.564 32.9171H207.963C207.878 32.9131 207.795 32.8922 207.719 32.8555C207.642 32.8188 207.574 32.7672 207.518 32.7036C207.462 32.64 207.419 32.5658 207.392 32.4854C207.365 32.4049 207.355 32.3199 207.361 32.2353Z" fill="#DD821F"/>
<path d="M200.096 26.9552L200.317 22.7692C200.315 22.6846 200.33 22.6004 200.361 22.5217C200.392 22.4429 200.438 22.3711 200.497 22.3105C200.556 22.2499 200.626 22.2018 200.704 22.1689C200.782 22.136 200.866 22.1191 200.95 22.1191H201.552C201.637 22.1209 201.721 22.1403 201.799 22.1763C201.876 22.2122 201.945 22.2638 202.002 22.3279C202.058 22.392 202.101 22.4671 202.127 22.5485C202.153 22.6299 202.162 22.7159 202.153 22.801L201.932 26.9552C201.934 27.0391 201.919 27.1226 201.888 27.2005C201.857 27.2784 201.81 27.3492 201.751 27.4086C201.692 27.4679 201.621 27.5145 201.543 27.5456C201.466 27.5767 201.382 27.5917 201.299 27.5895H200.697C200.535 27.5813 200.382 27.5109 200.27 27.3929C200.158 27.2748 200.095 27.1181 200.096 26.9552Z" fill="#DD821F"/>
<path d="M192.862 23.3718L193.099 18.6149C193.103 18.4464 193.17 18.2856 193.288 18.165C193.405 18.0444 193.564 17.9728 193.732 17.9648H194.334C194.505 17.977 194.664 18.0547 194.779 18.1817C194.894 18.3087 194.956 18.4753 194.951 18.6467L194.714 23.4035C194.71 23.572 194.642 23.7328 194.525 23.8534C194.407 23.9741 194.249 24.0456 194.081 24.0536H193.479C193.308 24.0414 193.149 23.9637 193.034 23.8367C192.919 23.7097 192.857 23.5432 192.862 23.3718Z" fill="#DD821F"/>
<path d="M185.612 21.2313L185.834 16.6013C185.833 16.4316 185.9 16.2686 186.018 16.1472C186.136 16.0257 186.297 15.9554 186.467 15.9512H187.084C187.167 15.9553 187.249 15.9758 187.324 16.0114C187.399 16.0471 187.467 16.0973 187.523 16.1592C187.579 16.2211 187.622 16.2934 187.65 16.3719C187.678 16.4505 187.69 16.5339 187.686 16.6172L187.448 21.263C187.45 21.3476 187.435 21.4318 187.405 21.5106C187.374 21.5894 187.327 21.6612 187.268 21.7218C187.209 21.7824 187.139 21.8305 187.061 21.8634C186.983 21.8962 186.899 21.9131 186.815 21.9131H186.213C186.129 21.9091 186.046 21.8882 185.97 21.8515C185.893 21.8148 185.825 21.7631 185.769 21.6996C185.713 21.636 185.67 21.5618 185.643 21.4814C185.616 21.4009 185.605 21.3159 185.612 21.2313Z" fill="#DD821F"/>
<path d="M178.315 20.5019L178.552 15.7451C178.55 15.6605 178.565 15.5763 178.596 15.4975C178.627 15.4187 178.673 15.3469 178.732 15.2863C178.791 15.2257 178.861 15.1776 178.939 15.1447C179.017 15.1119 179.101 15.0949 179.185 15.095H179.787C179.884 15.088 179.982 15.1038 180.073 15.1412C180.163 15.1785 180.244 15.2362 180.308 15.31C180.372 15.3837 180.419 15.4714 180.444 15.5661C180.469 15.6609 180.471 15.7601 180.452 15.8561L180.23 20.6129C180.226 20.784 180.156 20.9471 180.035 21.0681C179.915 21.1892 179.752 21.2589 179.581 21.263H178.869C178.782 21.2515 178.698 21.2224 178.622 21.1775C178.546 21.1325 178.481 21.0726 178.429 21.0014C178.377 20.9302 178.34 20.8493 178.321 20.7634C178.301 20.6775 178.299 20.5885 178.315 20.5019Z" fill="#DD821F"/>
<path d="M170.954 20.6129L171.176 16.2049C171.174 16.1203 171.189 16.0361 171.219 15.9573C171.25 15.8785 171.297 15.8067 171.356 15.7461C171.415 15.6856 171.485 15.6374 171.563 15.6046C171.641 15.5717 171.724 15.5548 171.809 15.5548H172.537C172.622 15.5568 172.705 15.5758 172.782 15.6106C172.859 15.6453 172.929 15.6952 172.986 15.7573C173.044 15.8194 173.088 15.8924 173.117 15.972C173.146 16.0516 173.159 16.1362 173.154 16.2208L172.917 20.6446C172.919 20.7285 172.904 20.8119 172.873 20.8899C172.842 20.9678 172.796 21.0386 172.736 21.0979C172.677 21.1573 172.607 21.2039 172.529 21.235C172.451 21.2661 172.368 21.281 172.284 21.2788H171.682C171.589 21.2932 171.493 21.2865 171.403 21.259C171.312 21.2316 171.229 21.1842 171.159 21.1203C171.089 21.0565 171.035 20.9777 170.999 20.8899C170.964 20.8021 170.948 20.7074 170.954 20.6129Z" fill="#DD821F"/>
<path d="M163.657 22.1985L163.879 17.9173C163.876 17.8335 163.891 17.75 163.922 17.6721C163.953 17.5941 164 17.5234 164.059 17.464C164.118 17.4047 164.189 17.358 164.267 17.3269C164.345 17.2958 164.428 17.2809 164.512 17.2831H165.113C165.197 17.285 165.28 17.304 165.356 17.339C165.432 17.374 165.501 17.4241 165.557 17.4865C165.613 17.5488 165.656 17.6219 165.684 17.7015C165.711 17.781 165.721 17.8653 165.715 17.9491L165.493 22.2302C165.495 22.3148 165.48 22.399 165.45 22.4778C165.419 22.5566 165.372 22.6284 165.313 22.689C165.254 22.7495 165.184 22.7977 165.106 22.8305C165.028 22.8634 164.945 22.8803 164.86 22.8803H164.258C164.174 22.8763 164.091 22.8553 164.015 22.8187C163.938 22.782 163.87 22.7303 163.814 22.6667C163.758 22.6032 163.715 22.529 163.688 22.4485C163.661 22.3681 163.651 22.2831 163.657 22.1985Z" fill="#DD821F"/>
<path d="M156.249 25.8612L156.486 21.2312C156.484 21.1466 156.499 21.0624 156.53 20.9836C156.561 20.9048 156.607 20.833 156.666 20.7725C156.725 20.7119 156.796 20.6637 156.874 20.6309C156.951 20.598 157.035 20.5811 157.12 20.5811H157.721C157.806 20.5851 157.889 20.6061 157.965 20.6428C158.041 20.6794 158.11 20.7311 158.166 20.7947C158.222 20.8582 158.265 20.9324 158.292 21.0129C158.318 21.0933 158.329 21.1783 158.323 21.2629L158.101 25.877C158.103 25.9617 158.088 26.0458 158.057 26.1246C158.027 26.2034 157.98 26.2752 157.921 26.3358C157.862 26.3964 157.792 26.4445 157.714 26.4774C157.636 26.5102 157.552 26.5272 157.468 26.5271H156.866C156.782 26.5251 156.698 26.5062 156.621 26.4714C156.544 26.4366 156.475 26.3867 156.417 26.3246C156.36 26.2626 156.315 26.1896 156.286 26.11C156.257 26.0304 156.245 25.9458 156.249 25.8612Z" fill="#DD821F"/>
<path d="M428.968 242.312V257.899C428.963 258.017 428.926 258.132 428.862 258.232C428.798 258.333 428.709 258.414 428.604 258.469L259.233 355.794C258.891 355.947 258.519 356.018 258.145 356.001C257.772 355.985 257.407 355.881 257.08 355.699L229.522 339.636C229.396 339.578 229.286 339.492 229.198 339.385C229.11 339.278 229.048 339.153 229.015 339.018V323.273L242.407 330.932L398.671 241.012C399.012 240.855 399.385 240.782 399.759 240.799C400.134 240.815 400.499 240.921 400.824 241.107L410.322 246.609L428.968 242.312Z" fill="url(#paint0_linear)"/>
<path d="M398.735 225.394L229.364 322.718C228.825 323.035 228.889 323.59 229.522 323.955L257.112 340.017C257.439 340.2 257.803 340.303 258.177 340.32C258.551 340.336 258.923 340.265 259.265 340.112L428.636 242.788C429.19 242.471 429.111 241.916 428.478 241.551L400.888 225.489C400.561 225.307 400.196 225.203 399.822 225.186C399.449 225.17 399.076 225.241 398.735 225.394Z" fill="url(#paint1_linear)"/>
<path opacity="0.6" d="M392.562 248.845L259.597 323.923C258.569 318.51 257.049 313.202 255.054 308.067L387.813 231.657C389.955 237.216 391.546 242.973 392.562 248.845Z" fill="#24126A"/>
<path d="M404.592 234.4L244.939 326.159C244.559 326.381 244.607 326.761 245.05 327.015L251.983 331.043C252.21 331.162 252.463 331.224 252.719 331.224C252.976 331.224 253.228 331.162 253.455 331.043L413.139 239.426C413.519 239.204 413.472 238.824 413.028 238.57L406.095 234.543C405.876 234.395 405.624 234.305 405.362 234.28C405.099 234.255 404.834 234.296 404.592 234.4Z" fill="#24126A"/>
<path d="M413.139 239.426L409.894 241.297L406.143 239.109C405.916 238.99 405.663 238.927 405.407 238.927C405.15 238.927 404.898 238.99 404.671 239.109L248.263 329.013L245.098 327.158C244.654 326.904 244.607 326.524 244.987 326.302L404.592 234.4C404.819 234.281 405.071 234.218 405.328 234.218C405.584 234.218 405.837 234.281 406.064 234.4L412.997 238.427C413.44 238.745 413.488 239.125 413.139 239.426Z" fill="#453C9E"/>
<path opacity="0.96" d="M2.1369 76.3469L134.959 0C134.959 23.7841 151.516 52.8641 172.094 64.8354L355.141 171.356C379.328 185.421 398.877 219.559 398.798 247.576L265.929 323.923C266.008 295.89 246.459 261.767 222.272 247.703L39.2719 141.119C18.6941 129.148 2.07358 100.115 2.1369 76.2834V76.3469Z" fill="url(#paint2_linear)"/>
<path opacity="0.8" d="M398.798 247.576L265.929 323.923C265.929 322.687 265.929 321.434 265.818 320.181L398.64 243.85C398.751 245.103 398.798 246.34 398.798 247.576Z" fill="#453C9E"/>
<g opacity="0.32">
<path opacity="0.32" d="M206.459 190.32L176.384 207.619L179.28 209.3L209.356 192.001L206.459 190.32Z" fill="#453C9E"/>
<path opacity="0.32" d="M221.892 181.457L211.065 187.688L213.946 189.369L224.789 183.137L221.892 181.457Z" fill="#453C9E"/>
<path opacity="0.32" d="M233.843 174.591L226.483 178.825L229.379 180.505L236.74 176.272L233.843 174.591Z" fill="#453C9E"/>
<path opacity="0.32" d="M186.166 194.348L169.767 203.766L172.664 205.447L189.063 196.028L186.166 194.348Z" fill="#453C9E"/>
<path opacity="0.32" d="M210.844 180.156L190.756 191.7L193.653 193.396L213.74 181.837L210.844 180.156Z" fill="#453C9E"/>
<path opacity="0.32" d="M222.794 173.291L215.434 177.524L218.331 179.205L225.691 174.972L222.794 173.291Z" fill="#453C9E"/>
<path opacity="0.32" d="M234.176 166.742L226.815 170.976L229.712 172.656L237.072 168.439L234.176 166.742Z" fill="#453C9E"/>
<path opacity="0.32" d="M175.022 193.111L163.151 199.929L166.047 201.61L177.903 194.792L175.022 193.111Z" fill="#453C9E"/>
<path opacity="0.32" d="M183.665 188.132L179.613 190.463L182.51 192.144L186.562 189.813L183.665 188.132Z" fill="#453C9E"/>
<path opacity="0.32" d="M195.616 181.266L188.271 185.484L191.152 187.181L198.513 182.947L195.616 181.266Z" fill="#453C9E"/>
<path opacity="0.32" d="M200.317 170.912L156.55 196.076L159.447 197.757L203.214 172.593L200.317 170.912Z" fill="#453C9E"/>
<path opacity="0.32" d="M215.751 162.049L204.923 168.28L207.804 169.961L218.647 163.73L215.751 162.049Z" fill="#453C9E"/>
<path opacity="0.32" d="M161.789 185.405L149.933 192.223L152.83 193.919L164.686 187.101L161.789 185.405Z" fill="#453C9E"/>
<path opacity="0.32" d="M189.633 169.406L166.396 182.773L169.292 184.453L192.529 171.103L189.633 169.406Z" fill="#453C9E"/>
<path opacity="0.32" d="M201.584 162.54L194.223 166.774L197.12 168.455L204.48 164.221L201.584 162.54Z" fill="#453C9E"/>
<path opacity="0.32" d="M167.598 174.432L143.317 188.386L146.213 190.066L170.479 176.113L167.598 174.432Z" fill="#453C9E"/>
<path opacity="0.32" d="M189.728 161.7L172.189 171.784L175.086 173.481L192.624 163.397L189.728 161.7Z" fill="#453C9E"/>
<path opacity="0.32" d="M206.19 152.25L194.334 159.068L197.231 160.749L209.087 153.931L206.19 152.25Z" fill="#453C9E"/>
<path opacity="0.32" d="M144.915 179.823L136.716 184.533L139.613 186.213L147.796 181.504L144.915 179.823Z" fill="#453C9E"/>
<path opacity="0.32" d="M160.333 170.96L149.506 177.176L152.403 178.872L163.23 172.641L160.333 170.96Z" fill="#453C9E"/>
<path opacity="0.32" d="M182.383 158.275L164.923 168.312L167.82 169.993L185.28 159.972L182.383 158.275Z" fill="#453C9E"/>
<path opacity="0.32" d="M155.204 166.251L130.099 180.68L132.996 182.376L158.101 167.947L155.204 166.251Z" fill="#453C9E"/>
<path opacity="0.32" d="M183.333 150.093L159.795 163.619L162.691 165.299L186.213 151.774L183.333 150.093Z" fill="#453C9E"/>
<path opacity="0.32" d="M195.284 143.228L187.923 147.445L190.82 149.142L198.18 144.908L195.284 143.228Z" fill="#453C9E"/>
<path opacity="0.32" d="M206.76 136.632L199.399 140.849L202.296 142.546L209.656 138.312L206.76 136.632Z" fill="#453C9E"/>
<path opacity="0.32" d="M138.536 168.201L123.483 176.843L126.38 178.523L141.417 169.882L138.536 168.201Z" fill="#453C9E"/>
<path opacity="0.32" d="M267.48 155.247L288.343 143.259L291.239 144.94L270.377 156.927L267.48 155.247Z" fill="#453C9E"/>
<path opacity="0.32" d="M265.343 148.841L281.742 139.406L284.623 141.103L268.24 150.521L265.343 148.841Z" fill="#453C9E"/>
<path opacity="0.32" d="M263.27 142.387L275.126 135.569L278.022 137.25L266.15 144.068L263.27 142.387Z" fill="#453C9E"/>
<path opacity="0.32" d="M251.255 141.642L268.509 131.716L271.406 133.413L254.152 143.323L251.255 141.642Z" fill="#453C9E"/>
<path opacity="0.32" d="M250.036 134.681L261.908 127.879L264.789 129.56L252.933 136.378L250.036 134.681Z" fill="#453C9E"/>
<path opacity="0.32" d="M240.254 132.668L255.292 124.026L258.188 125.707L243.135 134.348L240.254 132.668Z" fill="#453C9E"/>
<path opacity="0.32" d="M240.476 124.898L248.675 120.173L251.572 121.87L243.372 126.579L240.476 124.898Z" fill="#453C9E"/>
<path opacity="0.32" d="M226.182 125.453L242.074 116.336L244.955 118.017L229.079 127.15L226.182 125.453Z" fill="#453C9E"/>
<path opacity="0.32" d="M220.42 121.124L235.458 112.483L238.355 114.164L223.301 122.821L220.42 121.124Z" fill="#453C9E"/>
<path opacity="0.32" d="M149.522 161.874L143.127 165.553L146.023 167.234L152.418 163.555L149.522 161.874Z" fill="#453C9E"/>
<path opacity="0.32" d="M168.517 150.95L154.112 159.226L157.009 160.923L171.413 152.646L168.517 150.95Z" fill="#453C9E"/>
<path opacity="0.32" d="M150.535 121.442L126.237 135.411L129.134 137.091L153.431 123.122L150.535 121.442Z" fill="#453C9E"/>
<path opacity="0.32" d="M167.171 111.88L157.61 117.382L160.507 119.063L170.068 113.561L167.171 111.88Z" fill="#453C9E"/>
</g>
<path opacity="0.3" d="M241.475 200.157C272.104 189.419 294.267 173.082 290.978 163.668C287.689 154.253 260.192 155.327 229.563 166.065C198.934 176.803 176.771 193.14 180.06 202.555C183.35 211.969 210.846 210.896 241.475 200.157Z" fill="#0F054C"/>
<path d="M213.439 129.433L213.819 119.761L216.067 114.084L217.492 118.778L213.439 129.433Z" fill="#DD821F"/>
<path d="M314.872 131.288L315.252 121.774C315.252 121.774 307.227 129.798 307.227 129.988C307.227 130.178 314.872 131.288 314.872 131.288Z" fill="#FFD85A"/>
<path d="M263.459 159.448C235.442 158.782 213.218 144.528 213.819 119.808C214.421 95.0887 237.563 75.5065 265.596 76.1724C293.63 76.8384 315.838 97.4671 315.236 122.234C314.635 147.001 291.461 160.146 263.459 159.448Z" fill="#FFD85A"/>
<path d="M314.852 131.865C315.443 107.099 293.215 86.4774 265.205 85.8064C237.194 85.1354 214.007 104.669 213.416 129.435C212.825 154.202 235.053 174.823 263.063 175.494C291.074 176.165 314.26 156.632 314.852 131.865Z" fill="#FFD85A"/>
<path d="M228.746 98.3075C224.14 102.107 220.394 106.845 217.755 112.205C215.116 117.566 213.645 123.428 213.439 129.401C212.838 154.168 235.062 174.797 263.079 175.463C276.087 175.903 288.816 171.63 298.932 163.428L228.746 98.3075Z" fill="#DD821F"/>
<path d="M312.589 131.811C313.154 108.148 291.918 88.4448 265.157 87.8037C238.396 87.1626 216.244 105.826 215.679 129.49C215.114 153.153 236.35 172.856 263.111 173.497C289.872 174.138 312.024 155.475 312.589 131.811Z" fill="#F9BF30"/>
<path d="M303.031 131.582C303.484 112.585 286.437 96.7671 264.955 96.2525C243.473 95.7379 225.691 110.721 225.237 129.718C224.784 148.716 241.831 164.533 263.313 165.048C284.795 165.563 302.577 150.58 303.031 131.582Z" fill="#F2B42A"/>
<path d="M303.032 131.605C303.032 130.812 303.032 130.02 303.032 129.258C301.243 147.128 284.037 160.875 263.459 160.384C242.882 159.892 226.372 145.337 225.47 127.403C225.39 128.164 225.327 128.989 225.311 129.734C224.868 148.761 241.9 164.617 263.301 165.061C284.702 165.505 302.589 150.632 303.032 131.605Z" fill="#FFD85A"/>
<path d="M271.611 133.556L263.697 126.151C256.004 127.895 241.694 131.161 230.25 133.857C231.827 138.248 234.324 142.25 237.573 145.595C240.822 148.94 244.748 151.549 249.087 153.249L271.611 133.556Z" fill="#FFD85A"/>
<path d="M259.059 155.865C260.341 156.025 261.63 156.12 262.921 156.15C271.741 156.449 280.38 153.6 287.298 148.111L274.271 136.029L259.059 155.865Z" fill="#FFD85A"/>
<path d="M255.07 118.207L240.048 104.269C234.983 108.693 230.472 113.561 229.253 120.125L255.07 118.207Z" fill="#FFD85A"/>
<path d="M262.937 100.369C284.417 100.892 301.449 116.7 300.927 135.696C300.835 139.459 300.052 143.174 298.616 146.653C301.329 142.088 302.822 136.9 302.953 131.589C303.412 112.562 286.364 96.706 264.884 96.262C247.757 95.8498 232.988 105.284 227.48 118.762C234.176 107.52 247.599 100.004 262.937 100.369Z" fill="#DD821F"/>
<path d="M213.819 119.761C213.482 123.03 213.626 126.332 214.247 129.56C215.371 125.929 217.792 115.051 217.792 115.051L221.607 106.41L224.773 103.762L230.218 99.7821L230.661 87.3351C225.621 91.1426 221.493 96.0297 218.579 101.64C215.665 107.25 214.039 113.441 213.819 119.761Z" fill="#DD821F"/>
<path d="M311.96 118.476L312.181 115.924C312.179 115.84 312.194 115.756 312.225 115.678C312.256 115.6 312.303 115.53 312.362 115.47C312.421 115.411 312.492 115.364 312.57 115.333C312.647 115.302 312.731 115.287 312.815 115.289H313.004C313.089 115.293 313.172 115.314 313.248 115.351C313.325 115.388 313.393 115.439 313.449 115.503C313.505 115.566 313.548 115.641 313.575 115.721C313.602 115.802 313.612 115.887 313.606 115.971L313.416 118.524C313.416 118.692 313.349 118.853 313.231 118.972C313.112 119.091 312.951 119.158 312.783 119.158H312.577C312.492 119.154 312.408 119.133 312.331 119.097C312.254 119.06 312.185 119.009 312.127 118.946C312.07 118.882 312.026 118.808 311.997 118.728C311.968 118.647 311.955 118.562 311.96 118.476Z" fill="#DD821F"/>
<path d="M307.512 108.709L307.765 104.111C307.765 103.917 307.842 103.732 307.978 103.595C308.115 103.458 308.3 103.381 308.493 103.381H308.936C309.129 103.398 309.309 103.487 309.439 103.631C309.568 103.776 309.638 103.964 309.633 104.158L309.364 108.741C309.368 108.838 309.352 108.936 309.318 109.027C309.283 109.119 309.23 109.202 309.161 109.272C309.093 109.342 309.011 109.397 308.921 109.434C308.83 109.47 308.733 109.488 308.636 109.486H308.192C308.096 109.482 308.001 109.459 307.914 109.417C307.827 109.375 307.749 109.316 307.686 109.244C307.622 109.171 307.574 109.086 307.544 108.994C307.514 108.902 307.503 108.805 307.512 108.709Z" fill="#DD821F"/>
<path d="M301.338 100.179L301.592 95.723C301.592 95.5043 301.678 95.2946 301.833 95.1399C301.987 94.9853 302.196 94.8984 302.415 94.8984H303.19C303.299 94.9024 303.406 94.9283 303.505 94.9748C303.603 95.0212 303.692 95.0872 303.764 95.1686C303.836 95.2501 303.892 95.3455 303.926 95.4489C303.961 95.5523 303.975 95.6617 303.966 95.7705L303.713 100.21C303.715 100.32 303.695 100.429 303.655 100.531C303.614 100.632 303.554 100.725 303.477 100.804C303.401 100.882 303.309 100.944 303.208 100.986C303.107 101.029 302.999 101.051 302.89 101.051H302.114C302.006 101.045 301.9 101.017 301.802 100.97C301.705 100.923 301.618 100.857 301.545 100.776C301.473 100.695 301.418 100.6 301.382 100.498C301.347 100.395 301.332 100.287 301.338 100.179Z" fill="#DD821F"/>
<path d="M292.078 93.2811L292.363 87.8901C292.363 87.6714 292.45 87.4617 292.604 87.307C292.759 87.1524 292.968 87.0656 293.186 87.0656H293.962C294.07 87.0716 294.176 87.099 294.274 87.1462C294.371 87.1933 294.459 87.2593 294.531 87.3403C294.603 87.4213 294.658 87.5158 294.694 87.6183C294.729 87.7208 294.744 87.8293 294.738 87.9376L294.453 93.3287C294.455 93.4362 294.436 93.5431 294.396 93.643C294.356 93.743 294.297 93.834 294.222 93.9108C294.147 93.9876 294.057 94.0485 293.958 94.0902C293.859 94.1318 293.753 94.1532 293.645 94.1532H292.838C292.624 94.1331 292.426 94.0314 292.284 93.8691C292.143 93.7068 292.069 93.4963 292.078 93.2811Z" fill="#DD821F"/>
<path d="M282.787 88.7939L283.088 82.5784C283.085 82.4708 283.105 82.364 283.144 82.264C283.184 82.1641 283.243 82.0731 283.318 81.9963C283.393 81.9195 283.483 81.8585 283.582 81.8169C283.681 81.7753 283.787 81.7538 283.895 81.7538H284.67C284.89 81.7662 285.096 81.8645 285.244 82.0276C285.392 82.1907 285.471 82.4056 285.462 82.6259L285.161 88.7939C285.161 89.0126 285.074 89.2223 284.92 89.3769C284.766 89.5316 284.556 89.6184 284.338 89.6184H283.562C283.352 89.6063 283.155 89.5141 283.011 89.3608C282.867 89.2074 282.786 89.0046 282.787 88.7939Z" fill="#DD821F"/>
<path d="M273.432 86.0032L273.732 80.0413C273.73 79.9317 273.75 79.8228 273.791 79.7209C273.831 79.619 273.891 79.5263 273.968 79.448C274.045 79.3698 274.136 79.3076 274.237 79.2652C274.338 79.2227 274.446 79.2009 274.556 79.2009H275.331C275.439 79.207 275.545 79.2344 275.643 79.2815C275.74 79.3287 275.828 79.3947 275.9 79.4757C275.972 79.5567 276.027 79.6512 276.063 79.7537C276.098 79.8562 276.113 79.9647 276.107 80.073L275.806 86.0507C275.806 86.2694 275.719 86.4791 275.565 86.6337C275.411 86.7884 275.201 86.8752 274.983 86.8752H274.207C273.99 86.859 273.788 86.7589 273.644 86.5962C273.499 86.4335 273.423 86.2209 273.432 86.0032Z" fill="#DD821F"/>
<path d="M264.045 85.0677L264.346 78.9949C264.346 78.8866 264.367 78.7794 264.408 78.6793C264.45 78.5793 264.51 78.4884 264.587 78.4118C264.663 78.3353 264.754 78.2746 264.854 78.2331C264.954 78.1917 265.061 78.1703 265.169 78.1703H265.929C266.037 78.1764 266.143 78.2038 266.24 78.251C266.338 78.2981 266.425 78.3641 266.497 78.4451C266.569 78.5261 266.625 78.6206 266.66 78.7231C266.696 78.8256 266.711 78.9341 266.704 79.0424L266.404 85.0994C266.404 85.3196 266.317 85.531 266.163 85.6881C266.01 85.8453 265.8 85.9357 265.58 85.9398H264.805C264.589 85.9235 264.389 85.823 264.246 85.6598C264.104 85.4966 264.032 85.2839 264.045 85.0677Z" fill="#DD821F"/>
<path d="M254.627 85.258L254.912 79.5815C254.912 79.3629 254.998 79.1531 255.153 78.9985C255.307 78.8439 255.517 78.757 255.735 78.757H256.51C256.619 78.761 256.726 78.7869 256.825 78.8334C256.923 78.8798 257.012 78.9457 257.084 79.0272C257.157 79.1087 257.212 79.204 257.247 79.3075C257.281 79.4109 257.295 79.5203 257.286 79.6291L257.001 85.3056C257.001 85.5242 256.914 85.734 256.76 85.8886C256.606 86.0432 256.396 86.1301 256.178 86.1301H255.402C255.294 86.124 255.188 86.0966 255.091 86.0495C254.993 86.0023 254.906 85.9363 254.834 85.8553C254.762 85.7743 254.706 85.6798 254.671 85.5773C254.635 85.4748 254.62 85.3663 254.627 85.258Z" fill="#DD821F"/>
<path d="M245.177 87.3192L245.446 81.833C245.444 81.7234 245.464 81.6145 245.504 81.5126C245.544 81.4108 245.605 81.318 245.681 81.2397C245.758 81.1615 245.849 81.0993 245.95 81.0569C246.051 81.0145 246.16 80.9927 246.269 80.9927H247.045C247.153 80.9987 247.259 81.0261 247.356 81.0733C247.454 81.1204 247.541 81.1864 247.613 81.2674C247.685 81.3484 247.741 81.4429 247.776 81.5454C247.812 81.6479 247.827 81.7564 247.82 81.8648L247.551 87.3668C247.551 87.587 247.465 87.7984 247.311 87.9555C247.157 88.1127 246.948 88.203 246.728 88.2072H245.952C245.842 88.2034 245.734 88.177 245.634 88.1295C245.534 88.0821 245.445 88.0147 245.373 87.9315C245.3 87.8483 245.245 87.751 245.211 87.6457C245.178 87.5404 245.166 87.4293 245.177 87.3192Z" fill="#DD821F"/>
<path d="M235.648 91.965L235.948 86.019C235.946 85.9107 235.966 85.8031 236.005 85.7023C236.044 85.6014 236.103 85.5094 236.178 85.4313C236.253 85.3533 236.343 85.2908 236.442 85.2474C236.541 85.2041 236.648 85.1807 236.756 85.1786H237.531C237.751 85.191 237.957 85.2893 238.105 85.4524C238.253 85.6156 238.331 85.8304 238.323 86.0507L238.022 91.965C238.022 92.1852 237.936 92.3966 237.782 92.5537C237.628 92.7109 237.419 92.8013 237.199 92.8054H236.423C236.317 92.8013 236.213 92.7763 236.117 92.7319C236.02 92.6874 235.934 92.6244 235.861 92.5463C235.789 92.4683 235.733 92.3767 235.697 92.277C235.66 92.1773 235.643 92.0713 235.648 91.965Z" fill="#DD821F"/>
<path opacity="0.5" d="M109.585 288.58C112.466 296.841 93.0117 311.175 66.1181 320.609C39.2245 330.044 15.0851 330.932 12.2042 322.671C9.32332 314.41 28.7773 300.06 55.6709 290.641C82.5645 281.223 106.688 280.271 109.585 288.58Z" fill="#0F054C"/>
<path d="M41.488 258.469L41.8363 249.971L43.7991 244.992L45.0654 249.114L41.488 258.469Z" fill="#DD821F"/>
<path d="M130.542 260.039L130.875 251.699C130.875 251.699 123.847 258.739 123.831 258.913C123.815 259.088 130.542 260.039 130.542 260.039Z" fill="#FFD85A"/>
<path d="M85.4771 284.822C60.8946 284.236 41.3773 271.709 41.8996 249.939C42.422 228.169 62.7624 211.044 87.3608 211.631C111.959 212.217 131.382 230.357 130.875 252.111C130.368 273.866 109.996 285.409 85.4771 284.822Z" fill="#FFD85A"/>
<path d="M130.284 259.383C130.719 237.631 111.135 219.597 86.5434 219.105C61.9516 218.612 41.6641 235.846 41.2297 257.599C40.7954 279.351 60.3789 297.385 84.9706 297.877C109.562 298.37 129.85 281.136 130.284 259.383Z" fill="#FFD85A"/>
<path d="M54.9428 231.165C50.9007 234.501 47.6123 238.658 45.2954 243.363C42.9786 248.067 41.6862 253.211 41.5039 258.454C40.9815 280.192 60.4988 298.3 85.0814 298.887C96.5016 299.269 107.678 295.52 116.565 288.326L54.9428 231.165Z" fill="#DD821F"/>
<path d="M128.306 259.343C128.72 238.563 110.007 221.335 86.5082 220.865C63.0093 220.394 43.6233 236.858 43.2084 257.639C42.7935 278.419 61.5068 295.647 85.0057 296.117C108.505 296.588 127.891 280.124 128.306 259.343Z" fill="#F9BF30"/>
<path d="M120.168 260.348C120.567 243.671 105.6 229.785 86.74 229.333C67.8798 228.881 52.2678 242.035 51.8696 258.712C51.4715 275.389 66.4379 289.275 85.2981 289.727C104.158 290.179 119.77 277.026 120.168 260.348Z" fill="#F2B42A"/>
<path d="M120.159 260.356C120.159 259.659 120.159 258.977 120.159 258.295C118.576 273.977 103.506 286.059 85.4296 285.615C67.3527 285.171 52.8533 272.407 52.046 256.662C51.9721 257.349 51.9247 258.031 51.9035 258.707C51.5078 275.388 66.4663 289.278 85.3346 289.722C104.203 290.166 119.763 277.021 120.159 260.356Z" fill="#FFD85A"/>
<path d="M92.5685 262.085L85.5721 255.584C78.8131 257.169 66.2448 259.976 56.2091 262.338C57.5967 266.203 59.7975 269.724 62.6624 272.662C65.5273 275.6 68.9893 277.887 72.8138 279.368L92.5685 262.085Z" fill="#FFD85A"/>
<path d="M81.5515 281.667C82.6757 281.808 83.8063 281.893 84.9389 281.921C92.6817 282.182 100.266 279.682 106.34 274.865L94.9746 264.257L81.5515 281.667Z" fill="#FFD85A"/>
<path d="M78.0533 248.607L64.8993 236.366C60.4672 240.251 56.5099 244.532 55.4019 250.256L78.0533 248.607Z" fill="#FFD85A"/>
<path d="M84.9547 232.941C103.807 233.401 118.718 247.354 118.37 263.956C118.292 267.261 117.605 270.524 116.344 273.58C118.732 269.575 120.046 265.02 120.159 260.356C120.554 243.676 105.596 229.786 86.7434 229.342C71.7058 228.977 58.7418 237.27 53.8981 249.099C59.7073 239.236 71.5 232.624 84.9547 232.941Z" fill="#DD821F"/>
<path d="M41.8363 249.971C41.539 252.838 41.6671 255.734 42.2162 258.565C43.1976 255.393 45.382 245.88 45.382 245.88L48.7695 238.301L51.6029 235.97L56.3516 232.481L56.7473 221.541C52.3063 224.869 48.663 229.149 46.0833 234.067C43.5037 238.986 42.0527 244.419 41.8363 249.971Z" fill="#DD821F"/>
<path d="M127.994 248.845L128.184 246.609C128.184 246.46 128.242 246.318 128.345 246.211C128.449 246.104 128.59 246.042 128.738 246.038H128.912C129.062 246.05 129.201 246.12 129.301 246.232C129.401 246.344 129.455 246.49 129.45 246.641L129.26 248.94C129.263 249.016 129.249 249.091 129.221 249.161C129.194 249.231 129.152 249.295 129.098 249.348C129.045 249.402 128.981 249.444 128.911 249.472C128.841 249.5 128.766 249.513 128.69 249.511H128.532C128.452 249.505 128.374 249.483 128.303 249.446C128.232 249.409 128.169 249.357 128.119 249.295C128.068 249.232 128.031 249.16 128.01 249.083C127.988 249.005 127.983 248.924 127.994 248.845Z" fill="#DD821F"/>
<path d="M124.084 240.267L124.322 236.239C124.32 236.155 124.334 236.07 124.365 235.992C124.396 235.913 124.442 235.841 124.501 235.78C124.56 235.72 124.631 235.672 124.709 235.639C124.787 235.606 124.87 235.589 124.955 235.589H125.351C125.518 235.605 125.674 235.684 125.786 235.811C125.897 235.938 125.957 236.102 125.952 236.271L125.715 240.298C125.717 240.383 125.702 240.467 125.671 240.546C125.64 240.625 125.594 240.697 125.535 240.757C125.476 240.818 125.405 240.866 125.328 240.899C125.25 240.932 125.166 240.948 125.081 240.948H124.686C124.518 240.932 124.362 240.853 124.251 240.726C124.139 240.6 124.079 240.436 124.084 240.267Z" fill="#DD821F"/>
<path d="M118.718 232.783L118.94 228.866C118.94 228.675 119.014 228.492 119.147 228.356C119.281 228.22 119.462 228.141 119.652 228.137H120.301C120.493 228.149 120.672 228.235 120.802 228.377C120.932 228.519 121.002 228.706 120.998 228.898L120.76 232.814C120.76 233.005 120.686 233.188 120.552 233.325C120.419 233.461 120.238 233.54 120.048 233.544H119.351C119.168 233.524 118.999 233.433 118.881 233.291C118.763 233.149 118.705 232.967 118.718 232.783Z" fill="#DD821F"/>
<path d="M110.55 226.742L110.788 221.985C110.788 221.791 110.864 221.606 111.001 221.469C111.138 221.332 111.323 221.255 111.516 221.255H112.197C112.292 221.259 112.385 221.282 112.471 221.323C112.557 221.364 112.634 221.421 112.697 221.492C112.761 221.563 112.809 221.646 112.84 221.736C112.871 221.826 112.884 221.921 112.877 222.016L112.624 226.773C112.626 226.868 112.609 226.963 112.574 227.051C112.539 227.14 112.487 227.22 112.421 227.288C112.355 227.356 112.275 227.41 112.188 227.447C112.1 227.484 112.007 227.503 111.912 227.503H111.231C111.136 227.499 111.043 227.476 110.957 227.435C110.871 227.394 110.794 227.337 110.73 227.266C110.667 227.195 110.618 227.112 110.587 227.022C110.557 226.932 110.544 226.837 110.55 226.742Z" fill="#DD821F"/>
<path d="M102.383 222.762L102.636 217.307C102.636 217.211 102.655 217.117 102.691 217.028C102.728 216.94 102.782 216.859 102.849 216.791C102.917 216.724 102.997 216.67 103.085 216.633C103.174 216.597 103.268 216.578 103.364 216.578H104.045C104.14 216.582 104.233 216.605 104.319 216.645C104.405 216.686 104.482 216.744 104.545 216.815C104.609 216.885 104.657 216.968 104.688 217.058C104.719 217.148 104.732 217.244 104.725 217.339L104.472 222.809C104.474 222.904 104.457 222.999 104.422 223.087C104.388 223.176 104.335 223.256 104.269 223.324C104.203 223.392 104.123 223.446 104.036 223.483C103.949 223.52 103.855 223.539 103.76 223.539H103.079C102.981 223.537 102.885 223.515 102.796 223.474C102.707 223.433 102.627 223.375 102.562 223.302C102.497 223.229 102.447 223.143 102.416 223.05C102.385 222.958 102.374 222.859 102.383 222.762Z" fill="#DD821F"/>
<path d="M94.1672 220.399L94.4363 215.151C94.4363 214.96 94.5108 214.777 94.644 214.64C94.7771 214.504 94.9583 214.425 95.1486 214.421H95.8293C95.925 214.427 96.0185 214.452 96.1046 214.495C96.1906 214.537 96.2675 214.596 96.3307 214.668C96.394 214.74 96.4423 214.824 96.4731 214.915C96.5039 215.006 96.5164 215.102 96.5099 215.198L96.2567 220.431C96.2567 220.622 96.1822 220.805 96.049 220.941C95.9159 221.077 95.7347 221.156 95.5444 221.16H94.8637C94.7681 221.156 94.6741 221.133 94.5873 221.093C94.5006 221.052 94.4226 220.995 94.3579 220.924C94.2932 220.854 94.2431 220.771 94.2103 220.681C94.1776 220.591 94.163 220.495 94.1672 220.399Z" fill="#DD821F"/>
<path d="M85.9362 219.511L86.1895 214.183C86.1935 213.991 86.2715 213.808 86.4072 213.672C86.5429 213.536 86.7258 213.458 86.9176 213.454H87.5982C87.7872 213.47 87.9628 213.558 88.0893 213.699C88.2158 213.841 88.2836 214.025 88.2789 214.215L88.0098 219.543C88.0119 219.638 87.995 219.732 87.9602 219.821C87.9253 219.909 87.8732 219.99 87.8069 220.058C87.7405 220.126 87.6613 220.18 87.5738 220.216C87.4863 220.253 87.3924 220.272 87.2975 220.272H86.6168C86.5219 220.268 86.4286 220.245 86.3427 220.205C86.2567 220.164 86.1798 220.106 86.1163 220.035C86.0529 219.964 86.0043 219.882 85.9733 219.792C85.9424 219.701 85.9298 219.606 85.9362 219.511Z" fill="#DD821F"/>
<path d="M77.6575 219.685L77.9107 214.691C77.9148 214.499 77.9928 214.315 78.1285 214.18C78.2641 214.044 78.447 213.965 78.6389 213.961H79.3195C79.5113 213.978 79.6893 214.068 79.8162 214.212C79.9431 214.357 80.009 214.546 80.0002 214.738L79.7469 219.717C79.7469 219.908 79.6724 220.091 79.5393 220.227C79.4061 220.364 79.2249 220.442 79.0346 220.447H78.3539C78.2583 220.443 78.1644 220.42 78.0776 220.379C77.9908 220.339 77.9128 220.281 77.8481 220.211C77.7834 220.14 77.7333 220.057 77.7006 219.967C77.6679 219.877 77.6532 219.781 77.6575 219.685Z" fill="#DD821F"/>
<path d="M69.3631 221.493L69.6005 216.736C69.6005 216.543 69.6773 216.357 69.8138 216.221C69.9504 216.084 70.1356 216.007 70.3287 216.007H71.0093C71.1043 216.011 71.1975 216.034 71.2835 216.075C71.3695 216.115 71.4464 216.173 71.5098 216.244C71.5733 216.315 71.6219 216.398 71.6528 216.488C71.6838 216.578 71.6964 216.673 71.69 216.768L71.4367 221.525C71.4369 221.717 71.3629 221.902 71.2301 222.041C71.0974 222.18 70.9162 222.262 70.7244 222.27H70.0437C69.9481 222.264 69.8545 222.239 69.7684 222.197C69.6824 222.154 69.6055 222.095 69.5423 222.023C69.4791 221.951 69.4307 221.867 69.3999 221.776C69.3692 221.685 69.3567 221.589 69.3631 221.493Z" fill="#DD821F"/>
<path d="M61.0053 225.568L61.2586 220.336C61.2585 220.145 61.3331 219.962 61.4662 219.825C61.5994 219.689 61.7805 219.61 61.9709 219.606H62.6515C62.7473 219.614 62.8405 219.641 62.9258 219.685C63.0112 219.73 63.0869 219.79 63.1487 219.864C63.2105 219.938 63.2572 220.023 63.2859 220.115C63.3147 220.207 63.325 220.303 63.3164 220.399L63.0473 225.632C63.0473 225.822 62.9728 226.005 62.8396 226.142C62.7065 226.278 62.5253 226.357 62.3349 226.361H61.7334C61.6315 226.364 61.5302 226.345 61.4362 226.305C61.3423 226.265 61.258 226.206 61.189 226.131C61.1199 226.056 61.0678 225.967 61.0361 225.869C61.0044 225.772 60.9939 225.67 61.0053 225.568Z" fill="#DD821F"/>
</g>
<defs>
<linearGradient id="paint0_linear" x1="225.384" y1="303.628" x2="408.608" y2="307.218" gradientUnits="userSpaceOnUse">
<stop stop-color="#5761D7"/>
<stop offset="0.04" stop-color="#5C66D9"/>
<stop offset="0.09" stop-color="#6A73DF"/>
<stop offset="0.14" stop-color="#8289E8"/>
<stop offset="0.19" stop-color="#A3A7F5"/>
<stop offset="0.22" stop-color="#BCBEFF"/>
</linearGradient>
<linearGradient id="paint1_linear" x1="279.823" y1="208.673" x2="350.322" y2="318.144" gradientUnits="userSpaceOnUse">
<stop stop-color="#C0BFF6"/>
<stop offset="0.29" stop-color="#C5C4F7"/>
<stop offset="0.64" stop-color="#D3D2F9"/>
<stop offset="1" stop-color="#E9E9FD"/>
</linearGradient>
<linearGradient id="paint2_linear" x1="112.27" y1="11.1798" x2="303.754" y2="337.173" gradientUnits="userSpaceOnUse">
<stop stop-color="#C0BFF6"/>
<stop offset="0.12" stop-color="#D0CFF9"/>
<stop offset="0.26" stop-color="#E9E9FD"/>
<stop offset="0.51" stop-color="#C0BFF6"/>
<stop offset="0.62" stop-color="#D0CFF9"/>
<stop offset="0.75" stop-color="#E9E9FD"/>
<stop offset="1" stop-color="#C0BFF6"/>
</linearGradient>
<clipPath id="clip0">
<rect width="429" height="356" fill="white"/>
</clipPath>
</defs>
</svg>
