<svg width="476" height="404" viewBox="0 0 476 404" fill="none" xmlns="http://www.w3.org/2000/svg">
<path d="M226.002 325.448C228.168 325.448 229.925 323.692 229.925 321.525C229.925 319.358 228.168 317.601 226.002 317.601C223.835 317.601 222.078 319.358 222.078 321.525C222.078 323.692 223.835 325.448 226.002 325.448Z" fill="url(#paint0_linear)"/>
<path d="M300.624 7.84717C302.791 7.84717 304.548 6.09051 304.548 3.92358C304.548 1.75664 302.791 0 300.624 0C298.458 0 296.701 1.75664 296.701 3.92358C296.701 6.09051 298.458 7.84717 300.624 7.84717Z" fill="url(#paint1_linear)"/>
<path d="M5.54972 229.567C5.54972 230.116 5.38696 230.652 5.08206 231.108C4.77715 231.565 4.34377 231.92 3.83673 232.13C3.32969 232.34 2.77178 232.395 2.23352 232.288C1.69525 232.181 1.2008 231.917 0.812728 231.529C0.424657 231.141 0.160391 230.646 0.053323 230.108C-0.0537453 229.57 0.00119153 229.012 0.211214 228.505C0.421236 227.998 0.776901 227.565 1.23322 227.26C1.68955 226.955 2.22607 226.792 2.77489 226.792C3.13929 226.792 3.50007 226.864 3.83673 227.003C4.17339 227.143 4.47933 227.347 4.737 227.605C4.99467 227.862 5.19907 228.168 5.33851 228.505C5.47796 228.842 5.54972 229.202 5.54972 229.567Z" fill="url(#paint2_linear)"/>
<path d="M396.044 74.6076C394.993 74.6106 393.964 74.3016 393.089 73.7198C392.214 73.138 391.531 72.3096 391.126 71.3394C390.722 70.3692 390.615 69.3009 390.818 68.2696C391.021 67.2384 391.526 66.2907 392.268 65.5464C393.01 64.8022 393.956 64.2949 394.987 64.0887C396.018 63.8826 397.086 63.9869 398.058 64.3884C399.029 64.79 399.859 65.4707 400.444 66.3444C401.028 67.2181 401.34 68.2455 401.34 69.2966C401.34 70.7026 400.782 72.0512 399.789 73.0468C398.797 74.0424 397.45 74.6037 396.044 74.6076ZM396.044 65.9548C395.378 65.9519 394.727 66.1466 394.173 66.5143C393.619 66.882 393.186 67.4061 392.93 68.0201C392.675 68.634 392.607 69.3102 392.736 69.9627C392.865 70.6152 393.185 71.2147 393.655 71.685C394.126 72.1553 394.725 72.4753 395.378 72.6044C396.03 72.7334 396.706 72.6657 397.32 72.4098C397.934 72.1539 398.458 71.7213 398.826 71.167C399.194 70.6128 399.388 69.9617 399.385 69.2966C399.381 68.4115 399.028 67.5638 398.402 66.9379C397.776 66.3121 396.929 65.9588 396.044 65.9548Z" fill="white"/>
<path d="M459.328 250.647C458.277 250.647 457.251 250.335 456.377 249.751C455.504 249.168 454.823 248.338 454.421 247.368C454.019 246.398 453.914 245.33 454.119 244.299C454.324 243.269 454.83 242.323 455.572 241.58C456.315 240.837 457.262 240.332 458.292 240.127C459.322 239.922 460.39 240.027 461.36 240.429C462.331 240.831 463.16 241.512 463.744 242.385C464.327 243.258 464.639 244.285 464.639 245.336C464.635 246.743 464.074 248.091 463.079 249.087C462.084 250.082 460.735 250.643 459.328 250.647ZM459.328 241.979C458.664 241.979 458.015 242.176 457.463 242.545C456.911 242.913 456.481 243.438 456.227 244.051C455.973 244.664 455.906 245.339 456.036 245.99C456.165 246.642 456.485 247.24 456.954 247.709C457.424 248.179 458.022 248.498 458.673 248.628C459.324 248.757 459.999 248.691 460.613 248.437C461.226 248.183 461.75 247.752 462.119 247.2C462.488 246.648 462.685 245.999 462.685 245.336C462.681 244.448 462.325 243.598 461.696 242.972C461.067 242.345 460.216 241.994 459.328 241.994V241.979Z" fill="white"/>
<path d="M263.268 387.39C262.218 387.39 261.191 387.079 260.318 386.495C259.444 385.912 258.764 385.082 258.362 384.112C257.96 383.141 257.854 382.073 258.059 381.043C258.264 380.013 258.77 379.067 259.513 378.324C260.256 377.581 261.202 377.075 262.232 376.87C263.262 376.665 264.33 376.771 265.301 377.173C266.271 377.575 267.101 378.255 267.684 379.129C268.268 380.002 268.579 381.029 268.579 382.079C268.575 383.487 268.015 384.835 267.019 385.83C266.024 386.826 264.676 387.386 263.268 387.39ZM263.268 378.723C262.604 378.723 261.955 378.92 261.403 379.288C260.851 379.657 260.421 380.181 260.167 380.795C259.913 381.408 259.847 382.083 259.976 382.734C260.106 383.385 260.425 383.983 260.895 384.453C261.364 384.922 261.962 385.242 262.613 385.372C263.265 385.501 263.939 385.435 264.553 385.18C265.166 384.926 265.69 384.496 266.059 383.944C266.428 383.392 266.625 382.743 266.625 382.079C266.627 381.638 266.541 381.201 266.373 380.792C266.205 380.384 265.958 380.013 265.646 379.701C265.334 379.389 264.963 379.142 264.555 378.974C264.147 378.806 263.71 378.721 263.268 378.723Z" fill="white"/>
<path d="M32.5375 369.548C31.4871 369.548 30.4603 369.236 29.5869 368.652C28.7135 368.069 28.0327 367.239 27.6308 366.269C27.2288 365.299 27.1236 364.231 27.3286 363.2C27.5335 362.17 28.0393 361.224 28.782 360.481C29.5248 359.738 30.4711 359.233 31.5014 359.028C32.5316 358.823 33.5995 358.928 34.5699 359.33C35.5404 359.732 36.3698 360.413 36.9534 361.286C37.537 362.159 37.8485 363.186 37.8485 364.237C37.8485 365.645 37.289 366.996 36.2929 367.992C35.2969 368.988 33.9461 369.548 32.5375 369.548ZM32.5375 360.88C31.8736 360.88 31.2246 361.077 30.6726 361.446C30.1206 361.814 29.6904 362.339 29.4363 362.952C29.1823 363.565 29.1158 364.24 29.2453 364.891C29.3748 365.543 29.6945 366.141 30.164 366.61C30.6334 367.08 31.2315 367.399 31.8827 367.529C32.5338 367.658 33.2087 367.592 33.8221 367.338C34.4354 367.084 34.9596 366.653 35.3285 366.101C35.6973 365.549 35.8942 364.9 35.8942 364.237C35.8961 363.795 35.8107 363.358 35.6427 362.95C35.4747 362.542 35.2275 362.171 34.9154 361.859C34.6033 361.547 34.2325 361.299 33.8244 361.131C33.4162 360.963 32.9788 360.878 32.5375 360.88Z" fill="white"/>
<path d="M457.567 30.3293C437.726 54.7211 426.955 89.4217 426.403 130.716C426.074 155.377 429.103 180.306 432.042 204.399C433.34 215.155 434.697 226.27 435.727 237.22C438.591 267.52 440.202 306.875 426.656 342.739C418.988 363.103 406.382 382.84 388.122 403.085H388.778C406.919 382.915 419.466 363.222 427.119 342.918C440.65 306.964 439.054 267.52 436.219 237.175C435.175 226.225 433.832 215.111 432.519 204.354C429.536 180.276 426.552 155.362 426.895 130.731C427.432 89.556 438.173 54.9598 457.94 30.6575C463.09 24.3597 468.997 18.7224 475.53 13.8741V13.2773C468.848 18.1826 462.813 23.9119 457.567 30.3293Z" fill="url(#paint3_linear)"/>
<path d="M462.267 182.932C444.78 194.82 430.544 210.892 420.853 229.686C413.782 243.59 409.321 258.837 404.995 273.577C403.026 280.275 400.997 287.197 398.759 293.896C389.644 321.063 378.141 338.845 362.492 349.811C337.264 367.489 304.757 365.177 273.309 362.924C265.775 362.387 258.002 361.82 250.528 361.566C197.808 360.012 145.858 374.5 101.551 403.115H102.461C146.547 374.828 198.156 360.532 250.513 362.104C257.972 362.357 265.745 362.909 273.264 363.446C304.802 365.714 337.414 368.041 362.775 350.258C378.514 339.233 390.091 321.391 399.236 294.105C401.489 287.376 403.518 280.454 405.472 273.756C409.799 259.031 414.259 243.814 421.301 229.955C430.947 211.229 445.128 195.217 462.551 183.379C466.731 180.521 471.069 177.901 475.545 175.532V174.98C470.966 177.366 466.532 180.021 462.267 182.932Z" fill="#5B24B2"/>
<defs>
<linearGradient id="paint0_linear" x1="3826.89" y1="2666.34" x2="3868.25" y2="2666.34" gradientUnits="userSpaceOnUse">
<stop stop-color="#FFA35A"/>
<stop offset="1" stop-color="#FF2574"/>
</linearGradient>
<linearGradient id="paint1_linear" x1="4294.11" y1="678.152" x2="4335.46" y2="678.152" gradientUnits="userSpaceOnUse">
<stop stop-color="#FFA35A"/>
<stop offset="1" stop-color="#FF2574"/>
</linearGradient>
<linearGradient id="paint2_linear" x1="1723.35" y1="1545.79" x2="1744" y2="1545.79" gradientUnits="userSpaceOnUse">
<stop stop-color="#FFA35A"/>
<stop offset="1" stop-color="#FF2574"/>
</linearGradient>
<linearGradient id="paint3_linear" x1="50270.9" y1="87065" x2="55392.2" y2="87065" gradientUnits="userSpaceOnUse">
<stop stop-color="#FF2574"/>
<stop offset="1" stop-color="#FFA35A"/>
</linearGradient>
</defs>
</svg>
