<svg width="109" height="381" viewBox="0 0 109 381" fill="none" xmlns="http://www.w3.org/2000/svg">
<mask id="mask0" mask-type="alpha" maskUnits="userSpaceOnUse" x="0" y="0" width="109" height="381">
<rect width="109" height="381" fill="#C4C4C4"/>
</mask>
<g mask="url(#mask0)">
<mask id="path-2-inside-1" fill="white">
<path d="M99.3126 57.5549C98.4678 58.8537 97.2568 59.8729 95.8328 60.4835C94.4087 61.0941 92.8356 61.2687 91.3124 60.9852C89.7891 60.7018 88.3841 59.973 87.275 58.891C86.166 57.809 85.4027 56.4225 85.0816 54.9067C84.7606 53.391 84.8962 51.814 85.4714 50.3753C86.0466 48.9366 87.0354 47.7008 88.313 46.8241C89.5905 45.9475 91.0994 45.4693 92.6486 45.4501C94.1979 45.431 95.7181 45.8717 97.0169 46.7165C98.754 47.8532 99.9704 49.6312 100.401 51.6621C100.831 53.693 100.44 55.8115 99.3126 57.5549ZM88.595 50.5839C88.0611 51.4048 87.7826 52.3655 87.7947 53.3447C87.8068 54.3239 88.109 55.2775 88.6631 56.085C89.2172 56.8924 89.9982 57.5174 90.9075 57.8809C91.8168 58.2444 92.8135 58.3302 93.7715 58.1272C94.7295 57.9243 95.6058 57.4419 96.2896 56.7409C96.9735 56.04 97.4341 55.152 97.6132 54.1893C97.7924 53.2265 97.682 52.2323 97.2961 51.3323C96.9102 50.4323 96.2661 49.6669 95.4452 49.133C94.3444 48.417 93.0042 48.1676 91.7196 48.4397C90.435 48.7118 89.311 49.4831 88.595 50.5839Z"/>
</mask>
<path d="M99.3126 57.5549C98.4678 58.8537 97.2568 59.8729 95.8328 60.4835C94.4087 61.0941 92.8356 61.2687 91.3124 60.9852C89.7891 60.7018 88.3841 59.973 87.275 58.891C86.166 57.809 85.4027 56.4225 85.0816 54.9067C84.7606 53.391 84.8962 51.814 85.4714 50.3753C86.0466 48.9366 87.0354 47.7008 88.313 46.8241C89.5905 45.9475 91.0994 45.4693 92.6486 45.4501C94.1979 45.431 95.7181 45.8717 97.0169 46.7165C98.754 47.8532 99.9704 49.6312 100.401 51.6621C100.831 53.693 100.44 55.8115 99.3126 57.5549ZM88.595 50.5839C88.0611 51.4048 87.7826 52.3655 87.7947 53.3447C87.8068 54.3239 88.109 55.2775 88.6631 56.085C89.2172 56.8924 89.9982 57.5174 90.9075 57.8809C91.8168 58.2444 92.8135 58.3302 93.7715 58.1272C94.7295 57.9243 95.6058 57.4419 96.2896 56.7409C96.9735 56.04 97.4341 55.152 97.6132 54.1893C97.7924 53.2265 97.682 52.2323 97.2961 51.3323C96.9102 50.4323 96.2661 49.6669 95.4452 49.133C94.3444 48.417 93.0042 48.1676 91.7196 48.4397C90.435 48.7118 89.311 49.4831 88.595 50.5839Z" fill="white"/>
<path d="M97.0169 46.7165L98.6695 44.1912L98.6624 44.1866L97.0169 46.7165ZM96.7828 55.9094C96.2634 56.7079 95.5189 57.3344 94.6435 57.7098L97.022 63.2571C98.9946 62.4113 100.672 60.9995 101.842 59.2004L96.7828 55.9094ZM94.6435 57.7098C93.768 58.0852 92.8009 58.1925 91.8645 58.0183L90.7603 63.9522C92.8704 64.3448 95.0495 64.1029 97.022 63.2571L94.6435 57.7098ZM91.8645 58.0183C90.928 57.844 90.0643 57.396 89.3824 56.7308L85.1677 61.0512C86.7039 62.5499 88.6502 63.5595 90.7603 63.9522L91.8645 58.0183ZM89.3824 56.7308C88.7006 56.0656 88.2314 55.2133 88.034 54.2814L82.1292 55.5321C82.574 57.6318 83.6314 59.5524 85.1677 61.0512L89.3824 56.7308ZM88.034 54.2814C87.8366 53.3496 87.92 52.3801 88.2736 51.4956L82.6692 49.255C81.8724 51.2479 81.6845 53.4324 82.1292 55.5321L88.034 54.2814ZM88.2736 51.4956C88.6272 50.6112 89.2351 49.8514 90.0205 49.3125L86.6054 44.3358C84.8357 45.5502 83.4659 47.2621 82.6692 49.255L88.2736 51.4956ZM90.0205 49.3125C90.8059 48.7735 91.7335 48.4795 92.686 48.4678L92.6113 42.4325C90.4652 42.459 88.3751 43.1214 86.6054 44.3358L90.0205 49.3125ZM92.686 48.4678C93.6384 48.456 94.573 48.7269 95.3715 49.2463L98.6624 44.1866C96.8632 43.0164 94.7575 42.4059 92.6113 42.4325L92.686 48.4678ZM95.3644 49.2417C96.4341 49.9417 97.1833 51.0367 97.4482 52.2874L103.353 51.0368C102.758 48.2257 101.074 45.7647 98.6695 44.1913L95.3644 49.2417ZM97.4482 52.2874C97.7131 53.5381 97.4722 54.8428 96.7782 55.9165L101.847 59.1933C103.407 56.7802 103.948 53.8478 103.353 51.0368L97.4482 52.2874ZM86.0652 48.9384C85.2058 50.2596 84.7576 51.806 84.777 53.382L90.8123 53.3074C90.8076 52.925 90.9164 52.5499 91.1248 52.2293L86.0652 48.9384ZM84.777 53.382C84.7965 54.958 85.2829 56.4929 86.1747 57.7925L91.1514 54.3774C90.9351 54.0621 90.8171 53.6898 90.8123 53.3074L84.777 53.382ZM86.1747 57.7925C87.0665 59.0921 88.3237 60.098 89.7872 60.6831L92.0278 55.0787C91.6728 54.9367 91.3678 54.6927 91.1514 54.3774L86.1747 57.7925ZM89.7872 60.6831C91.2507 61.2683 92.8549 61.4062 94.3968 61.0796L93.1461 55.1749C92.772 55.2541 92.3828 55.2206 92.0278 55.0787L89.7872 60.6831ZM94.3968 61.0796C95.9387 60.753 97.3492 59.9766 98.4498 58.8483L94.1294 54.6335C93.8624 54.9073 93.5202 55.0956 93.1461 55.1749L94.3968 61.0796ZM98.4498 58.8483C99.5505 57.7201 100.292 56.2909 100.58 54.7414L94.6463 53.6372C94.5763 54.0131 94.3965 54.3598 94.1294 54.6335L98.4498 58.8483ZM100.58 54.7414C100.868 53.1918 100.691 51.5916 100.07 50.143L94.5224 52.5216C94.6731 52.873 94.7162 53.2612 94.6463 53.6372L100.58 54.7414ZM100.07 50.143C99.4486 48.6944 98.4119 47.4625 97.0906 46.6032L93.7997 51.6628C94.1202 51.8713 94.3717 52.1701 94.5224 52.5216L100.07 50.143ZM97.0906 46.6032C95.3189 45.4508 93.1619 45.0494 91.0943 45.4873L92.3449 51.3921C92.8466 51.2858 93.3699 51.3832 93.7997 51.6628L97.0906 46.6032ZM91.0943 45.4873C89.0266 45.9253 87.2176 47.1667 86.0652 48.9384L91.1248 52.2293C91.4044 51.7995 91.8433 51.4983 92.3449 51.3921L91.0943 45.4873Z" fill="url(#paint0_linear)" mask="url(#path-2-inside-1)"/>
<mask id="path-4-inside-2" fill="white">
<path d="M-33.8144 67.1745C-20.7322 77.1295 -8.91799 88.6488 1.36463 101.475C24.4778 130.813 39.2771 165.826 44.2125 202.847C49.6507 239.787 45.0607 277.51 30.9228 312.069C21.414 334.76 7.77459 355.972 -5.40331 376.434C-18.5812 396.896 -32.3008 418.029 -41.8198 440.898C-62.5279 490.614 -61.3812 548.219 -41.8676 598.371L-40.8346 599.043C-60.6784 548.834 -61.9312 491.028 -41.188 441.177C-31.6792 418.486 -18.0167 397.158 -4.78436 376.653C8.44798 356.147 22.0514 334.991 31.5953 312.165C45.8164 277.526 50.4724 239.702 45.0769 202.648C40.0551 165.546 25.1615 130.474 1.95239 101.096C-8.3841 88.2202 -20.2606 76.6604 -33.4111 66.6755L-33.8144 67.1745Z"/>
</mask>
<path d="M-33.8144 67.1745C-20.7322 77.1295 -8.91799 88.6488 1.36463 101.475C24.4778 130.813 39.2771 165.826 44.2125 202.847C49.6507 239.787 45.0607 277.51 30.9228 312.069C21.414 334.76 7.77459 355.972 -5.40331 376.434C-18.5812 396.896 -32.3008 418.029 -41.8198 440.898C-62.5279 490.614 -61.3812 548.219 -41.8676 598.371L-40.8346 599.043C-60.6784 548.834 -61.9312 491.028 -41.188 441.177C-31.6792 418.486 -18.0167 397.158 -4.78436 376.653C8.44798 356.147 22.0514 334.991 31.5953 312.165C45.8164 277.526 50.4724 239.702 45.0769 202.648C40.0551 165.546 25.1615 130.474 1.95239 101.096C-8.3841 88.2202 -20.2606 76.6604 -33.4111 66.6755L-33.8144 67.1745Z" fill="#5B24B2"/>
<path d="M-33.8144 67.1745L-36.1614 65.2774L-38.1149 67.6942L-35.6419 69.576L-33.8144 67.1745ZM1.36463 101.475L3.7352 99.6075L3.72726 99.5974L3.71926 99.5874L1.36463 101.475ZM44.2125 202.847L41.2211 203.246L41.2238 203.266L41.2268 203.286L44.2125 202.847ZM30.9228 312.069L33.7061 313.235L33.7111 313.223L33.716 313.212L30.9228 312.069ZM-41.8198 440.898L-39.034 442.058L-39.0337 442.057L-41.8198 440.898ZM-41.8676 598.371L-44.6801 599.466L-44.3277 600.371L-43.5131 600.901L-41.8676 598.371ZM-40.8346 599.043L-42.4801 601.573L-34.5516 606.73L-38.0279 597.934L-40.8346 599.043ZM-41.188 441.177L-43.9714 440.011L-43.9743 440.018L-41.188 441.177ZM31.5953 312.165L34.3796 313.329L34.3833 313.32L34.387 313.311L31.5953 312.165ZM45.0769 202.648L42.0863 203.053L42.0884 203.068L42.0906 203.083L45.0769 202.648ZM1.95239 101.096L4.32044 99.2253L4.31313 99.2161L4.30576 99.2069L1.95239 101.096ZM-33.4111 66.6755L-31.5861 64.2719L-33.9178 62.5016L-35.7582 64.7784L-33.4111 66.6755ZM-35.6419 69.576C-22.7558 79.382 -11.1186 90.7286 -0.990008 103.363L3.71926 99.5874C-6.71743 86.5689 -18.7087 74.8771 -31.9869 64.7729L-35.6419 69.576ZM-1.00595 103.343C21.7723 132.255 36.3572 166.761 41.2211 203.246L47.2039 202.448C42.197 164.891 27.1833 129.37 3.7352 99.6075L-1.00595 103.343ZM41.2268 203.286C46.5862 239.692 42.0627 276.868 28.1296 310.926L33.716 313.212C48.0586 278.152 52.7151 239.883 47.1982 202.407L41.2268 203.286ZM28.1394 310.903C18.7503 333.308 5.26203 354.3 -7.94054 374.8L-2.86609 378.068C10.2872 357.644 24.0777 336.212 33.7061 313.235L28.1394 310.903ZM-7.94054 374.8C-21.0869 395.213 -34.9648 416.576 -44.606 439.738L-39.0337 442.057C-29.6368 419.483 -16.0755 398.579 -2.86609 378.068L-7.94054 374.8ZM-44.6057 439.737C-65.6412 490.24 -64.4493 548.656 -44.6801 599.466L-39.0551 597.277C-58.3131 547.782 -59.4146 490.988 -39.034 442.058L-44.6057 439.737ZM-43.5131 600.901L-42.4801 601.573L-39.1891 596.513L-40.2221 595.841L-43.5131 600.901ZM-38.0279 597.934C-57.6099 548.387 -58.8165 491.399 -38.4017 442.337L-43.9743 440.018C-65.0458 490.658 -63.7468 549.281 -43.6412 600.152L-38.0279 597.934ZM-38.4046 442.344C-29.0152 419.937 -15.5018 398.827 -2.24864 378.289L-7.32009 375.016C-20.5316 395.489 -34.3432 417.035 -43.9714 440.011L-38.4046 442.344ZM-2.24864 378.289C10.961 357.819 24.7156 336.442 34.3796 313.329L28.811 311.001C19.3872 333.539 5.93497 354.476 -7.32009 375.016L-2.24864 378.289ZM34.387 313.311C48.8134 278.172 53.5367 239.802 48.0633 202.213L42.0906 203.083C47.4082 239.602 42.8193 276.879 28.8035 311.019L34.387 313.311ZM48.0675 202.243C42.9732 164.606 27.8646 129.028 4.32044 99.2253L-0.415668 102.967C22.4584 131.921 37.137 166.487 42.0863 203.053L48.0675 202.243ZM4.30576 99.2069C-6.18519 86.1386 -18.2391 74.406 -31.5861 64.2719L-35.236 69.0791C-22.282 78.9147 -10.583 90.3018 -0.401003 102.985L4.30576 99.2069ZM-35.7582 64.7784L-36.1614 65.2774L-31.4673 69.0715L-31.064 68.5726L-35.7582 64.7784Z" fill="url(#paint1_linear)" mask="url(#path-4-inside-2)"/>
<mask id="path-6-inside-3" fill="white">
<path d="M-18.8164 44.116L-19.2124 44.7248C0.0948245 53.7523 18.0697 65.3907 34.2074 79.3132C55.6472 98.1452 71.603 122.418 80.3895 149.568C89.4371 178.317 88.2442 206.102 77.1141 230.075C66.226 253.312 46.7637 271.288 27.9419 288.683C23.4839 292.792 18.8811 297.044 14.4859 301.299C-55.004 368.834 -98.5312 458.656 -108.479 555.045L-107.796 555.489C-97.9374 459.131 -54.4663 369.321 14.9922 301.812C19.3754 297.575 23.9782 293.324 28.4362 289.215C47.3125 271.776 66.7867 253.782 77.7644 230.367C89.0818 206.227 90.1751 178.272 81.0584 149.347C72.2496 122.096 56.2466 97.7294 34.739 78.8189C18.5668 64.845 0.545375 53.1674 -18.8164 44.116V44.116Z"/>
</mask>
<path d="M-18.8164 44.116L-19.2124 44.7248C0.0948245 53.7523 18.0697 65.3907 34.2074 79.3132C55.6472 98.1452 71.603 122.418 80.3895 149.568C89.4371 178.317 88.2442 206.102 77.1141 230.075C66.226 253.312 46.7637 271.288 27.9419 288.683C23.4839 292.792 18.8811 297.044 14.4859 301.299C-55.004 368.834 -98.5312 458.656 -108.479 555.045L-107.796 555.489C-97.9374 459.131 -54.4663 369.321 14.9922 301.812C19.3754 297.575 23.9782 293.324 28.4362 289.215C47.3125 271.776 66.7867 253.782 77.7644 230.367C89.0818 206.227 90.1751 178.272 81.0584 149.347C72.2496 122.096 56.2466 97.7294 34.739 78.8189C18.5668 64.845 0.545375 53.1674 -18.8164 44.116V44.116Z" fill="#5B24B2"/>
<path d="M-18.8164 44.116L-16.2866 45.7615L-14.6412 43.2317L-17.171 41.5862L-18.8164 44.116ZM-19.2124 44.7248L-21.7422 43.0793L-23.6345 45.9886L-20.4907 47.4586L-19.2124 44.7248ZM34.2074 79.3132L36.199 77.0459L36.189 77.037L36.1788 77.0282L34.2074 79.3132ZM80.3895 149.568L83.2682 148.662L83.2645 148.65L83.2607 148.639L80.3895 149.568ZM77.1141 230.075L79.8469 231.355L79.8514 231.346L77.1141 230.075ZM27.9419 288.683L29.9873 290.902L29.9901 290.899L27.9419 288.683ZM14.4859 301.299L12.3868 299.131L12.3826 299.135L14.4859 301.299ZM-108.479 555.045L-111.481 554.735L-111.67 556.57L-110.124 557.575L-108.479 555.045ZM-107.796 555.489L-109.442 558.019L-105.297 560.715L-104.794 555.796L-107.796 555.489ZM14.9922 301.812L12.8948 299.642L12.8888 299.648L14.9922 301.812ZM28.4362 289.215L30.4816 291.434L30.484 291.431L28.4362 289.215ZM77.7644 230.367L75.0319 229.085L75.0319 229.085L77.7644 230.367ZM81.0584 149.347L83.9367 148.439L83.9334 148.429L83.9299 148.418L81.0584 149.347ZM34.739 78.8189L36.7317 76.5525L36.7219 76.5439L36.7121 76.5355L34.739 78.8189ZM-18.8164 44.116L-17.5384 41.3822L-20.4619 46.6458L-18.8164 44.116ZM-21.3463 42.4705L-21.7422 43.0793L-16.6826 46.3702L-16.2866 45.7615L-21.3463 42.4705ZM-20.4907 47.4586C-1.43393 56.369 16.3077 67.8564 32.2361 81.5983L36.1788 77.0282C19.8316 62.9251 1.62358 51.1356 -17.9341 41.991L-20.4907 47.4586ZM32.2159 81.5806C53.2473 100.054 68.8991 123.864 77.5182 150.497L83.2607 148.639C74.3069 120.972 58.0472 96.2365 36.199 77.0459L32.2159 81.5806ZM77.5108 150.474C86.3641 178.605 85.1484 205.603 74.3769 228.804L79.8514 231.346C91.34 206.6 92.5101 178.029 83.2682 148.662L77.5108 150.474ZM74.3814 228.794C63.7874 251.404 44.8029 268.991 25.8936 286.467L29.9901 290.899C48.7245 273.585 68.6646 255.221 79.8469 231.355L74.3814 228.794ZM25.8964 286.464C21.4411 290.571 16.8123 294.846 12.3868 299.131L16.585 303.467C20.95 299.241 25.5268 295.014 29.9873 290.902L25.8964 286.464ZM12.3826 299.135C-57.6152 367.164 -101.46 457.642 -111.481 554.735L-105.477 555.355C-95.602 459.67 -52.3929 370.505 16.5892 303.463L12.3826 299.135ZM-110.124 557.575L-109.442 558.019L-106.151 552.959L-106.833 552.515L-110.124 557.575ZM-104.794 555.796C-95.0074 460.144 -51.8545 370.991 17.0956 303.976L12.8888 299.648C-57.0781 367.652 -100.867 458.119 -110.798 555.182L-104.794 555.796ZM17.0896 303.982C21.4435 299.774 26.0212 295.545 30.4816 291.434L26.3907 286.996C21.9353 291.103 17.3074 295.377 12.8948 299.642L17.0896 303.982ZM30.484 291.431C49.2758 274.071 69.2255 255.69 80.4969 231.648L75.0319 229.085C64.348 251.875 45.3491 269.482 26.3883 286.998L30.484 291.431ZM80.4969 231.648C92.1821 206.723 93.2457 177.975 83.9367 148.439L78.1801 150.254C87.1046 178.569 85.9814 205.73 75.0319 229.085L80.4969 231.648ZM83.9299 148.418C74.954 120.651 58.6475 95.8218 36.7317 76.5525L32.7462 81.0853C53.8458 99.637 69.5451 123.541 78.1868 150.275L83.9299 148.418ZM36.7121 76.5355C20.3301 62.3802 2.07471 50.551 -17.5384 41.3822L-20.0945 46.8499C-0.983976 55.7838 16.8036 67.3099 32.7659 81.1024L36.7121 76.5355ZM-20.4619 46.6458V46.6458L-17.171 41.5862V41.5862L-20.4619 46.6458Z" fill="#5B24B2" mask="url(#path-6-inside-3)"/>
</g>
<defs>
<linearGradient id="paint0_linear" x1="99.8771" y1="78.1702" x2="78.3435" y2="59.7436" gradientUnits="userSpaceOnUse">
<stop stop-color="#FF5A31"/>
<stop offset="1" stop-color="#FFB09D"/>
</linearGradient>
<linearGradient id="paint1_linear" x1="-6.00552" y1="935.061" x2="-414.207" y2="618.456" gradientUnits="userSpaceOnUse">
<stop stop-color="#FF5A31"/>
<stop offset="1" stop-color="#FFB09D"/>
</linearGradient>
</defs>
</svg>
