<svg width="38" height="37" viewBox="0 0 38 37" fill="none" xmlns="http://www.w3.org/2000/svg">
<path opacity="0.25" fill-rule="evenodd" clip-rule="evenodd" d="M18.9824 36C28.6474 36 36.4824 28.165 36.4824 18.5C36.4824 8.83502 28.6474 1 18.9824 1C9.31744 1 1.48242 8.83502 1.48242 18.5C1.48242 28.165 9.31744 36 18.9824 36Z" stroke="white" stroke-width="1.5"/>
<path d="M14.9661 14.9671C15.7854 14.9671 16.4496 14.3029 16.4496 13.4835C16.4496 12.6642 15.7854 12 14.9661 12C14.1468 12 13.4825 12.6642 13.4825 13.4835C13.4825 14.3029 14.1468 14.9671 14.9661 14.9671Z" fill="white"/>
<path d="M16.2023 15.9581H13.7297C13.5932 15.9581 13.4824 16.0689 13.4824 16.2054V23.6231C13.4824 23.7596 13.5932 23.8704 13.7297 23.8704H16.2023C16.3387 23.8704 16.4495 23.7596 16.4495 23.6231V16.2054C16.4495 16.0689 16.3387 15.9581 16.2023 15.9581Z" fill="white"/>
<path d="M23.5706 15.5468C22.5138 15.1848 21.192 15.5028 20.3993 16.0729C20.3721 15.9666 20.2751 15.8875 20.1599 15.8875H17.6873C17.5508 15.8875 17.4401 15.9983 17.4401 16.1347V23.5525C17.4401 23.689 17.5508 23.7998 17.6873 23.7998H20.1599C20.2964 23.7998 20.4072 23.689 20.4072 23.5525V18.2216C20.8067 17.8774 21.3215 17.7676 21.7429 17.9467C22.1513 18.1192 22.3852 18.5406 22.3852 19.1018V23.5525C22.3852 23.689 22.496 23.7998 22.6325 23.7998H25.1051C25.2416 23.7998 25.3523 23.689 25.3523 23.5525V18.6039C25.3241 16.5719 24.3682 15.8197 23.5706 15.5468Z" fill="white"/>
</svg>
