<svg width="40" height="40" viewBox="0 0 40 40" fill="none" xmlns="http://www.w3.org/2000/svg">
<path d="M29.9254 17.2104C28.7971 18.3456 28.2332 19.9246 28.3872 21.5178L28.3607 21.4913C28.519 23.3661 27.8427 25.2154 26.5123 26.5458C25.1818 27.8762 23.3326 28.5525 21.4577 28.3942L21.4842 28.4207C19.2142 28.2094 17.0555 29.4442 16.0867 31.5079C15.118 33.5717 15.5473 36.0213 17.1601 37.6326C18.7729 39.2439 21.2228 39.671 23.2857 38.7004C25.3486 37.7298 26.5814 35.5699 26.368 33.3001L26.396 33.3266C26.2377 31.4518 26.914 29.6025 28.2444 28.2721C29.5748 26.9417 31.4241 26.2654 33.2989 26.4236L33.271 26.3972C35.7658 26.6215 38.0872 25.1003 38.8774 22.7234C39.6676 20.3464 38.719 17.7382 36.5864 16.4242C34.4538 15.1102 31.6976 15.4358 29.9298 17.2104H29.9254Z" fill="#5454D4"/>
<path d="M19.0769 24.9531L19.0489 24.9266C20.6431 25.0872 22.2252 24.5235 23.3586 23.3909C24.492 22.2584 25.0569 20.6768 24.8974 19.0825L24.9254 19.1089C24.7671 17.2341 25.4434 15.3848 26.7738 14.0544C28.1042 12.724 29.9535 12.0477 31.8283 12.206L31.8004 12.1795C34.0706 12.3927 36.2306 11.1593 37.2009 9.09586C38.1711 7.0324 37.743 4.5821 36.1307 2.96978C34.5184 1.35745 32.0681 0.929418 30.0046 1.89964C27.9412 2.86986 26.7078 5.02992 26.921 7.30011L26.8945 7.27217C27.0533 9.14713 26.3772 10.9967 25.0466 12.3273C23.7161 13.6578 21.8665 14.3339 19.9916 14.1751L20.018 14.2031C18.4238 14.0424 16.8418 14.6061 15.7084 15.7387C14.575 16.8712 14.0101 18.4529 14.1695 20.0472L14.143 20.0207C14.3008 21.8954 13.6243 23.7443 12.294 25.0746C10.9637 26.4049 9.11479 27.0814 7.24009 26.9236L7.26656 26.9501C4.99638 26.7369 2.83631 27.9703 1.86609 30.0338C0.895871 32.0972 1.3239 34.5475 2.93623 36.1599C4.54856 37.7722 6.99885 38.2002 9.06231 37.23C11.1258 36.2598 12.3592 34.0997 12.146 31.8295L12.1739 31.856C12.0157 29.9812 12.6919 28.1319 14.0223 26.8015C15.3528 25.4711 17.202 24.7948 19.0769 24.9531Z" fill="#FF7143"/>
<path d="M9.22099 22.0016C10.3495 20.8665 10.9129 19.2873 10.7578 17.6942L10.7857 17.7207C10.6273 15.8453 11.304 13.9955 12.6351 12.665C13.9662 11.3344 15.8163 10.6586 17.6916 10.8178L17.6636 10.7913C19.933 11.0039 22.0921 9.7706 23.0617 7.7078C24.0313 5.64499 23.6033 3.19566 21.9916 1.58393C20.3798 -0.0277992 17.9305 -0.455804 15.8677 0.513824C13.8049 1.48345 12.5716 3.64248 12.7842 5.91187L12.7578 5.8854C12.916 7.76024 12.2397 9.60949 10.9093 10.9399C9.5789 12.2703 7.72964 12.9466 5.85481 12.7883L5.88128 12.8148C3.38658 12.5911 1.06564 14.1127 0.275915 16.4896C-0.513813 18.8666 0.435108 21.4746 2.56768 22.7882C4.70026 24.1019 7.45632 23.7762 9.22393 22.0016H9.22099Z" fill="#5454D4"/>
</svg>
