<svg width="37" height="37" viewBox="0 0 37 37" fill="none" xmlns="http://www.w3.org/2000/svg">
<path d="M18.1794 23.9353L18.1515 23.9088C19.7456 24.0695 21.3277 23.5057 22.4611 22.3732C23.5945 21.2406 24.1594 19.659 24 18.0647L24.0279 18.0912C23.8697 16.2163 24.5459 14.3671 25.8764 13.0367C27.2068 11.7062 29.056 11.03 30.9309 11.1882L30.9029 11.1618C33.1731 11.375 35.3332 10.1416 36.3034 8.0781C37.2736 6.01464 36.8456 3.56434 35.2333 1.95202C33.6209 0.339688 31.1706 -0.0883433 29.1072 0.881876C27.0437 1.8521 25.8103 4.01216 26.0235 6.28235L25.997 6.25441C26.1558 8.12937 25.4797 9.97894 24.1492 11.3095C22.8186 12.64 20.9691 13.3161 19.0941 13.1573L19.1206 13.1853C17.5264 13.0247 15.9443 13.5884 14.8109 14.7209C13.6775 15.8535 13.1126 17.4351 13.272 19.0294L13.2456 19.0029C13.4033 20.8776 12.7269 22.7266 11.3966 24.0569C10.0663 25.3872 8.21733 26.0636 6.34263 25.9059L6.3691 25.9323C4.09892 25.7192 1.93885 26.9526 0.96863 29.016C-0.00158948 31.0795 0.426442 33.5298 2.03877 35.1421C3.6511 36.7544 6.10139 37.1825 8.16485 36.2122C10.2283 35.242 11.4617 33.0819 11.2485 30.8118L11.2765 30.8382C11.1182 28.9634 11.7945 27.1141 13.1249 25.7837C14.4553 24.4533 16.3046 23.777 18.1794 23.9353Z" fill="#FF7143"/>
</svg>
