<svg width="38" height="37" viewBox="0 0 38 37" fill="none" xmlns="http://www.w3.org/2000/svg">
<path opacity="0.25" fill-rule="evenodd" clip-rule="evenodd" d="M18.9824 36C28.6474 36 36.4824 28.165 36.4824 18.5C36.4824 8.83502 28.6474 1 18.9824 1C9.31744 1 1.48242 8.83502 1.48242 18.5C1.48242 28.165 9.31744 36 18.9824 36Z" stroke="white" stroke-width="1.5"/>
<path d="M24.7026 15.2647C24.6214 15.1729 24.4905 15.1498 24.3831 15.2064C24.3163 15.2416 24.1907 15.2878 24.0416 15.3334C24.2297 15.0762 24.381 14.7882 24.4477 14.5293C24.4766 14.4177 24.4344 14.3001 24.3425 14.2336C24.2506 14.1677 24.1282 14.1677 24.0363 14.2336C23.8915 14.3375 23.1926 14.6497 22.7507 14.7508C21.752 13.8511 20.5898 13.7577 19.3817 14.4831C18.3995 15.0729 18.1858 16.2721 18.2275 17.0031C15.9795 16.7805 14.5822 15.5593 13.7957 14.5485C13.7406 14.4776 13.6519 14.4403 13.5686 14.4458C13.4809 14.4524 13.4018 14.5024 13.357 14.5799C12.9851 15.2257 12.8819 15.9396 13.0599 16.6447C13.1571 17.0295 13.327 17.3686 13.5242 17.6434C13.4296 17.5956 13.3383 17.5357 13.2522 17.4642C13.1732 17.3972 13.0625 17.3845 12.969 17.429C12.8761 17.4747 12.8167 17.5714 12.8167 17.6775C12.8167 18.8882 13.5531 19.6962 14.2408 20.1183C14.1296 20.1045 14.0137 20.0792 13.8966 20.0424C13.7962 20.0111 13.6872 20.0424 13.6177 20.1238C13.5483 20.2046 13.5317 20.32 13.575 20.4184C13.9613 21.2972 14.6934 21.9017 15.5991 22.121C14.8082 22.5986 13.7497 22.8328 12.7804 22.7179C12.6548 22.6998 12.5351 22.7817 12.4956 22.9059C12.4561 23.0301 12.5079 23.1664 12.6185 23.2301C14.089 24.0793 15.4185 24.3827 16.5673 24.3827C18.2392 24.3827 19.5297 23.7407 20.3152 23.2038C22.4327 21.7583 23.7526 19.163 23.5688 16.841C23.9081 16.5832 24.4157 16.1072 24.7304 15.5955C24.7956 15.4922 24.7838 15.3559 24.7026 15.2647Z" fill="white"/>
</svg>
