<svg width="20" height="20" viewBox="0 0 20 20" fill="none" xmlns="http://www.w3.org/2000/svg">
<path d="M11.5807 13.1484C11.0916 12.8072 10.569 12.5292 10.0224 12.3167C10.7495 11.6559 11.2318 10.7301 11.3158 9.69376C12.4184 8.61939 13.8637 8.0304 15.4131 8.0304C16.6226 8.0304 17.784 8.39463 18.7718 9.08356C19.1258 9.33045 19.6126 9.24378 19.8595 8.88977C20.1062 8.53592 20.0195 8.04902 19.6657 7.80228C19.1766 7.46109 18.6539 7.18323 18.1073 6.97068C18.9096 6.24146 19.4141 5.18997 19.4141 4.02298C19.4141 1.82617 17.627 0.0390625 15.4302 0.0390625C13.2335 0.0390625 11.4464 1.82617 11.4464 4.02298C11.4464 5.18524 11.9467 6.23291 12.7435 6.96183C12.6344 7.00379 12.5259 7.04819 12.4185 7.09549C11.9296 7.31064 11.47 7.57523 11.0426 7.8859C10.4532 6.42151 9.0181 5.38513 7.34528 5.38513C5.14863 5.38513 3.36137 7.17224 3.36137 9.3689C3.36137 10.528 3.85895 11.5727 4.6515 12.3013C2.53251 13.0953 0.814369 14.8004 0.114906 16.9751C-0.117028 17.6962 0.00580543 18.461 0.451972 19.0733C0.898139 19.6855 1.58845 20.0366 2.34589 20.0366H9.142C9.57337 20.0366 9.9231 19.6869 9.9231 19.2554C9.9231 18.824 9.57337 18.4743 9.142 18.4743H2.34589C2.09336 18.4743 1.86326 18.3572 1.71448 18.1531C1.56571 17.9489 1.52482 17.6939 1.60203 17.4535C2.37412 15.053 4.72886 13.3765 7.32819 13.3765C8.5376 13.3765 9.6991 13.7407 10.687 14.4296C11.0408 14.6765 11.5277 14.5897 11.7746 14.2358C12.0213 13.882 11.9347 13.3951 11.5807 13.1484ZM15.4302 1.60141C16.7654 1.60141 17.8517 2.68768 17.8517 4.02298C17.8517 5.35813 16.7654 6.44455 15.4302 6.44455C14.095 6.44455 13.0086 5.35813 13.0086 4.02298C13.0086 2.68768 14.095 1.60141 15.4302 1.60141ZM7.34528 6.94733C8.68058 6.94733 9.76685 8.03376 9.76685 9.3689C9.76685 10.7042 8.68058 11.7905 7.34528 11.7905C6.00999 11.7905 4.92371 10.7042 4.92371 9.3689C4.92371 8.03376 6.00999 6.94733 7.34528 6.94733ZM20 16.3261C20 16.7575 19.6503 17.1072 19.2188 17.1072H17.0706V19.2554C17.0706 19.6869 16.7209 20.0366 16.2895 20.0366C15.858 20.0366 15.5083 19.6869 15.5083 19.2554V17.1072H13.3601C12.9288 17.1072 12.579 16.7575 12.579 16.3261C12.579 15.8946 12.9288 15.5449 13.3601 15.5449H15.5083V13.3968C15.5083 12.9654 15.858 12.6157 16.2895 12.6157C16.7209 12.6157 17.0706 12.9654 17.0706 13.3968V15.5449H19.2188C19.6503 15.5449 20 15.8946 20 16.3261Z" fill="white"/>
</svg>
